<svg width="98" height="98" viewBox="0 0 98 98" fill="none" xmlns="http://www.w3.org/2000/svg">
<path d="M40.0872 84.9807L34.1435 76.1803L23.5889 77.2877L33.9426 55.0858L35.7262 55.9188L26.8425 74.97L35.1137 74.1027L39.7687 80.997L49.5344 60.0593L51.318 60.8923L40.0872 84.9807Z" fill="#006FB8"/>
<path d="M40.0868 85.4707C40.0086 85.4698 39.9318 85.4502 39.8627 85.4136C39.7937 85.3769 39.7344 85.3243 39.6899 85.26L33.903 76.6997L23.6375 77.7728C23.5513 77.7822 23.4641 77.7686 23.3849 77.7333C23.3057 77.698 23.2373 77.6423 23.1867 77.5719C23.1368 77.5014 23.1064 77.4189 23.0987 77.3329C23.0909 77.2468 23.1061 77.1602 23.1426 77.0819L33.4963 54.88C33.5515 54.7624 33.6512 54.6716 33.7734 54.6275C33.8956 54.5834 34.0303 54.5896 34.148 54.6448L35.9316 55.4729C36.0492 55.5282 36.14 55.6279 36.1841 55.7501C36.2282 55.8723 36.222 56.007 36.1668 56.1246L27.6506 74.3918L35.0643 73.6176C35.1522 73.6084 35.2409 73.6231 35.3211 73.6602C35.4014 73.6973 35.4701 73.7554 35.52 73.8283L39.6899 80.0072L49.0881 59.8535C49.1154 59.7947 49.1542 59.7418 49.2021 59.6981C49.2501 59.6544 49.3062 59.6206 49.3674 59.5987C49.4867 59.5497 49.6205 59.5497 49.7398 59.5987L51.5234 60.4317C51.582 60.4586 51.6348 60.4969 51.6786 60.5442C51.7224 60.5916 51.7565 60.6471 51.7788 60.7077C51.8011 60.7682 51.8112 60.8326 51.8086 60.8971C51.806 60.9616 51.7906 61.0249 51.7635 61.0834L40.5278 85.1865C40.4907 85.2649 40.4336 85.332 40.3621 85.3811C40.2907 85.4302 40.2075 85.4594 40.1211 85.4658L40.0868 85.4707ZM34.1431 75.6707C34.2238 75.6711 34.3031 75.6915 34.3741 75.73C34.445 75.7684 34.5054 75.8238 34.5498 75.8912L40.0084 83.986L50.6659 61.1275L49.7692 60.711L40.2142 81.2028C40.1778 81.2821 40.1209 81.3502 40.0494 81.4002C39.9779 81.4502 39.8944 81.4801 39.8075 81.487C39.7207 81.4939 39.6336 81.4776 39.5553 81.4397C39.4769 81.4018 39.41 81.3437 39.3616 81.2714L34.8732 74.6221L26.8911 75.46C26.805 75.4682 26.7184 75.4535 26.6399 75.4174C26.5614 75.3812 26.4938 75.325 26.4441 75.2544C26.3943 75.1837 26.3642 75.1012 26.3566 75.0151C26.349 74.929 26.3644 74.8425 26.4011 74.7642L35.079 56.1442L34.1823 55.7277L24.3823 76.6997L34.0794 75.6854L34.1431 75.6707Z" fill="#006FB8"/>
<path d="M58.07 87.7443L47.3145 65.6845L49.0834 64.8221L58.315 83.7606L62.8524 76.783L71.1383 77.5033L61.0982 56.9233L62.8671 56.0609L74.4311 79.7671L63.8569 78.8459L58.07 87.7443Z" fill="#006FB8"/>
<path d="M58.0702 88.2343H58.0408C57.9549 88.2284 57.8721 88.1999 57.8007 88.1517C57.7293 88.1035 57.6718 88.0374 57.6341 87.9599L46.8541 65.9099C46.8051 65.7906 46.8051 65.6568 46.8541 65.5375C46.8749 65.4759 46.9076 65.4191 46.9505 65.3703C46.9934 65.3215 47.0456 65.2817 47.104 65.2533L48.8729 64.3909C48.9893 64.335 49.1231 64.3274 49.2451 64.3696C49.3672 64.4118 49.4676 64.5004 49.5246 64.6163L58.3838 82.7757L62.4459 76.5282C62.4946 76.4535 62.5628 76.3934 62.6431 76.3546C62.7234 76.3157 62.8128 76.2995 62.9016 76.3077L70.3202 76.93L60.6623 57.134C60.6065 57.0176 60.5988 56.8838 60.641 56.7618C60.6832 56.6398 60.7719 56.5393 60.8877 56.4823L62.6566 55.6199C62.7731 55.564 62.9068 55.5564 63.0288 55.5986C63.1509 55.6408 63.2513 55.7295 63.3083 55.8453L74.8723 79.5515C74.9102 79.6299 74.9265 79.717 74.9195 79.8039C74.9126 79.8907 74.8826 79.9741 74.8327 80.0455C74.7828 80.1168 74.7147 80.1736 74.6356 80.21C74.5564 80.2463 74.469 80.2609 74.3823 80.2522L64.0923 79.3604L58.4671 88.0138C58.4237 88.0799 58.3649 88.1344 58.2958 88.1728C58.2267 88.2112 58.1493 88.2323 58.0702 88.2343ZM47.9664 65.9099L58.1339 86.7545L63.4455 78.5813C63.4942 78.5066 63.5624 78.4465 63.6427 78.4077C63.723 78.3688 63.8124 78.3526 63.9012 78.3608L73.613 79.2036L62.6419 56.7126L61.755 57.1438L71.5795 77.2877C71.6175 77.3652 71.6342 77.4513 71.6282 77.5373C71.6222 77.6234 71.5936 77.7063 71.5452 77.7777C71.4962 77.8491 71.4291 77.9062 71.3507 77.9432C71.2724 77.9803 71.1857 77.9958 71.0993 77.9884L63.1025 77.2926L58.7268 84.0203C58.6794 84.0928 58.6136 84.1513 58.5361 84.1901C58.4586 84.2288 58.3723 84.2463 58.2858 84.2408C58.1999 84.2349 58.1171 84.2064 58.0457 84.1582C57.9743 84.11 57.9168 84.0439 57.8791 83.9664L48.8582 65.4787L47.9664 65.9099Z" fill="#006FB8"/>
<path d="M42.2283 63.7637C41.6078 63.7619 40.9913 63.6644 40.4006 63.4746C39.5647 63.2034 38.8003 62.7484 38.1635 62.143C37.5267 61.5375 37.0337 60.797 36.7207 59.976L36.1131 58.3884C35.8437 57.6759 35.3726 57.0574 34.7574 56.6084C34.1421 56.1594 33.4094 55.8993 32.6488 55.86L30.9534 55.7718C30.0749 55.7292 29.2171 55.4901 28.4433 55.0721C27.6694 54.6541 26.9992 54.0678 26.482 53.3564C25.9648 52.645 25.6138 51.8266 25.4548 50.9616C25.2958 50.0966 25.3329 49.2069 25.5634 48.3581L26.0044 46.7166C26.2024 45.9827 26.1828 45.207 25.9479 44.4841C25.713 43.7611 25.2729 43.122 24.6814 42.6447L23.3633 41.5765C22.6783 41.0254 22.1256 40.3278 21.7458 39.5349C21.3661 38.742 21.1689 37.8741 21.1689 36.995C21.1689 36.1159 21.3661 35.2479 21.7458 34.455C22.1256 33.6622 22.6783 32.9645 23.3633 32.4135L24.6814 31.36C25.2729 30.8826 25.713 30.2436 25.9479 29.5206C26.1828 28.7977 26.2024 28.022 26.0044 27.2881L25.5634 25.6466C25.3329 24.7978 25.2958 23.9081 25.4548 23.0431C25.6138 22.178 25.9648 21.3597 26.482 20.6483C26.9992 19.9369 27.6694 19.3506 28.4433 18.9326C29.2171 18.5146 30.0749 18.2755 30.9534 18.2329L32.6488 18.13C33.4083 18.0915 34.1402 17.8328 34.7553 17.3857C35.3704 16.9385 35.8422 16.322 36.1131 15.6114L36.7207 14.0287C37.0329 13.2065 37.5256 12.4648 38.1625 11.8583C38.7994 11.2518 39.5642 10.7958 40.4007 10.5241C41.2371 10.2523 42.1238 10.1717 42.9956 10.288C43.8674 10.4044 44.7019 10.7148 45.4378 11.1965L46.8588 12.1226C47.4957 12.538 48.2397 12.7591 49.0001 12.7591C49.7605 12.7591 50.5044 12.538 51.1414 12.1226L52.5624 11.1965C53.2982 10.7148 54.1328 10.4044 55.0045 10.288C55.8763 10.1717 56.763 10.2523 57.5995 10.5241C58.4359 10.7958 59.2007 11.2518 59.8376 11.8583C60.4745 12.4648 60.9672 13.2065 61.2795 14.0287L61.8871 15.6114C62.158 16.322 62.6297 16.9385 63.2448 17.3857C63.8599 17.8328 64.5918 18.0915 65.3514 18.13L67.0468 18.2182C67.9253 18.2608 68.783 18.4999 69.5569 18.9179C70.3307 19.3359 71.0009 19.9222 71.5181 20.6336C72.0353 21.345 72.3863 22.1633 72.5453 23.0284C72.7043 23.8934 72.6672 24.7831 72.4368 25.6319L71.9958 27.2734C71.7977 28.0073 71.8174 28.783 72.0523 29.5059C72.2872 30.2289 72.7272 30.8679 73.3188 31.3453L74.6369 32.4135C75.3219 32.9645 75.8746 33.6622 76.2543 34.455C76.6341 35.2479 76.8312 36.1159 76.8312 36.995C76.8312 37.8741 76.6341 38.742 76.2543 39.5349C75.8746 40.3278 75.3219 41.0254 74.6369 41.5765L73.3188 42.6447C72.7272 43.122 72.2872 43.7611 72.0523 44.4841C71.8174 45.207 71.7977 45.9827 71.9958 46.7166L72.4368 48.3581C72.6672 49.2069 72.7043 50.0966 72.5453 50.9616C72.3863 51.8266 72.0353 52.645 71.5181 53.3564C71.0009 54.0678 70.3307 54.6541 69.5569 55.0721C68.783 55.4901 67.9253 55.7292 67.0468 55.7718L65.3514 55.86C64.5924 55.8981 63.8609 56.156 63.2459 56.6023C62.6308 57.0486 62.1587 57.664 61.8871 58.3737L61.2795 59.9613C60.9672 60.7835 60.4745 61.5251 59.8376 62.1317C59.2007 62.7382 58.4359 63.1941 57.5995 63.4659C56.763 63.7376 55.8763 63.8183 55.0045 63.7019C54.1328 63.5856 53.2982 63.2751 52.5624 62.7935L51.1414 61.8674C50.5044 61.452 49.7605 61.2309 49.0001 61.2309C48.2397 61.2309 47.4957 61.452 46.8588 61.8674L45.4378 62.7935C44.4848 63.4215 43.3696 63.7586 42.2283 63.7637ZM49.0001 59.29C50.1408 59.2902 51.2571 59.6204 52.2145 60.2406L53.6355 61.1667C54.1252 61.4871 54.6804 61.6938 55.2604 61.7717C55.8404 61.8495 56.4305 61.7965 56.9874 61.6165C57.5442 61.4365 58.0537 61.1342 58.4785 60.7316C58.9032 60.329 59.2324 59.8364 59.442 59.29L60.0496 57.7073C60.4515 56.6355 61.1575 55.7044 62.081 55.028C63.0045 54.3517 64.1054 53.9597 65.2485 53.9L66.9439 53.8118C67.5301 53.7862 68.103 53.6294 68.6205 53.3529C69.1381 53.0764 69.5869 52.6873 69.934 52.2142C70.281 51.7411 70.5174 51.1961 70.6258 50.6195C70.7342 50.0428 70.7117 49.4492 70.5601 48.8824L70.1191 47.2409C69.8188 46.142 69.8441 44.9795 70.1921 43.8948C70.54 42.8101 71.1956 41.8497 72.0791 41.1306L73.4021 40.0624C73.8581 39.695 74.2261 39.2301 74.4789 38.7018C74.7317 38.1735 74.8629 37.5953 74.8629 37.0097C74.8629 36.424 74.7317 35.8458 74.4789 35.3176C74.2261 34.7893 73.8581 34.3244 73.4021 33.957L72.0791 32.8888C71.1956 32.1696 70.54 31.2093 70.1921 30.1246C69.8441 29.0398 69.8188 27.8774 70.1191 26.7785L70.5601 25.137C70.7131 24.5715 70.7374 23.9788 70.6312 23.4027C70.5251 22.8265 70.2911 22.2815 69.9465 21.8076C69.602 21.3338 69.1556 20.9432 68.6402 20.6646C68.1248 20.386 67.5535 20.2265 66.9684 20.1978L65.2485 20.09C64.1088 20.0327 63.0104 19.645 62.0872 18.9741C61.1641 18.3033 60.4561 17.3784 60.0496 16.3121L59.442 14.7245C59.2335 14.1772 58.905 13.6836 58.4807 13.28C58.0564 12.8764 57.5471 12.5729 56.9901 12.392C56.4331 12.211 55.8427 12.1571 55.2622 12.2343C54.6816 12.3115 54.1258 12.5178 53.6355 12.838L52.2145 13.7641C51.2586 14.3882 50.1417 14.7205 49.0001 14.7205C47.8585 14.7205 46.7416 14.3882 45.7857 13.7641L44.3647 12.838C43.8743 12.5178 43.3185 12.3115 42.738 12.2343C42.1574 12.1571 41.567 12.211 41.01 12.392C40.4531 12.5729 39.9437 12.8764 39.5194 13.28C39.0951 13.6836 38.7667 14.1772 38.5582 14.7245L37.9506 16.3121C37.544 17.3784 36.836 18.3033 35.9129 18.9741C34.9898 19.645 33.8914 20.0327 32.7517 20.09L31.0563 20.1782C30.4689 20.2062 29.8954 20.366 29.3782 20.6458C28.861 20.9255 28.4134 21.318 28.0685 21.7943C27.7235 22.2705 27.4902 22.8182 27.3856 23.3968C27.2811 23.9754 27.3081 24.5702 27.4646 25.137L27.9056 26.7785C28.2031 27.8797 28.1739 29.0437 27.8216 30.1286C27.4692 31.2135 26.8089 32.1726 25.9211 32.8888L24.5981 33.957C24.142 34.3244 23.774 34.7893 23.5212 35.3176C23.2684 35.8458 23.1372 36.424 23.1372 37.0097C23.1372 37.5953 23.2684 38.1735 23.5212 38.7018C23.774 39.2301 24.142 39.695 24.5981 40.0624L25.9211 41.1306C26.8132 41.8439 27.4783 42.8016 27.8351 43.8867C28.1919 44.9718 28.2249 46.1373 27.9301 47.2409L27.4891 48.8824C27.336 49.4479 27.3117 50.0405 27.4179 50.6167C27.5241 51.1929 27.758 51.7379 28.1026 52.2117C28.4472 52.6856 28.8935 53.0761 29.4089 53.3547C29.9243 53.6333 30.4956 53.7929 31.0808 53.8216L32.7762 53.9098C33.9159 53.9671 35.0143 54.3548 35.9374 55.0256C36.8605 55.6965 37.5685 56.6214 37.9751 57.6877L38.5582 59.29C38.7667 59.8372 39.0951 60.3308 39.5194 60.7345C39.9437 61.1381 40.4531 61.4416 41.01 61.6225C41.567 61.8035 42.1574 61.8573 42.738 61.7802C43.3185 61.703 43.8743 61.4967 44.3647 61.1765L45.7857 60.2504C46.742 59.6267 47.8584 59.2931 49.0001 59.29Z" fill="#004D80"/>
<path d="M55.7717 64.2536C54.538 64.2527 53.3311 63.8935 52.2976 63.2197L50.8717 62.2936C50.3148 61.931 49.6645 61.7379 48.9999 61.7379C48.3353 61.7379 47.6851 61.931 47.1281 62.2936L45.7022 63.2099C44.9028 63.7254 43.9992 64.0573 43.0562 64.1819C42.1132 64.3064 41.1544 64.2205 40.2485 63.9302C39.3439 63.6381 38.5162 63.1471 37.826 62.4934C37.1359 61.8397 36.6008 61.0398 36.2599 60.1523L35.6523 58.5647C35.4172 57.9414 35.0057 57.3999 34.4679 57.0066C33.9301 56.6133 33.2895 56.3851 32.6241 56.3499L30.9287 56.2617C29.979 56.2146 29.0518 55.9555 28.2153 55.5033C27.3788 55.0512 26.6541 54.4174 26.0944 53.6487C25.5348 52.8799 25.1543 51.9955 24.981 51.0606C24.8077 50.1256 24.8459 49.1636 25.0928 48.2453L25.5338 46.6038C25.7071 45.9619 25.6901 45.2834 25.4848 44.6509C25.2795 44.0185 24.8947 43.4593 24.3774 43.0415L23.0544 41.9733C22.3122 41.3764 21.7133 40.6206 21.3018 39.7615C20.8904 38.9025 20.6768 37.9621 20.6768 37.0096C20.6768 36.0571 20.8904 35.1168 21.3018 34.2578C21.7133 33.3987 22.3122 32.6429 23.0544 32.0459L24.3774 30.9777C24.8902 30.5619 25.2721 30.0069 25.4772 29.3793C25.6824 28.7518 25.702 28.0784 25.5338 27.4399L25.0928 25.7984C24.839 24.8776 24.7955 23.9115 24.9655 22.9715C25.1356 22.0316 25.5148 21.1419 26.0752 20.3684C26.6356 19.5949 27.3628 18.9573 28.2029 18.5028C29.0431 18.0483 29.9746 17.7886 30.9287 17.7428L32.6241 17.6399C33.2878 17.606 33.9272 17.3799 34.4648 16.9894C35.0024 16.5988 35.4149 16.0605 35.6523 15.4398L36.2599 13.8669C36.5963 12.9748 37.1286 12.1696 37.8176 11.5106C38.5066 10.8517 39.3347 10.3558 40.2409 10.0595C41.1471 9.76324 42.1083 9.67416 43.0535 9.79885C43.9987 9.92354 44.9039 10.2588 45.7022 10.7799L47.1281 11.706C47.6851 12.0687 48.3353 12.2618 48.9999 12.2618C49.6645 12.2618 50.3148 12.0687 50.8717 11.706L52.2976 10.7799C53.096 10.2588 54.0012 9.92354 54.9464 9.79885C55.8916 9.67416 56.8528 9.76324 57.759 10.0595C58.6652 10.3558 59.4933 10.8517 60.1823 11.5106C60.8713 12.1696 61.4036 12.9748 61.7399 13.8669L62.3475 15.4545C62.5872 16.0724 63.0007 16.6076 63.5382 16.9955C64.0756 17.3833 64.7138 17.6072 65.3757 17.6399L67.0711 17.7281C68.0242 17.7742 68.9546 18.0338 69.7939 18.4877C70.6331 18.9416 71.3596 19.5783 71.9199 20.3506C72.4801 21.1229 72.8596 22.0113 73.0305 22.95C73.2013 23.8886 73.1592 24.8537 72.907 25.7739L72.466 27.4154C72.2928 28.0574 72.3098 28.7359 72.5151 29.3684C72.7204 30.0008 73.1051 30.56 73.6224 30.9777L74.9699 32.0459C75.7122 32.6429 76.3111 33.3987 76.7225 34.2578C77.134 35.1168 77.3476 36.0571 77.3476 37.0096C77.3476 37.9621 77.134 38.9025 76.7225 39.7615C76.3111 40.6206 75.7122 41.3764 74.9699 41.9733L73.6469 43.0415C73.1296 43.4593 72.7449 44.0185 72.5396 44.6509C72.3343 45.2834 72.3173 45.9619 72.4905 46.6038L72.9315 48.2453C73.1811 49.1646 73.2213 50.1281 73.0492 51.0649C72.8771 52.0018 72.4971 52.8881 71.9371 53.6587C71.3772 54.4292 70.6516 55.0644 69.8137 55.5174C68.9758 55.9705 68.047 56.2298 67.0956 56.2764L65.4002 56.3646C64.7366 56.3986 64.0972 56.6246 63.5596 57.0152C63.022 57.4058 62.6094 57.9441 62.372 58.5647L61.7399 60.1523C61.2792 61.3611 60.4614 62.4009 59.3953 63.1336C58.3292 63.8662 57.0653 64.2569 55.7717 64.2536ZM42.2281 10.7456C41.6592 10.7465 41.0939 10.8358 40.5523 11.0102C39.7864 11.2577 39.0856 11.6735 38.5014 12.2272C37.9172 12.7809 37.4644 13.4584 37.1762 14.2099L36.5686 15.7926C36.2631 16.5907 35.7322 17.2827 35.0406 17.7846C34.3491 18.2866 33.5266 18.5768 32.6731 18.6199L30.9777 18.7081C30.1709 18.7469 29.3831 18.9664 28.6726 19.3506C27.962 19.7348 27.3469 20.2738 26.8727 20.9277C26.3985 21.5816 26.0774 22.3337 25.933 23.1285C25.7886 23.9232 25.8247 24.7402 26.0385 25.5191L26.4795 27.1606C26.7035 27.9839 26.6838 28.8545 26.4229 29.6668C26.162 30.4792 25.671 31.1984 25.0095 31.7372L23.6718 32.8299C23.0432 33.335 22.5359 33.9748 22.1874 34.7019C21.8388 35.4291 21.6578 36.2253 21.6578 37.0317C21.6578 37.8381 21.8388 38.6342 22.1874 39.3614C22.5359 40.0886 23.0432 40.7283 23.6718 41.2334L24.9899 42.2771C25.6523 42.8164 26.1439 43.5364 26.4048 44.3498C26.6658 45.1631 26.6849 46.0347 26.4599 46.8586L26.0385 48.5099C25.8273 49.2879 25.7932 50.1034 25.9388 50.8962C26.0844 51.6891 26.406 52.4393 26.8799 53.0914C27.3539 53.7435 27.968 54.281 28.6772 54.6643C29.3864 55.0476 30.1726 55.267 30.9777 55.3062L32.6731 55.3944C33.5266 55.4376 34.3491 55.7278 35.0406 56.2298C35.7322 56.7317 36.2631 57.4237 36.5686 58.2217L37.1762 59.7799C37.4623 60.5339 37.914 61.214 38.4978 61.7702C39.0817 62.3264 39.7829 62.7445 40.5498 62.9937C41.3167 63.2429 42.1298 63.3169 42.9291 63.2101C43.7284 63.1034 44.4935 62.8187 45.1681 62.3769L46.594 61.4508C47.3099 60.9848 48.1457 60.7368 48.9999 60.7368C49.8541 60.7368 50.69 60.9848 51.4058 61.4508L52.8317 62.3769C53.5064 62.8187 54.2715 63.1034 55.0708 63.2101C55.8701 63.3169 56.6832 63.2429 57.4501 62.9937C58.217 62.7445 58.9182 62.3264 59.5021 61.7702C60.0859 61.214 60.5375 60.5339 60.8236 59.7799L61.4312 58.1923C61.7368 57.3943 62.2677 56.7023 62.9592 56.2004C63.6508 55.6984 64.4733 55.4082 65.3267 55.365L67.0221 55.2768C67.8241 55.2366 68.6069 55.0177 69.3134 54.6361C70.0199 54.2545 70.6322 53.7199 71.1056 53.0714C71.579 52.4228 71.9015 51.6767 72.0496 50.8875C72.1976 50.0983 72.1675 49.286 71.9613 48.5099L71.5203 46.8684C71.2954 46.0445 71.3145 45.1729 71.5755 44.3596C71.8364 43.5462 72.328 42.8262 72.9903 42.2869L74.3084 41.2187C74.9371 40.7137 75.4444 40.0739 75.7929 39.3467C76.1415 38.6195 76.3224 37.8234 76.3224 37.017C76.3224 36.2106 76.1415 35.4144 75.7929 34.6872C75.4444 33.9601 74.9371 33.3203 74.3084 32.8152L73.0099 31.7372C72.3485 31.1984 71.8575 30.4792 71.5966 29.6668C71.3357 28.8545 71.316 27.9839 71.5399 27.1606L71.9809 25.5191C72.1922 24.7412 72.2263 23.9257 72.0807 23.1328C71.9351 22.34 71.6135 21.5898 71.1395 20.9377C70.6656 20.2856 70.0514 19.7481 69.3423 19.3648C68.6331 18.9814 67.8469 18.7621 67.0417 18.7228L65.3267 18.6199C64.4728 18.5764 63.6498 18.2854 62.9582 17.7826C62.2666 17.2797 61.7361 16.5867 61.4312 15.7877L60.8236 14.2099C60.5375 13.456 60.0859 12.7759 59.5021 12.2197C58.9182 11.6635 58.217 11.2454 57.4501 10.9962C56.6832 10.747 55.8701 10.673 55.0708 10.7798C54.2715 10.8865 53.5064 11.1712 52.8317 11.6129L51.4058 12.539C50.69 13.0051 49.8541 13.2531 48.9999 13.2531C48.1457 13.2531 47.3099 13.0051 46.594 12.539L45.1681 11.6129C44.2941 11.0425 43.2719 10.741 42.2281 10.7456ZM55.7717 62.2838C54.9188 62.2848 54.0841 62.0361 53.3707 61.5684L51.9399 60.6423C51.0606 60.0851 50.041 59.7893 48.9999 59.7893C47.9589 59.7893 46.9393 60.0851 46.0599 60.6423L44.634 61.5684C44.0825 61.9286 43.4572 62.1606 42.8043 62.2474C42.1513 62.3342 41.4871 62.2736 40.8606 62.0701C40.2341 61.8666 39.6612 61.5253 39.1839 61.0714C38.7065 60.6174 38.337 60.0623 38.1023 59.4467L37.4947 57.8591C37.1229 56.8803 36.474 56.0309 35.6273 55.4148C34.7806 54.7987 33.7728 54.4426 32.727 54.3899L31.0267 54.3066C30.3697 54.273 29.7284 54.0928 29.1501 53.7792C28.5717 53.4656 28.0708 53.0265 27.6841 52.4942C27.2974 51.9619 27.0348 51.3498 26.9154 50.7028C26.796 50.0558 26.8229 49.3902 26.994 48.7549L27.435 47.1134C27.7083 46.103 27.6815 45.0348 27.3578 44.0394C27.0341 43.044 26.4276 42.1643 25.6122 41.5078L24.2941 40.4445C23.7826 40.0312 23.37 39.5086 23.0866 38.9151C22.8031 38.3216 22.656 37.6722 22.656 37.0145C22.656 36.3568 22.8031 35.7075 23.0866 35.114C23.37 34.5205 23.7826 33.9979 24.2941 33.5845L25.6122 32.5163C26.4293 31.8601 27.0374 30.9799 27.362 29.9834C27.6866 28.9869 27.7137 27.9175 27.4399 26.9058L26.9989 25.2643C26.8269 24.6288 26.7994 23.9627 26.9184 23.3151C27.0374 22.6674 27.2999 22.0547 27.6866 21.5218C28.0734 20.9889 28.5746 20.5493 29.1534 20.2354C29.7322 19.9215 30.374 19.7412 31.0316 19.7077L32.727 19.5999C33.7675 19.5496 34.771 19.1988 35.6163 18.5901C36.4615 17.9814 37.1123 17.1407 37.4898 16.1699L38.0974 14.5872C38.3321 13.9717 38.7016 13.4166 39.179 12.9626C39.6563 12.5087 40.2292 12.1674 40.8557 11.9639C41.4822 11.7604 42.1464 11.6998 42.7994 11.7866C43.4523 11.8734 44.0776 12.1054 44.6291 12.4655L46.0599 13.3769C46.9348 13.9463 47.9561 14.2494 48.9999 14.2494C50.0437 14.2494 51.0651 13.9463 51.9399 13.3769L53.3658 12.4508C53.9174 12.0907 54.5426 11.8587 55.1956 11.7719C55.8486 11.6851 56.5127 11.7457 57.1392 11.9492C57.7657 12.1527 58.3387 12.494 58.816 12.9479C59.2933 13.4019 59.6629 13.957 59.8975 14.5725L60.51 16.1699C60.8876 17.1407 61.5384 17.9814 62.3836 18.5901C63.2289 19.1988 64.2324 19.5496 65.2728 19.5999L66.9731 19.6881C67.6308 19.7216 68.2725 19.9019 68.8514 20.2158C69.4302 20.5297 69.9314 20.9693 70.3182 21.5022C70.7049 22.0351 70.9674 22.6478 71.0864 23.2955C71.2054 23.9431 71.1779 24.6092 71.0058 25.2447L70.5599 26.9009C70.2866 27.9114 70.3135 28.9795 70.6372 29.975C70.9609 30.9704 71.5674 31.8501 72.3827 32.5065L73.7008 33.5747C74.2124 33.9881 74.625 34.5107 74.9084 35.1042C75.1919 35.6977 75.339 36.347 75.339 37.0047C75.339 37.6624 75.1919 38.3118 74.9084 38.9053C74.625 39.4988 74.2124 40.0214 73.7008 40.4347L72.3827 41.498C71.5656 42.1553 70.9579 43.0366 70.6341 44.034C70.3104 45.0314 70.2846 46.1016 70.5599 47.1134L71.0009 48.7549C71.173 49.3905 71.2005 50.0566 71.0815 50.7042C70.9625 51.3518 70.7 51.9646 70.3133 52.4975C69.9265 53.0304 69.4253 53.47 68.8465 53.7839C68.2676 54.0978 67.6259 54.2781 66.9682 54.3115L65.2679 54.3948C64.2236 54.448 63.2172 54.8039 62.3716 55.419C61.5259 56.0341 60.8774 56.8819 60.5051 57.8591L59.8975 59.4467C59.6626 60.062 59.2929 60.6167 58.8155 61.0704C58.3381 61.524 57.7652 61.865 57.1388 62.0682C56.6968 62.2093 56.2358 62.282 55.7717 62.2838ZM48.9999 58.7999C50.2348 58.7985 51.4435 59.156 52.4789 59.8289L53.8999 60.7599C54.3287 61.0403 54.8149 61.2211 55.3227 61.289C55.8305 61.3569 56.3471 61.3102 56.8344 61.1522C57.3218 60.9943 57.7676 60.7292 58.1391 60.3764C58.5106 60.0237 58.7984 59.5921 58.9812 59.1135L59.5888 57.5259C60.0258 56.366 60.7917 55.3588 61.7926 54.6277C62.7935 53.8966 63.986 53.4734 65.2238 53.4099L66.9192 53.3217C67.4319 53.2978 67.9327 53.159 68.3847 52.9157C68.8366 52.6725 69.2282 52.3308 69.5306 51.9161C69.8329 51.5014 70.0384 51.024 70.1317 50.5193C70.2251 50.0146 70.204 49.4954 70.0699 48.9999L69.6289 47.3584C69.3098 46.1651 69.3431 44.9049 69.7248 43.7302C70.1066 42.5554 70.8204 41.5163 71.78 40.7385L73.103 39.6703C73.5019 39.3489 73.8237 38.9421 74.0447 38.48C74.2658 38.0179 74.3805 37.5121 74.3805 36.9998C74.3805 36.4876 74.2658 35.9818 74.0447 35.5197C73.8237 35.0576 73.5019 34.6508 73.103 34.3293L71.78 33.2611C70.8204 32.4834 70.1066 31.4443 69.7248 30.2695C69.3431 29.0947 69.3098 27.8345 69.6289 26.6412L70.0699 24.9899C70.2038 24.4953 70.2251 23.9768 70.1323 23.4728C70.0395 22.9688 69.835 22.492 69.5337 22.0774C69.2324 21.6629 68.842 21.3211 68.3913 21.0772C67.9406 20.8333 67.4409 20.6935 66.929 20.6681L65.2238 20.5799C63.9897 20.5176 62.8003 20.0975 61.8006 19.3711C60.801 18.6446 60.0342 17.643 59.5937 16.4884L58.9861 14.9008C58.8019 14.4228 58.5129 13.9921 58.1404 13.6403C57.7678 13.2886 57.3212 13.0248 56.8334 12.8683C56.3455 12.7118 55.8288 12.6665 55.3212 12.7359C54.8136 12.8053 54.3279 12.9875 53.8999 13.2691L52.4789 14.2099C51.4441 14.8847 50.2353 15.2439 48.9999 15.2439C47.7645 15.2439 46.5558 14.8847 45.5209 14.2099L44.0999 13.2691C43.6708 12.9889 43.1844 12.8083 42.6763 12.7407C42.1683 12.6732 41.6515 12.7203 41.1641 12.8787C40.6767 13.0371 40.2309 13.3028 39.8597 13.6561C39.4884 14.0094 39.201 14.4415 39.0186 14.9204L38.411 16.508C37.9672 17.6597 37.1984 18.6576 36.198 19.3805C35.1976 20.1034 34.0088 20.5201 32.776 20.5799L31.0806 20.6681C30.5679 20.6921 30.0672 20.8309 29.6152 21.0742C29.1633 21.3174 28.7717 21.659 28.4693 22.0738C28.167 22.4885 27.9615 22.9659 27.8682 23.4706C27.7748 23.9753 27.7959 24.4945 27.9299 24.9899L28.3709 26.6314C28.6953 27.8266 28.6656 29.0903 28.2855 30.2689C27.9054 31.4476 27.1912 32.4905 26.2296 33.2709L24.9066 34.3391C24.5078 34.6606 24.186 35.0674 23.965 35.5295C23.7439 35.9916 23.6292 36.4974 23.6292 37.0096C23.6292 37.5219 23.7439 38.0277 23.965 38.4898C24.186 38.9519 24.5078 39.3587 24.9066 39.6801L26.2296 40.7483C27.1893 41.5261 27.9031 42.5652 28.2848 43.74C28.6666 44.9147 28.6999 46.1749 28.3807 47.3682L27.9299 48.9999C27.7961 49.4946 27.7747 50.013 27.8675 50.5171C27.9603 51.0211 28.1649 51.4979 28.4662 51.9125C28.7675 52.327 29.1578 52.6688 29.6086 52.9127C30.0593 53.1566 30.559 53.2963 31.0708 53.3217L32.7662 53.4099C34.0004 53.4723 35.1898 53.8923 36.1895 54.6188C37.1891 55.3453 37.9559 56.3468 38.3963 57.5014L39.0039 59.089C39.1837 59.5719 39.47 60.008 39.8415 60.3651C40.2129 60.7221 40.6601 60.9909 41.1497 61.1514C41.6392 61.3119 42.1587 61.3601 42.6695 61.2923C43.1802 61.2246 43.6692 61.0426 44.0999 60.7599L45.5258 59.8338C46.5593 59.1601 47.7662 58.8009 48.9999 58.7999Z" fill="#004D80"/>
<path d="M48.9998 53.41C45.7598 53.41 42.5926 52.4491 39.8987 50.649C37.2048 48.8488 35.1053 46.2902 33.8656 43.2968C32.6259 40.3033 32.3018 37.0094 32.9343 33.8317C33.5667 30.6541 35.1273 27.7353 37.4187 25.4446C39.71 23.1539 42.6293 21.5942 45.8071 20.9627C48.985 20.3312 52.2788 20.6563 55.2719 21.8969C58.265 23.1374 60.8229 25.2378 62.6223 27.9322C64.4216 30.6266 65.3815 33.7942 65.3805 37.0342C65.3754 41.3766 63.6477 45.5395 60.5767 48.6096C57.5057 51.6797 53.3422 53.4061 48.9998 53.41ZM48.9998 22.6233C46.1496 22.6233 43.3634 23.4685 40.9936 25.0519C38.6237 26.6354 36.7766 28.8861 35.6859 31.5194C34.5952 34.1526 34.3098 37.0502 34.8658 39.8456C35.4219 42.641 36.7944 45.2088 38.8098 47.2242C40.8252 49.2396 43.393 50.6121 46.1884 51.1682C48.9839 51.7242 51.8814 51.4388 54.5147 50.3481C57.1479 49.2574 59.3986 47.4103 60.9821 45.0404C62.5656 42.6706 63.4107 39.8844 63.4107 37.0342C63.4133 33.2091 61.8967 29.5396 59.1942 26.8326C56.4918 24.1256 52.8249 22.6027 48.9998 22.5988V22.6233Z" fill="#004D80"/>
<path d="M48.9996 53.9C45.6625 53.9009 42.4001 52.9122 39.6249 51.0588C36.8498 49.2054 34.6867 46.5706 33.4092 43.4877C32.1317 40.4048 31.7972 37.0122 32.448 33.7392C33.0988 30.4661 34.7056 27.4596 37.0653 25.0999C39.4251 22.7402 42.4316 21.1333 45.7046 20.4825C48.9777 19.8317 52.3702 20.1662 55.4531 21.4437C58.536 22.7212 61.1708 24.8844 63.0242 27.6595C64.8776 30.4346 65.8664 33.6971 65.8654 37.0342C65.8602 41.5057 64.0816 45.7925 60.9198 48.9544C57.758 52.1162 53.4711 53.8948 48.9996 53.9ZM48.9996 21.1435C45.8565 21.1425 42.7838 22.0737 40.1699 23.8192C37.556 25.5647 35.5185 28.0461 34.315 30.9497C33.1116 33.8532 32.7962 37.0485 33.4088 40.1313C34.0214 43.2141 35.5344 46.046 37.7566 48.2689C39.9787 50.4917 42.8102 52.0056 45.8928 52.6192C48.9754 53.2327 52.1708 52.9183 55.0747 51.7157C57.9786 50.5132 60.4607 48.4764 62.207 45.8631C63.9533 43.2498 64.8854 40.1773 64.8854 37.0342C64.888 32.8175 63.2161 28.7723 60.2372 25.788C57.2584 22.8036 53.2163 21.1242 48.9996 21.119V21.1435ZM48.9996 51.9351C46.0525 51.9351 43.1716 51.0612 40.7211 49.4238C38.2707 47.7865 36.3608 45.4593 35.233 42.7365C34.1052 40.0137 33.8101 37.0176 34.385 34.1272C34.96 31.2367 36.3792 28.5816 38.4631 26.4976C40.547 24.4137 43.2021 22.9945 46.0926 22.4196C48.9831 21.8446 51.9792 22.1397 54.702 23.2675C57.4247 24.3954 59.7519 26.3052 61.3893 28.7557C63.0266 31.2061 63.9005 34.0871 63.9005 37.0342C63.8902 40.9807 62.3161 44.7623 59.5232 47.5506C56.7303 50.3389 52.9462 51.9067 48.9996 51.9106V51.9351ZM48.9996 23.1133C46.2463 23.1133 43.5549 23.9297 41.2656 25.4594C38.9763 26.989 37.192 29.1632 36.1384 31.7069C35.0848 34.2506 34.8091 37.0496 35.3462 39.75C35.8834 42.4504 37.2092 44.9309 39.1561 46.8777C41.1029 48.8246 43.5834 50.1504 46.2838 50.6876C48.9842 51.2247 51.7832 50.9491 54.3269 49.8954C56.8706 48.8418 59.0448 47.0575 60.5744 44.7682C62.1041 42.4789 62.9205 39.7875 62.9205 37.0342C62.9231 33.3391 61.4581 29.7942 58.8475 27.1791C56.237 24.564 52.6947 23.0927 48.9996 23.0888V23.1133Z" fill="#004D80"/>
<path d="M53.2087 45.9277C52.8214 45.9254 52.4402 45.8314 52.0964 45.6533L49.1123 44.1C49.0778 44.0807 49.039 44.0705 48.9996 44.0705C48.9601 44.0705 48.9213 44.0807 48.8869 44.1L45.9028 45.668C45.5064 45.878 45.0588 45.9717 44.6115 45.9385C44.1642 45.9052 43.7354 45.7464 43.3744 45.4801C43.0134 45.2139 42.735 44.8511 42.5711 44.4335C42.4073 44.016 42.3647 43.5607 42.4483 43.12L43.0167 39.7978C43.0243 39.7597 43.0221 39.7203 43.01 39.6834C42.998 39.6465 42.9767 39.6133 42.9481 39.5871L40.5324 37.24C40.2141 36.9296 39.989 36.5363 39.8826 36.1047C39.7763 35.673 39.7929 35.2202 39.9305 34.7975C40.0682 34.3748 40.3215 33.999 40.6617 33.7128C41.0018 33.4266 41.4153 33.2413 41.8554 33.1779L45.1923 32.6879C45.2313 32.6831 45.2684 32.6685 45.3001 32.6453C45.3319 32.6222 45.3571 32.5913 45.3736 32.5556L46.8436 29.5323C47.0413 29.1348 47.3461 28.8004 47.7235 28.5667C48.1009 28.3329 48.536 28.2091 48.98 28.2091C49.4239 28.2091 49.859 28.3329 50.2364 28.5667C50.6139 28.8004 50.9186 29.1348 51.1164 29.5323L52.5864 32.5556C52.6028 32.5913 52.6281 32.6222 52.6598 32.6453C52.6915 32.6685 52.7287 32.6831 52.7677 32.6879L56.1046 33.1779C56.5446 33.2413 56.9581 33.4266 57.2983 33.7128C57.6384 33.999 57.8917 34.3748 58.0294 34.7975C58.1671 35.2202 58.1837 35.673 58.0773 36.1047C57.9709 36.5363 57.7459 36.9296 57.4276 37.24L55.0119 39.5969C54.9833 39.6231 54.9619 39.6563 54.9499 39.6932C54.9379 39.7301 54.9356 39.7695 54.9433 39.8076L55.5509 43.12C55.6101 43.4617 55.594 43.8122 55.5036 44.147C55.4133 44.4819 55.2509 44.7929 55.0278 45.0585C54.8048 45.324 54.5264 45.5376 54.2122 45.6844C53.8979 45.8311 53.5555 45.9075 53.2087 45.9081V45.9277ZM48.9996 30.1889C48.9219 30.1871 48.8453 30.208 48.7792 30.2489C48.7131 30.2897 48.6603 30.3489 48.6272 30.4192L47.1572 33.4425C46.9982 33.7641 46.7636 34.0422 46.4734 34.253C46.1832 34.4639 45.8461 34.601 45.4912 34.6528L42.1543 35.1428C42.0776 35.1519 42.0052 35.1831 41.946 35.2328C41.8868 35.2824 41.8434 35.3482 41.8211 35.4221C41.7957 35.4959 41.7923 35.5756 41.8115 35.6513C41.8306 35.727 41.8714 35.7955 41.9289 35.8484L44.3201 38.22C44.5778 38.4701 44.7706 38.7794 44.8816 39.121C44.9927 39.4626 45.0185 39.8261 44.9571 40.18L44.3887 43.5022C44.3728 43.5784 44.3796 43.6575 44.4084 43.7298C44.4371 43.8022 44.4865 43.8644 44.5504 43.9089C44.6127 43.9548 44.6869 43.9819 44.7641 43.9872C44.8414 43.9924 44.9185 43.9754 44.9865 43.9383L47.9706 42.3703C48.288 42.2037 48.6411 42.1167 48.9996 42.1167C49.358 42.1167 49.7111 42.2037 50.0286 42.3703L53.0127 43.9383C53.0808 43.9744 53.1578 43.9906 53.2347 43.9851C53.3117 43.9796 53.3855 43.9525 53.4478 43.9071C53.5102 43.8616 53.5585 43.7995 53.5872 43.7279C53.616 43.6564 53.624 43.5781 53.6105 43.5022L53.0421 40.18C52.9806 39.8261 53.0065 39.4626 53.1175 39.121C53.2285 38.7794 53.4213 38.4701 53.6791 38.22L56.0899 35.868C56.1473 35.8151 56.1881 35.7466 56.2073 35.6709C56.2264 35.5952 56.2231 35.5155 56.1977 35.4417C56.1753 35.3678 56.1319 35.302 56.0727 35.2524C56.0135 35.2027 55.9412 35.1715 55.8645 35.1624L52.5276 34.6724C52.1726 34.6206 51.8356 34.4835 51.5454 34.2726C51.2552 34.0618 51.0205 33.7837 50.8616 33.4621L49.3916 30.4388C49.3602 30.3616 49.3056 30.2962 49.2354 30.2514C49.1651 30.2066 49.0827 30.1848 48.9996 30.1889Z" fill="#006FB8"/>
<path d="M44.7907 46.4177C44.3728 46.4173 43.96 46.3257 43.5812 46.1492C43.2024 45.9728 42.8666 45.7158 42.5974 45.3962C42.3282 45.0765 42.132 44.702 42.0225 44.2987C41.913 43.8954 41.8928 43.4731 41.9634 43.0612L42.5122 39.8664L40.1798 37.6026C39.7973 37.2278 39.527 36.7537 39.3993 36.2337C39.2717 35.7136 39.2917 35.1682 39.4572 34.659C39.6228 34.1497 39.9272 33.6967 40.3362 33.3511C40.7452 33.0055 41.2426 32.7809 41.7723 32.7026L44.9818 32.2371L46.4175 29.3314C46.6551 28.8522 47.0219 28.4489 47.4764 28.1669C47.9309 27.885 48.4551 27.7356 48.99 27.7356C49.5249 27.7356 50.0491 27.885 50.5036 28.1669C50.9582 28.4489 51.3249 28.8522 51.5625 29.3314L52.9982 32.2371L56.2077 32.7026C56.7375 32.7809 57.2348 33.0055 57.6438 33.3511C58.0529 33.6967 58.3572 34.1497 58.5228 34.659C58.6883 35.1682 58.7083 35.7136 58.5807 36.2337C58.453 36.7537 58.1827 37.2278 57.8002 37.6026L55.4776 39.8664L56.0264 43.0612C56.1175 43.5896 56.0584 44.133 55.8556 44.6294C55.6529 45.1258 55.3148 45.5553 54.8798 45.8689C54.4447 46.1801 53.9321 46.3649 53.3986 46.403C52.865 46.441 52.3313 46.3308 51.8565 46.0845L48.9998 44.59L46.1333 46.0992C45.7184 46.3131 45.2575 46.4224 44.7907 46.4177ZM48.9998 43.5659C49.1191 43.5667 49.2365 43.5952 49.3428 43.6492L52.3269 45.2172C52.6393 45.3814 52.9914 45.4549 53.3434 45.4294C53.6954 45.4039 54.0333 45.2804 54.3188 45.0729C54.6042 44.8654 54.826 44.5822 54.9589 44.2553C55.0918 43.9283 55.1306 43.5707 55.0709 43.2229L54.4976 39.9007C54.4784 39.7839 54.4876 39.6642 54.5242 39.5516C54.5609 39.4391 54.624 39.337 54.7083 39.2539L57.124 36.9019C57.3776 36.6556 57.5571 36.3432 57.6422 36.0001C57.7273 35.6571 57.7145 35.297 57.6053 34.9608C57.4961 34.6246 57.2949 34.3257 57.0245 34.098C56.7541 33.8704 56.4253 33.7231 56.0754 33.6728L52.7385 33.1828C52.6203 33.1665 52.5079 33.1214 52.4113 33.0513C52.3147 32.9812 52.2369 32.8883 52.1848 32.781L50.7148 29.7626C50.5585 29.4465 50.3169 29.1804 50.0173 28.9943C49.7177 28.8082 49.3721 28.7096 49.0194 28.7096C48.6667 28.7096 48.3211 28.8082 48.0215 28.9943C47.7219 29.1804 47.4803 29.4465 47.324 29.7626L45.8295 32.7859C45.7779 32.8922 45.7008 32.9841 45.6051 33.0534C45.5093 33.1227 45.3979 33.1671 45.2807 33.1828L41.9438 33.6728C41.5939 33.7231 41.2651 33.8704 40.9947 34.098C40.7243 34.3257 40.5231 34.6246 40.4139 34.9608C40.3047 35.297 40.2919 35.6571 40.377 36.0001C40.4621 36.3432 40.6416 36.6556 40.8952 36.9019L43.3109 39.2539C43.3952 39.337 43.4583 39.4391 43.495 39.5516C43.5317 39.6642 43.5408 39.7839 43.5216 39.9007L42.9483 43.2229C42.8886 43.5707 42.9274 43.9283 43.0603 44.2553C43.1932 44.5822 43.415 44.8654 43.7005 45.0729C43.9859 45.2804 44.3238 45.4039 44.6758 45.4294C45.0278 45.4549 45.3799 45.3814 45.6923 45.2172L48.6764 43.6492C48.7768 43.5981 48.8872 43.5696 48.9998 43.5659ZM53.2089 44.4381C53.0605 44.4349 52.9147 44.398 52.7826 44.3303L49.7985 42.7623C49.5525 42.6319 49.2783 42.5637 48.9998 42.5637C48.7213 42.5637 48.4471 42.6319 48.2011 42.7623L45.217 44.3303C45.0655 44.4128 44.8936 44.4502 44.7215 44.438C44.5495 44.4257 44.3845 44.3644 44.2463 44.2612C44.108 44.1581 44.0023 44.0174 43.9416 43.8559C43.8809 43.6945 43.8678 43.519 43.9038 43.3503L44.4722 40.0281C44.5211 39.7541 44.5019 39.4724 44.4165 39.2075C44.3311 38.9427 44.182 38.7028 43.9822 38.5091L41.5714 36.1522C41.4509 36.0354 41.3654 35.8873 41.3244 35.7246C41.2835 35.5619 41.2888 35.391 41.3397 35.2311C41.3906 35.0712 41.4851 34.9287 41.6126 34.8196C41.7401 34.7105 41.8956 34.6392 42.0614 34.6136L45.3983 34.1236C45.674 34.0833 45.9358 33.9766 46.1611 33.8127C46.3865 33.6488 46.5686 33.4327 46.6919 33.1828L48.1619 30.1595C48.2364 30.0086 48.3515 29.8816 48.4944 29.7928C48.6373 29.704 48.8022 29.6569 48.9704 29.6569C49.1386 29.6569 49.3035 29.704 49.4464 29.7928C49.5893 29.8816 49.7045 30.0086 49.7789 30.1595L51.2489 33.1828C51.3722 33.4327 51.5543 33.6488 51.7797 33.8127C52.005 33.9766 52.2668 34.0833 52.5425 34.1236L55.8794 34.6136C56.0452 34.6392 56.2007 34.7105 56.3282 34.8196C56.4557 34.9287 56.5502 35.0712 56.6011 35.2311C56.652 35.391 56.6573 35.5619 56.6164 35.7246C56.5755 35.8873 56.4899 36.0354 56.3694 36.1522L53.9586 38.5091C53.7589 38.7028 53.6097 38.9427 53.5243 39.2075C53.4389 39.4724 53.4197 39.7541 53.4686 40.0281L54.037 43.3503C54.0581 43.4799 54.0511 43.6125 54.0164 43.7392C53.9818 43.8658 53.9204 43.9835 53.8363 44.0844C53.7522 44.1852 53.6474 44.2668 53.529 44.3236C53.4106 44.3804 53.2814 44.4111 53.1501 44.4136L53.2089 44.4381ZM48.9998 41.5961C49.4374 41.5953 49.8684 41.703 50.2542 41.9097L53.1011 43.3797L52.5572 40.2094C52.4841 39.7775 52.5169 39.3344 52.6525 38.9179C52.7882 38.5015 53.0229 38.1241 53.3363 37.8182L55.6393 35.574L52.4543 35.1134C52.0226 35.0505 51.6125 34.8839 51.2592 34.6279C50.9059 34.3719 50.6199 34.0341 50.4257 33.6434L48.9998 30.7769L47.5739 33.6581C47.38 34.049 47.0942 34.3871 46.7408 34.6431C46.3874 34.8992 45.9772 35.0656 45.5453 35.1281L42.3603 35.5887L44.6633 37.8329C44.9768 38.1388 45.2114 38.5162 45.3471 38.9326C45.4828 39.3491 45.5155 39.7922 45.4424 40.2241L44.8985 43.3944L47.7454 41.9244C48.1298 41.7126 48.5609 41.5998 48.9998 41.5961Z" fill="#006FB8"/>
</svg>
