<svg width="104" height="104" viewBox="0 0 104 104" fill="none" xmlns="http://www.w3.org/2000/svg">
<path d="M86.2567 43.5188L68.9563 26.2184C64.4127 21.6742 58.2501 19.121 51.8241 19.1205C45.3981 19.12 39.2351 21.6723 34.6909 26.2158C30.1466 30.7593 27.5935 36.9219 27.593 43.3479C27.5925 49.774 30.1447 55.937 34.6883 60.4812L51.9991 77.7816C53.7582 79.5434 55.781 81.0206 57.9947 82.16H29.5039L14.9439 67.6H18.1627L22.5203 71.9576C22.6444 72.0897 22.7938 72.1955 22.9596 72.2687C23.1254 72.3419 23.3042 72.381 23.4855 72.3837C23.6667 72.3864 23.8466 72.3527 24.0145 72.2845C24.1825 72.2162 24.335 72.1149 24.463 71.9866C24.5909 71.8583 24.6918 71.7055 24.7596 71.5374C24.8274 71.3693 24.8606 71.1893 24.8574 71.008C24.8542 70.8268 24.8146 70.6481 24.741 70.4824C24.6673 70.3168 24.5611 70.1677 24.4287 70.044L21.9847 67.6H25.4791L32.3119 74.4276C32.5664 74.6801 32.9102 74.8221 33.2687 74.8228C33.4455 74.8232 33.6207 74.7884 33.7841 74.7206C33.9474 74.6527 34.0957 74.5532 34.2203 74.4276C34.4727 74.1742 34.6144 73.8311 34.6144 73.4734C34.6144 73.1157 34.4727 72.7726 34.2203 72.5192L29.3271 67.6H36.6331C36.9916 67.6 37.3355 67.4575 37.5891 67.204C37.8426 66.9504 37.9851 66.6066 37.9851 66.248C37.9851 65.8894 37.8426 65.5455 37.5891 65.292C37.3355 65.0384 36.9916 64.896 36.6331 64.896H12.2347C11.9215 64.8963 11.6155 64.9893 11.3552 65.1633C11.0949 65.3373 10.8918 65.5844 10.7717 65.8736C10.6516 66.1627 10.6198 66.481 10.6802 66.7882C10.7407 67.0954 10.8907 67.3779 11.1115 67.6L27.7827 84.2712C27.9733 84.4631 28.2002 84.6152 28.4502 84.7188C28.7001 84.8223 28.9681 84.8752 29.2387 84.8744H69.1279C73.9199 84.8746 78.6044 83.4536 82.5888 80.7912C86.5732 78.1288 89.6786 74.3446 91.5121 69.9172C93.3456 65.4898 93.825 60.6181 92.8895 55.9182C91.954 51.2183 89.6458 46.9015 86.2567 43.5136V43.5188ZM69.1279 82.16C63.7004 82.156 58.4748 80.1021 54.4971 76.4095C50.5194 72.717 48.0832 67.6582 47.6763 62.246C47.2694 56.8339 48.9217 51.4677 52.3026 47.2219C55.6834 42.976 60.5432 40.1639 65.9091 39.3484C66.0844 39.3251 66.2533 39.2672 66.406 39.1779C66.5587 39.0886 66.692 38.9698 66.7983 38.8284C66.9552 38.6139 67.0454 38.3579 67.0577 38.0924C67.07 37.8269 67.0037 37.5637 66.8672 37.3357C66.7307 37.1076 66.53 36.9249 66.2903 36.8103C66.0505 36.6956 65.7822 36.6542 65.5191 36.6912C62.0535 37.2152 58.7427 38.4846 55.8152 40.412C52.8877 42.3393 50.413 44.8786 48.5618 47.8549C46.7106 50.8311 45.527 54.1735 45.0925 57.6514C44.658 61.1294 44.983 64.6602 46.0451 68.0004L36.6019 58.5676C32.5652 54.5309 30.2974 49.0559 30.2974 43.3472C30.2974 37.6384 32.5652 32.1635 36.6019 28.1268C40.6386 24.0901 46.1135 21.8223 51.8223 21.8223C57.531 21.8223 63.006 24.0901 67.0427 28.1268L76.4755 37.5596C74.1004 36.7979 71.6221 36.4068 69.1279 36.4C68.7693 36.4 68.4254 36.5424 68.1718 36.796C67.9183 37.0495 67.7759 37.3934 67.7759 37.752C67.7759 38.1106 67.9183 38.4544 68.1718 38.708C68.4254 38.9615 68.7693 39.104 69.1279 39.104C71.9562 39.0987 74.7575 39.6549 77.3693 40.7404C79.9811 41.8258 82.3515 43.4188 84.3431 45.4272C87.3498 48.4374 89.3969 52.2713 90.2257 56.4445C91.0545 60.6176 90.6279 64.9428 88.9997 68.8736C87.3715 72.8044 84.6148 76.1644 81.0779 78.5292C77.541 80.894 73.3825 82.1575 69.1279 82.16Z" fill="white"/>
<path d="M74.3591 76.5856C74.2019 76.4987 74.0291 76.4438 73.8506 76.4242C73.672 76.4045 73.4914 76.4205 73.3191 76.4712C72.7991 76.6272 72.2479 76.752 71.7071 76.856C71.5326 76.8901 71.3666 76.9583 71.2184 77.0566C71.0703 77.1549 70.943 77.2815 70.8438 77.429C70.6434 77.7269 70.5695 78.0922 70.6385 78.4446C70.7074 78.797 70.9136 79.1075 71.2115 79.3079C71.5094 79.5083 71.8747 79.5822 72.2271 79.5132C72.8459 79.3936 73.4699 79.248 74.0887 79.0712C74.3463 78.9972 74.5761 78.8483 74.7489 78.6435C74.9217 78.4387 75.0297 78.1871 75.0592 77.9207C75.0888 77.6544 75.0385 77.3852 74.9147 77.1475C74.791 76.9098 74.5994 76.7142 74.3643 76.5856H74.3591Z" fill="#009AFF"/>
<path d="M86.3205 68.4424C86.2742 68.2717 86.1942 68.112 86.0853 67.9727C85.9763 67.8334 85.8406 67.7173 85.6861 67.6312C85.5313 67.5437 85.3607 67.4877 85.1841 67.4665C85.0075 67.4453 84.8285 67.4593 84.6574 67.5076C84.4862 67.556 84.3263 67.6377 84.187 67.7482C84.0476 67.8587 83.9315 67.9956 83.8453 68.1512C82.141 71.1453 79.6147 73.5887 76.5653 75.192C76.2986 75.3326 76.0865 75.5583 75.9628 75.8333C75.8391 76.1083 75.8108 76.4167 75.8826 76.7096C75.9543 77.0025 76.1218 77.263 76.3586 77.4497C76.5954 77.6364 76.8878 77.7386 77.1893 77.74C77.4064 77.7402 77.6203 77.6885 77.8133 77.5892C79.6645 76.6192 81.3581 75.3744 82.8365 73.8972C84.1513 72.5848 85.2814 71.0996 86.1957 69.4824C86.2849 69.3262 86.3419 69.1536 86.3634 68.975C86.3848 68.7964 86.3702 68.6153 86.3205 68.4424Z" fill="#009AFF"/>
<path d="M78.0307 51.7451C76.2691 49.9819 74.0241 48.7807 71.5797 48.2935C69.1353 47.8064 66.6013 48.0552 64.2983 49.0085C61.9953 49.9618 60.0268 51.5767 58.6418 53.6489C57.2568 55.7212 56.5176 58.1577 56.5176 60.6501C56.5176 63.1426 57.2568 65.5791 58.6418 67.6514C60.0268 69.7236 61.9953 71.3385 64.2983 72.2918C66.6013 73.2451 69.1353 73.4939 71.5797 73.0068C74.0241 72.5196 76.2691 71.3184 78.0307 69.5551C79.2107 68.3917 80.1476 67.0053 80.7871 65.4765C81.4267 63.9478 81.756 62.3072 81.756 60.6501C81.756 58.993 81.4267 57.3525 80.7871 55.8237C80.1476 54.295 79.2107 52.9086 78.0307 51.7451ZM79.0395 60.6527C79.0371 62.9382 78.2424 65.1522 76.7908 66.9175C75.3392 68.6829 73.3205 69.8903 71.0785 70.3342C68.8365 70.7781 66.51 70.431 64.4952 69.3521C62.4804 68.2731 60.902 66.529 60.0289 64.4168C59.1558 62.3047 59.0419 59.9551 59.7067 57.7685C60.3715 55.5818 61.7739 53.6932 63.6749 52.4245C65.5759 51.1558 67.858 50.5853 70.1324 50.8104C72.4068 51.0354 74.5328 52.0421 76.1483 53.6587C77.0676 54.5763 77.7963 55.6666 78.2925 56.867C78.7887 58.0673 79.0426 59.3539 79.0395 60.6527Z" fill="#009AFF"/>
<path d="M52.801 24.5856C50.1181 24.5776 47.4604 25.1021 44.9816 26.1285C42.5028 27.155 40.2524 28.6632 38.3606 30.5656C38.2282 30.6893 38.122 30.8384 38.0483 31.004C37.9747 31.1696 37.9351 31.3484 37.9319 31.5296C37.9287 31.7108 37.9619 31.8908 38.0297 32.059C38.0975 32.2271 38.1983 32.3798 38.3263 32.5082C38.4543 32.6365 38.6068 32.7378 38.7747 32.806C38.9427 32.8743 39.1226 32.908 39.3038 32.9053C39.4851 32.9026 39.6639 32.8635 39.8297 32.7903C39.9955 32.7171 40.1449 32.6113 40.269 32.4792C41.9104 30.8269 43.8631 29.5165 46.0142 28.624C48.1653 27.7314 50.4721 27.2743 52.801 27.2792C52.9853 27.2906 53.1699 27.2642 53.3436 27.2016C53.5172 27.1389 53.6762 27.0414 53.8107 26.915C53.9453 26.7885 54.0525 26.6359 54.1257 26.4665C54.199 26.297 54.2368 26.1144 54.2368 25.9298C54.2368 25.7452 54.199 25.5625 54.1257 25.3931C54.0525 25.2236 53.9453 25.071 53.8107 24.9446C53.6762 24.8181 53.5172 24.7206 53.3436 24.658C53.1699 24.5953 52.9853 24.5689 52.801 24.5804V24.5856Z" fill="#009AFF"/>
</svg>
