<svg width="98" height="98" viewBox="0 0 98 98" fill="none" xmlns="http://www.w3.org/2000/svg">
<path d="M55.7134 28.273C55.2234 28.273 54.7824 28.028 54.4884 27.636C53.5574 26.264 52.3814 24.206 51.3524 22.393C50.4214 20.776 49.2454 18.718 48.9024 18.326C48.5104 17.885 47.6284 16.905 48.3634 15.533C51.1564 10.437 57.7714 12.348 61.6914 13.475C63.4554 14.014 64.9254 14.357 65.9054 14.063C67.2774 13.671 68.4534 13.916 69.1394 14.7C69.4334 15.043 70.2664 16.268 68.9924 17.836C68.6984 18.228 67.7184 19.894 66.8364 21.462C65.6114 23.569 64.2394 25.97 63.2104 27.538C62.7694 28.224 61.8384 28.371 61.1524 27.93C60.4664 27.489 60.3194 26.558 60.7604 25.872C61.7404 24.402 63.1124 22.05 64.2884 19.992C65.0234 18.718 65.6114 17.689 66.0524 17.003C64.5334 17.248 62.8674 16.807 60.9074 16.268C56.7914 15.092 52.9694 14.21 51.2544 16.464C51.7934 17.15 52.6264 18.571 53.9494 20.874C54.9784 22.638 56.1054 24.647 56.9874 25.921C57.4284 26.607 57.2324 27.489 56.5954 27.979C56.2524 28.224 55.9584 28.273 55.7134 28.273Z" fill="#004D80"/>
<path d="M39.0528 28.273H35.7698C34.9368 28.273 34.2998 27.636 34.2998 26.803C34.2998 25.97 34.9368 25.333 35.7698 25.333H39.0528C39.4448 25.333 40.0328 25.333 41.8458 23.177C44.0998 20.58 46.9418 19.11 49.7838 19.11H51.3518C52.1848 19.11 52.8218 19.747 52.8218 20.58C52.8218 21.413 52.1848 22.05 51.3518 22.05H49.7838C47.8238 22.05 45.7658 23.128 44.0998 25.088C42.4338 27.048 41.0128 28.273 39.0528 28.273Z" fill="#004D80"/>
<path d="M65.3168 46.942H48.0688C45.7168 46.942 43.6588 45.766 41.9928 44.786C41.4048 44.394 40.7188 44.051 40.0328 43.806H35.7698C34.9368 43.806 34.2998 43.169 34.2998 42.336C34.2998 41.503 34.9368 40.866 35.7698 40.866H39.9838C41.0618 40.866 42.1398 41.503 43.4138 42.238C44.8348 43.071 46.5008 44.002 48.0198 44.002H65.2188C66.5908 42.924 66.7868 34.447 66.8848 31.213L66.9338 29.89C66.9338 29.645 66.8358 29.449 66.6398 29.302C65.8068 28.616 64.7778 28.273 63.6998 28.322H54.3898C53.5568 28.322 52.9198 27.685 52.9198 26.852C52.9198 26.019 53.5568 25.382 54.3898 25.382H63.6998C65.6598 25.382 67.6198 26.117 68.7468 27.293C69.4818 28.028 69.8738 29.008 69.8248 30.037L69.7758 31.36C69.6288 40.474 69.1388 46.942 65.3168 46.942Z" fill="#004D80"/>
<path d="M35.7695 45.374H23.3235C22.4905 45.374 21.8535 44.737 21.8535 43.904V23.716C21.8535 22.883 22.4905 22.246 23.3235 22.246H35.7695C36.6025 22.246 37.2395 22.883 37.2395 23.716V43.904C37.2395 44.737 36.6025 45.374 35.7695 45.374ZM24.7935 42.434H34.2995V25.186H24.7935V42.434Z" fill="#004D80"/>
<path d="M29.5471 32.928C28.7141 32.928 28.0771 32.291 28.0771 31.458V28.371C28.0771 27.538 28.7141 26.901 29.5471 26.901C30.3801 26.901 31.0171 27.538 31.0171 28.371V31.458C31.0171 32.291 30.3801 32.928 29.5471 32.928Z" fill="#006FB8"/>
<path d="M57.5261 85.799C46.7461 85.799 38.9551 78.008 38.9551 67.228C38.9551 59.437 44.5901 51.303 49.0981 44.786L49.1961 44.639C49.6371 43.953 50.5681 43.806 51.2541 44.247C51.9401 44.688 52.0871 45.619 51.6461 46.305L51.5481 46.452C47.2851 52.675 41.9441 60.368 41.9441 67.228C41.9441 76.293 48.5101 82.859 57.5751 82.859C66.6401 82.859 73.2061 76.293 73.2061 67.228C73.2061 60.368 67.8651 52.626 63.6021 46.452L63.5041 46.305C63.0141 45.668 63.1611 44.737 63.7981 44.247C64.4351 43.757 65.3661 43.904 65.8561 44.541C65.9051 44.59 65.9051 44.59 65.9051 44.639L66.0031 44.786C70.5111 51.303 76.1461 59.437 76.1461 67.228C76.1461 78.008 68.3061 85.799 57.5261 85.799Z" fill="#004D80"/>
<path d="M59.1434 73.353C59.0944 73.353 59.0944 73.353 59.1434 73.353H56.0074C53.4594 73.353 51.4014 71.295 51.4014 68.796V67.228C51.4014 66.395 52.0384 65.758 52.8714 65.758C53.7044 65.758 54.3414 66.395 54.3414 67.228V68.796C54.3414 69.678 55.0764 70.413 55.9584 70.413H59.0944C60.0254 70.413 60.7114 69.678 60.7604 68.796V67.914C60.7604 67.228 60.3194 66.591 59.6334 66.346L54.5374 64.68C52.6754 64.043 51.4014 62.328 51.4014 60.368V59.486C51.4014 56.938 53.4594 54.88 55.9584 54.88H59.0454C61.5934 54.88 63.6024 56.938 63.6024 59.486V61.054C63.6024 61.887 62.9654 62.524 62.1324 62.524C61.2994 62.524 60.6624 61.887 60.6624 61.054V59.486C60.6624 58.604 59.9274 57.82 59.0454 57.82H55.9584C55.0764 57.82 54.3414 58.555 54.3414 59.486V60.368C54.3414 61.054 54.7824 61.691 55.4684 61.936L60.5644 63.602C62.4264 64.239 63.7004 65.954 63.7004 67.914V68.796C63.7004 71.344 61.6424 73.353 59.1434 73.353Z" fill="#006FB8"/>
<path d="M57.5755 57.82C56.7425 57.82 56.1055 57.183 56.1055 56.35V51.695C56.1055 50.862 56.7425 50.225 57.5755 50.225C58.4085 50.225 59.0455 50.862 59.0455 51.695V56.35C59.0455 57.183 58.3595 57.82 57.5755 57.82Z" fill="#006FB8"/>
<path d="M57.5755 78.057C56.7425 78.057 56.1055 77.42 56.1055 76.587V71.932C56.1055 71.099 56.7425 70.462 57.5755 70.462C58.4085 70.462 59.0455 71.099 59.0455 71.932V76.587C59.0455 77.371 58.3595 78.057 57.5755 78.057Z" fill="#006FB8"/>
</svg>
