<svg width="98" height="98" viewBox="0 0 98 98" fill="none" xmlns="http://www.w3.org/2000/svg">
<path d="M49.0483 90.5814C42.4182 90.5911 35.9343 88.6333 30.4176 84.9559C24.9008 81.2784 20.5993 76.0467 18.0576 69.9232C15.5159 63.7996 14.8483 57.0596 16.1394 50.5564C17.4305 44.0532 20.6222 38.0794 25.3104 33.3912C29.9986 28.703 35.9724 25.5113 42.4756 24.2202C48.9788 22.9291 55.7188 23.5967 61.8424 26.1384C67.9659 28.6801 73.1976 32.9816 76.8751 38.4984C80.5525 44.0152 82.5103 50.499 82.5006 57.1291C82.4786 65.9945 78.9471 74.4904 72.6784 80.7592C66.4096 87.028 57.9137 90.5594 49.0483 90.5814ZM49.0483 26.7883C43.0572 26.7787 37.1977 28.5458 32.2109 31.8662C27.224 35.1867 23.3338 39.9113 21.0322 45.4427C18.7305 50.9741 18.1208 57.0638 19.2801 62.9417C20.4394 68.8196 23.3157 74.2217 27.5452 78.465C31.7747 82.7082 37.1675 85.6019 43.0417 86.7803C48.9158 87.9586 55.0074 87.3685 60.5462 85.0848C66.085 82.801 70.8222 78.9261 74.1588 73.9501C77.4954 68.974 79.2814 63.1203 79.2911 57.1291C79.2809 49.1024 76.0944 41.4059 70.4278 35.7209C64.7612 30.0359 57.075 26.8246 49.0483 26.7883Z" fill="#009AFF"/>
<path d="M56.7023 16.8658H41.2967C41.0854 16.8665 40.8761 16.8253 40.6808 16.7448C40.4856 16.6642 40.3081 16.5459 40.1588 16.3965C40.0094 16.2471 39.891 16.0697 39.8105 15.8744C39.7299 15.6791 39.6888 15.4699 39.6895 15.2586V9.02091C39.6888 8.81031 39.7298 8.60166 39.8101 8.40697C39.8904 8.21228 40.0084 8.03539 40.1573 7.88647C40.3062 7.73755 40.4831 7.61955 40.6778 7.53926C40.8725 7.45897 41.0812 7.41796 41.2918 7.41861H56.6974C56.9086 7.41732 57.118 7.45781 57.3135 7.53775C57.5091 7.6177 57.6869 7.73552 57.8367 7.88443C57.9865 8.03335 58.1054 8.21042 58.1866 8.40546C58.2677 8.6005 58.3095 8.80966 58.3095 9.02091V15.2586C58.3095 15.6849 58.1401 16.0937 57.8387 16.3951C57.5373 16.6965 57.1285 16.8658 56.7023 16.8658ZM42.9039 13.6514H55.1V10.6281H42.9039V13.6514Z" fill="#009AFF"/>
<path d="M49.0491 21.3102C48.6228 21.3102 48.2141 21.1408 47.9126 20.8394C47.6112 20.538 47.4419 20.1292 47.4419 19.703V15.2587C47.4298 15.0405 47.4624 14.8221 47.5376 14.6169C47.6128 14.4117 47.729 14.224 47.8792 14.0653C48.0294 13.9066 48.2104 13.7801 48.4112 13.6937C48.6119 13.6073 48.8281 13.5627 49.0467 13.5627C49.2652 13.5627 49.4814 13.6073 49.6821 13.6937C49.8829 13.7801 50.0639 13.9066 50.2141 14.0653C50.3643 14.224 50.4805 14.4117 50.5557 14.6169C50.6309 14.8221 50.6635 15.0405 50.6514 15.2587V19.703C50.652 19.9138 50.6111 20.1227 50.5308 20.3176C50.4506 20.5126 50.3327 20.6898 50.1838 20.8391C50.035 20.9884 49.8581 21.1069 49.6634 21.1877C49.4687 21.2685 49.2599 21.3102 49.0491 21.3102Z" fill="#009AFF"/>
<path d="M49.0482 62.5143C47.9822 62.5143 46.9401 62.1981 46.0537 61.6059C45.1673 61.0136 44.4765 60.1718 44.0685 59.1869C43.6605 58.202 43.5538 57.1183 43.7618 56.0727C43.9697 55.0272 44.4831 54.0668 45.2369 53.313C45.9907 52.5591 46.9511 52.0458 47.9967 51.8378C49.0422 51.6298 50.126 51.7366 51.1109 52.1445C52.0958 52.5525 52.9376 53.2434 53.5298 54.1297C54.1221 55.0161 54.4382 56.0582 54.4382 57.1243C54.4254 58.5498 53.8534 59.9134 52.8454 60.9214C51.8373 61.9295 50.4738 62.5015 49.0482 62.5143ZM49.0482 54.9536C48.7541 54.9396 48.4603 54.9854 48.1845 55.0884C47.9087 55.1913 47.6566 55.3491 47.4435 55.5523C47.2305 55.7554 47.0609 55.9997 46.945 56.2703C46.8291 56.541 46.7694 56.8323 46.7694 57.1267C46.7694 57.4211 46.8291 57.7124 46.945 57.9831C47.0609 58.2537 47.2305 58.498 47.4435 58.7012C47.6566 58.9043 47.9087 59.0621 48.1845 59.1651C48.4603 59.268 48.7541 59.3138 49.0482 59.2999C49.6067 59.2733 50.1336 59.0328 50.5194 58.6281C50.9053 58.2235 51.1206 57.6858 51.1206 57.1267C51.1206 56.5676 50.9053 56.0299 50.5194 55.6253C50.1336 55.2206 49.6067 54.9801 49.0482 54.9536Z" fill="white"/>
<path d="M49.0486 54.9535C48.6223 54.9535 48.2136 54.7842 47.9121 54.4828C47.6107 54.1814 47.4414 53.7726 47.4414 53.3463V38.71C47.4641 38.2997 47.643 37.9137 47.9415 37.6313C48.24 37.3489 48.6353 37.1915 49.0462 37.1915C49.4571 37.1915 49.8523 37.3489 50.1508 37.6313C50.4493 37.9137 50.6282 38.2997 50.6509 38.71V53.361C50.6483 53.7843 50.4784 54.1893 50.1782 54.4877C49.8779 54.7861 49.4719 54.9535 49.0486 54.9535Z" fill="white"/>
<path d="M49.0484 84.1575C41.8824 84.1497 35.0122 81.2996 29.9451 76.2325C24.8779 71.1653 22.0278 64.2951 22.02 57.1291C22.008 56.9109 22.0405 56.6925 22.1157 56.4873C22.1909 56.2822 22.3072 56.0945 22.4574 55.9357C22.6076 55.777 22.7886 55.6506 22.9893 55.5642C23.19 55.4777 23.4062 55.4332 23.6248 55.4332C23.8433 55.4332 24.0595 55.4777 24.2603 55.5642C24.461 55.6506 24.642 55.777 24.7922 55.9357C24.9424 56.0945 25.0586 56.2822 25.1338 56.4873C25.209 56.6925 25.2416 56.9109 25.2295 57.1291C25.2363 61.828 26.6353 66.4194 29.2499 70.3237C31.8645 74.228 35.5774 77.2699 39.9197 79.0654C44.262 80.8609 49.039 81.3294 53.6474 80.4118C58.2558 79.4941 62.4889 77.2315 65.8122 73.9095C69.1354 70.5876 71.3999 66.3554 72.3194 61.7474C73.239 57.1394 72.7724 52.3622 70.9787 48.0192C69.185 43.6761 66.1446 39.962 62.2414 37.3458C58.3382 34.7296 53.7473 33.3287 49.0484 33.32C48.6222 33.32 48.2134 33.1507 47.912 32.8493C47.6106 32.5478 47.4412 32.139 47.4412 31.7128C47.4412 31.2865 47.6106 30.8777 47.912 30.5763C48.2134 30.2749 48.6222 30.1056 49.0484 30.1056C56.1544 30.2013 62.9369 33.0913 67.9282 38.1501C72.9194 43.209 75.7178 50.0298 75.7178 57.1364C75.7178 64.2431 72.9194 71.0639 67.9282 76.1228C62.9369 81.1816 56.1544 84.0716 49.0484 84.1673V84.1575Z" fill="#009AFF"/>
<path d="M22.4904 32.2714C22.2753 32.272 22.0623 32.2288 21.8643 32.1446C21.6664 32.0604 21.4876 31.9368 21.3389 31.7814L18.2176 28.5719C17.9206 28.2658 17.7574 27.8543 17.7639 27.428C17.7703 27.0016 17.9458 26.5952 18.2519 26.2983C18.5579 26.0013 18.9694 25.8381 19.3958 25.8445C19.8222 25.851 20.2285 26.0265 20.5255 26.3326L23.6419 29.547C23.861 29.7736 24.0087 30.0597 24.0665 30.3696C24.1242 30.6795 24.0896 30.9995 23.9669 31.2899C23.8442 31.5803 23.6387 31.8281 23.3762 32.0026C23.1137 32.1772 22.8056 32.2706 22.4904 32.2714Z" fill="white"/>
<path d="M17.7617 30.6642C17.4486 30.6559 17.1448 30.5563 16.8876 30.3776C16.6304 30.199 16.431 29.9491 16.3139 29.6586C16.1968 29.3682 16.1671 29.0499 16.2284 28.7428C16.2897 28.4357 16.4395 28.1532 16.6592 27.93L19.8736 24.8136C20.1823 24.5348 20.5871 24.3866 21.0029 24.4001C21.4186 24.4137 21.813 24.5878 22.103 24.8861C22.3929 25.1843 22.556 25.5834 22.5579 25.9993C22.5597 26.4153 22.4002 26.8158 22.1129 27.1166L18.8985 30.2379C18.589 30.5218 18.1815 30.6747 17.7617 30.6642Z" fill="white"/>
<path d="M75.5096 32.2714C75.1943 32.2706 74.8863 32.1772 74.6237 32.0027C74.3612 31.8281 74.1558 31.5803 74.0331 31.2899C73.9103 30.9995 73.8757 30.6795 73.9335 30.3696C73.9913 30.0597 74.1389 29.7736 74.3581 29.547L77.4794 26.3326C77.6241 26.1722 77.7998 26.0427 77.9958 25.9518C78.1918 25.8608 78.4041 25.8104 78.62 25.8033C78.836 25.7963 79.0511 25.8329 79.2526 25.9109C79.4541 25.9889 79.6377 26.1068 79.7926 26.2574C79.9475 26.408 80.0705 26.5883 80.1541 26.7875C80.2378 26.9868 80.2804 27.2008 80.2794 27.4168C80.2785 27.6329 80.2339 27.8465 80.1485 28.045C80.0631 28.2435 79.9386 28.4227 79.7824 28.5719L76.666 31.7814C76.5163 31.937 76.3367 32.0606 76.1379 32.1448C75.9392 32.229 75.7254 32.2721 75.5096 32.2714Z" fill="white"/>
<path d="M80.2366 30.6642C79.8184 30.6642 79.4164 30.5027 79.1145 30.2134L75.9001 27.0921C75.6127 26.7913 75.4532 26.3908 75.4551 25.9748C75.4569 25.5588 75.62 25.1598 75.91 24.8615C76.2 24.5633 76.5943 24.3891 77.0101 24.3756C77.4258 24.3621 77.8306 24.5103 78.1394 24.7891L81.3391 27.93C81.5679 28.1528 81.7251 28.4387 81.7908 28.7512C81.8564 29.0638 81.8274 29.3888 81.7075 29.6848C81.5877 29.9808 81.3823 30.2343 81.1177 30.4132C80.8531 30.592 80.5412 30.6879 80.2219 30.6887L80.2366 30.6642Z" fill="white"/>
</svg>
