<svg width="98" height="98" viewBox="0 0 98 98" fill="none" xmlns="http://www.w3.org/2000/svg">
<path d="M57.1197 87.7444H47.9616C46.8807 87.7431 45.8445 87.3131 45.0803 86.5489C44.316 85.7846 43.8861 84.7484 43.8848 83.6676V81.2176C43.8861 80.1367 44.316 79.1005 45.0803 78.3363C45.8445 77.572 46.8807 77.142 47.9616 77.1407H57.1197C58.2005 77.142 59.2367 77.572 60.001 78.3363C60.7652 79.1005 61.1952 80.1367 61.1965 81.2176V83.6676C61.1952 84.7484 60.7652 85.7846 60.001 86.5489C59.2367 87.3131 58.2005 87.7431 57.1197 87.7444ZM47.9616 79.4879C47.5028 79.4879 47.0629 79.6701 46.7385 79.9945C46.4141 80.3188 46.2319 80.7588 46.2319 81.2176V83.6676C46.2319 84.1263 46.4141 84.5663 46.7385 84.8906C47.0629 85.215 47.5028 85.3973 47.9616 85.3973H57.1197C57.578 85.396 58.0172 85.2133 58.3413 84.8892C58.6654 84.5651 58.8481 84.1259 58.8494 83.6676V81.2176C58.8481 80.7592 58.6654 80.32 58.3413 79.9959C58.0172 79.6718 57.578 79.4891 57.1197 79.4879H47.9616Z" fill="#006FB8"/>
<path d="M57.1195 87.9894H47.9614C46.8156 87.9881 45.7171 87.5323 44.9069 86.7221C44.0967 85.9119 43.6409 84.8134 43.6396 83.6676V81.2176C43.6409 80.0717 44.0967 78.9732 44.9069 78.163C45.7171 77.3528 46.8156 76.897 47.9614 76.8958H57.1195C58.2654 76.897 59.3639 77.3528 60.1741 78.163C60.9843 78.9732 61.4401 80.0717 61.4413 81.2176V83.6676C61.4401 84.8134 60.9843 85.9119 60.1741 86.7221C59.3639 87.5323 58.2654 87.9881 57.1195 87.9894ZM47.9614 77.3858C46.9456 77.387 45.9717 77.7912 45.2534 78.5095C44.5351 79.2278 44.1309 80.2017 44.1296 81.2176V83.6676C44.1309 84.6834 44.5351 85.6573 45.2534 86.3756C45.9717 87.0939 46.9456 87.4981 47.9614 87.4994H57.1195C58.1354 87.4981 59.1093 87.0939 59.8276 86.3756C60.5459 85.6573 60.9501 84.6834 60.9513 83.6676V81.2176C60.9501 80.2017 60.5459 79.2278 59.8276 78.5095C59.1093 77.7912 58.1354 77.387 57.1195 77.3858H47.9614ZM57.1195 85.6423H47.9614C47.4416 85.6423 46.9431 85.4358 46.5755 85.0682C46.2079 84.7006 46.0014 84.2021 46.0014 83.6823V81.2323C46.0014 80.7124 46.2079 80.2139 46.5755 79.8463C46.9431 79.4788 47.4416 79.2723 47.9614 79.2723H57.1195C57.6394 79.2723 58.1379 79.4788 58.5055 79.8463C58.8731 80.2139 59.0795 80.7124 59.0795 81.2323V83.6823C59.0795 84.2021 58.8731 84.7006 58.5055 85.0682C58.1379 85.4358 57.6394 85.6423 57.1195 85.6423ZM47.9614 79.7329C47.5716 79.7329 47.1977 79.8877 46.922 80.1634C46.6463 80.4391 46.4914 80.813 46.4914 81.2029V83.6529C46.4914 84.0427 46.6463 84.4166 46.922 84.6923C47.1977 84.968 47.5716 85.1229 47.9614 85.1229H57.1195C57.5094 85.1229 57.8833 84.968 58.159 84.6923C58.4347 84.4166 58.5895 84.0427 58.5895 83.6529V81.2029C58.5895 80.813 58.4347 80.4391 58.159 80.1634C57.8833 79.8877 57.5094 79.7329 57.1195 79.7329H47.9614Z" fill="#006FB8"/>
<path d="M60.0198 83.6185C59.7079 83.6185 59.4087 83.4946 59.1882 83.2741C58.9677 83.0535 58.8438 82.7544 58.8438 82.4425C58.8438 82.1306 58.9677 81.8315 59.1882 81.611C59.4087 81.3904 59.7079 81.2665 60.0198 81.2665C64.5489 81.2626 68.8916 79.4627 72.0956 76.2615C75.2995 73.0603 77.1032 68.7191 77.111 64.19V58.9225C77.1302 58.6244 77.2623 58.3448 77.4802 58.1404C77.6982 57.9361 77.9857 57.8224 78.2845 57.8224C78.5833 57.8224 78.8708 57.9361 79.0888 58.1404C79.3068 58.3448 79.4388 58.6244 79.4581 58.9225V64.19C79.4503 69.3421 77.3995 74.2808 73.7555 77.9229C70.1115 81.5651 65.1718 83.6133 60.0198 83.6185Z" fill="#006FB8"/>
<path d="M60.0245 83.8636C59.6476 83.8636 59.2862 83.7138 59.0197 83.4474C58.7532 83.1809 58.6035 82.8194 58.6035 82.4426C58.6035 82.0657 58.7532 81.7042 59.0197 81.4378C59.2862 81.1713 59.6476 81.0216 60.0245 81.0216C64.4878 81.0164 68.767 79.2417 71.9239 76.0866C75.0809 72.9315 76.858 68.6534 76.8658 64.1901V58.9226C76.8871 58.5607 77.0458 58.2207 77.3095 57.9721C77.5732 57.7235 77.9219 57.585 78.2844 57.585C78.6468 57.585 78.9955 57.7235 79.2592 57.9721C79.5229 58.2207 79.6816 58.5607 79.7029 58.9226V64.1901C79.6951 69.4063 77.6192 74.4065 73.9304 78.0945C70.2415 81.7824 65.2407 83.8571 60.0245 83.8636ZM78.2819 57.9965C78.0363 57.9965 77.8007 58.094 77.6271 58.2677C77.4534 58.4414 77.3558 58.6769 77.3558 58.9226V64.1901C77.3506 68.785 75.523 73.1903 72.2739 76.4394C69.0247 79.6885 64.6195 81.5162 60.0245 81.5214C59.7776 81.5214 59.5408 81.6194 59.3662 81.794C59.1916 81.9686 59.0935 82.2054 59.0935 82.4524C59.0935 82.6993 59.1916 82.9361 59.3662 83.1107C59.5408 83.2853 59.7776 83.3834 60.0245 83.3834C65.1125 83.3769 69.9901 81.3525 73.5873 77.7543C77.1846 74.1561 79.2077 69.278 79.2129 64.1901V58.9226C79.2116 58.6765 79.113 58.4409 78.9385 58.2674C78.764 58.0939 78.528 57.9965 78.2819 57.9965Z" fill="#006FB8"/>
<path d="M27.695 68.0757C26.4755 68.1039 25.2627 67.8881 24.1278 67.4409C22.9929 66.9937 21.9588 66.3242 21.0863 65.4717C20.2138 64.6191 19.5206 63.6008 19.0472 62.4766C18.5739 61.3523 18.3301 60.1448 18.3301 58.9249C18.3301 57.7051 18.5739 56.4976 19.0472 55.3733C19.5206 54.249 20.2138 53.2307 21.0863 52.3782C21.9588 51.5257 22.9929 50.8561 24.1278 50.409C25.2627 49.9618 26.4755 49.746 27.695 49.7742C27.8501 49.7742 28.0036 49.8049 28.1466 49.8647C28.2897 49.9245 28.4194 50.0121 28.5284 50.1224C28.6373 50.2327 28.7233 50.3635 28.7813 50.5073C28.8392 50.6511 28.8681 50.805 28.8661 50.96V66.9144C28.8636 67.2233 28.739 67.5186 28.5197 67.7361C28.3003 67.9537 28.0039 68.0757 27.695 68.0757ZM26.519 52.2242C24.9409 52.4985 23.5101 53.321 22.479 54.5468C21.4478 55.7726 20.8824 57.3231 20.8824 58.9249C20.8824 60.5268 21.4478 62.0772 22.479 63.303C23.5101 64.5289 24.9409 65.3514 26.519 65.6257V52.2242Z" fill="#004D80"/>
<path d="M27.6948 68.3207C26.4429 68.3493 25.1979 68.1274 24.0329 67.6681C22.8679 67.2087 21.8065 66.5212 20.911 65.6459C20.0155 64.7706 19.3039 63.7251 18.8181 62.571C18.3323 61.4168 18.082 60.1772 18.082 58.9249C18.082 57.6727 18.3323 56.4331 18.8181 55.2789C19.3039 54.1247 20.0155 53.0793 20.911 52.204C21.8065 51.3287 22.8679 50.6411 24.0329 50.1818C25.1979 49.7225 26.4429 49.5006 27.6948 49.5292C27.8818 49.5298 28.0669 49.5674 28.2394 49.6397C28.4118 49.712 28.5684 49.8176 28.6999 49.9506C28.8315 50.0835 28.9355 50.2411 29.006 50.4143C29.0766 50.5875 29.1122 50.773 29.1109 50.96V66.9193C29.1058 67.2919 28.9545 67.6476 28.6896 67.9097C28.4247 68.1718 28.0675 68.3194 27.6948 68.3207ZM27.6948 50.0192C26.5077 49.9913 25.327 50.2011 24.2222 50.6361C23.1173 51.0712 22.1106 51.7227 21.2612 52.5524C20.4117 53.3822 19.7368 54.3734 19.2759 55.4677C18.8151 56.5621 18.5777 57.7375 18.5777 58.9249C18.5777 60.1124 18.8151 61.2878 19.2759 62.3822C19.7368 63.4765 20.4117 64.4677 21.2612 65.2974C22.1106 66.1271 23.1173 66.7787 24.2222 67.2137C25.327 67.6488 26.5077 67.8585 27.6948 67.8307C27.9404 67.8307 28.176 67.7331 28.3497 67.5594C28.5233 67.3858 28.6209 67.1502 28.6209 66.9046V50.96C28.6229 50.8371 28.6003 50.7151 28.5547 50.6011C28.509 50.487 28.4411 50.3832 28.3549 50.2956C28.2687 50.208 28.166 50.1385 28.0526 50.0911C27.9393 50.0436 27.8177 50.0192 27.6948 50.0192ZM26.7638 65.9197L26.4796 65.8658C24.8431 65.583 23.3591 64.7313 22.2895 63.4609C21.2198 62.1906 20.6332 60.5832 20.6332 58.9225C20.6332 57.2618 21.2198 55.6544 22.2895 54.384C23.3591 53.1137 24.8431 52.262 26.4796 51.9792L26.7638 51.9302V65.9197ZM26.2738 52.5231C24.8159 52.8452 23.5115 53.6552 22.5765 54.8193C21.6415 55.9834 21.1319 57.4318 21.1319 58.9249C21.1319 60.418 21.6415 61.8664 22.5765 63.0305C23.5115 64.1946 24.8159 65.0047 26.2738 65.3268V52.5231Z" fill="#004D80"/>
<path d="M19.7175 59.4174C19.5631 59.4174 19.4102 59.387 19.2675 59.3279C19.1248 59.2688 18.9952 59.1822 18.886 59.073C18.7768 58.9638 18.6901 58.8341 18.631 58.6914C18.5719 58.5488 18.5415 58.3958 18.5415 58.2414V43.4777C18.5311 43.3172 18.5538 43.1563 18.6081 43.0049C18.6624 42.8535 18.7471 42.7149 18.8571 42.5975C18.9671 42.4802 19.1 42.3867 19.2475 42.3228C19.3951 42.2588 19.5542 42.2258 19.7151 42.2258C19.8759 42.2258 20.035 42.2588 20.1826 42.3228C20.3301 42.3867 20.463 42.4802 20.573 42.5975C20.683 42.7149 20.7678 42.8535 20.8221 43.0049C20.8763 43.1563 20.899 43.3172 20.8886 43.4777V58.2414C20.8886 58.5524 20.7654 58.8508 20.5459 59.0712C20.3264 59.2916 20.0286 59.4161 19.7175 59.4174Z" fill="#004D80"/>
<path d="M19.7174 59.6624C19.3405 59.6624 18.9791 59.5127 18.7126 59.2462C18.4461 58.9797 18.2964 58.6182 18.2964 58.2414V43.4777C18.285 43.2844 18.3133 43.0908 18.3794 42.9088C18.4456 42.7268 18.5482 42.5603 18.6811 42.4194C18.8139 42.2785 18.9742 42.1663 19.1519 42.0896C19.3297 42.0128 19.5213 41.9733 19.7149 41.9733C19.9086 41.9733 20.1002 42.0128 20.278 42.0896C20.4557 42.1663 20.616 42.2785 20.7488 42.4194C20.8817 42.5603 20.9843 42.7268 21.0504 42.9088C21.1166 43.0908 21.1449 43.2844 21.1335 43.4777V58.2414C21.1335 58.6174 20.9845 58.9781 20.719 59.2444C20.4536 59.5108 20.0934 59.6611 19.7174 59.6624ZM19.7174 42.5467C19.5951 42.5467 19.4741 42.5708 19.3611 42.6175C19.2482 42.6643 19.1455 42.7329 19.0591 42.8194C18.9726 42.9058 18.9041 43.0084 18.8573 43.1214C18.8105 43.2343 18.7864 43.3554 18.7864 43.4777V58.2414C18.7771 58.369 18.7942 58.4971 18.8367 58.6178C18.8792 58.7385 18.9461 58.8492 19.0332 58.9429C19.1203 59.0366 19.2258 59.1113 19.3431 59.1624C19.4604 59.2135 19.587 59.2399 19.7149 59.2399C19.8429 59.2399 19.9695 59.2135 20.0868 59.1624C20.2041 59.1113 20.3096 59.0366 20.3967 58.9429C20.4838 58.8492 20.5507 58.7385 20.5932 58.6178C20.6356 58.4971 20.6528 58.369 20.6435 58.2414V43.4777C20.6435 43.2316 20.5461 42.9955 20.3725 42.8211C20.199 42.6466 19.9635 42.548 19.7174 42.5467Z" fill="#004D80"/>
<path d="M32.281 70.5845H29.6154C28.7949 70.5845 28.0079 70.2589 27.4273 69.6792C26.8467 69.0995 26.5199 68.3131 26.5186 67.4926V50.3426C26.5199 49.5222 26.8467 48.7357 27.4273 48.156C28.0079 47.5763 28.7949 47.2507 29.6154 47.2507H32.281C33.1006 47.252 33.8863 47.5782 34.4658 48.1578C35.0454 48.7373 35.3716 49.523 35.3729 50.3426V67.4926C35.3716 68.3123 35.0454 69.0979 34.4658 69.6775C33.8863 70.2571 33.1006 70.5832 32.281 70.5845ZM29.6154 49.6125C29.4174 49.6125 29.2274 49.6908 29.087 49.8304C28.9465 49.9699 28.8669 50.1593 28.8657 50.3573V67.5073C28.8669 67.7053 28.9465 67.8947 29.087 68.0343C29.2274 68.1738 29.4174 68.2521 29.6154 68.2521H32.281C32.4785 68.2521 32.6679 68.1737 32.8076 68.034C32.9473 67.8943 33.0258 67.7049 33.0258 67.5073V50.3573C33.0258 50.1598 32.9473 49.9704 32.8076 49.8307C32.6679 49.691 32.4785 49.6125 32.281 49.6125H29.6154Z" fill="#004D80"/>
<path d="M32.2808 70.8295H29.6152C28.7302 70.8282 27.8817 70.4764 27.2554 69.851C26.6291 69.2257 26.276 68.3777 26.2734 67.4926V50.3426C26.285 49.4636 26.6421 48.6243 27.2674 48.0063C27.8927 47.3884 28.7361 47.0412 29.6152 47.04H32.2808C33.1659 47.0413 34.0144 47.3932 34.6407 48.0185C35.267 48.6439 35.62 49.4919 35.6226 50.3769V67.5269C35.6111 68.406 35.254 69.2453 34.6287 69.8632C34.0034 70.4812 33.16 70.8283 32.2808 70.8295ZM29.6152 47.53C28.8597 47.53 28.1351 47.8298 27.6004 48.3636C27.0658 48.8973 26.7647 49.6214 26.7634 50.3769V67.5269C26.7647 68.2824 27.0658 69.0065 27.6004 69.5403C28.1351 70.0741 28.8597 70.3738 29.6152 70.3738H32.2808C33.0363 70.3738 33.761 70.0741 34.2956 69.5403C34.8303 69.0065 35.1313 68.2824 35.1326 67.5269V50.3769C35.1313 49.6214 34.8303 48.8973 34.2956 48.3636C33.761 47.8298 33.0363 47.53 32.2808 47.53H29.6152ZM32.2808 68.502H29.6152C29.3553 68.502 29.1061 68.3988 28.9223 68.215C28.7385 68.0312 28.6352 67.782 28.6352 67.522V50.372C28.6352 50.1121 28.7385 49.8629 28.9223 49.6791C29.1061 49.4953 29.3553 49.392 29.6152 49.392H32.2808C32.5407 49.392 32.79 49.4953 32.9738 49.6791C33.1576 49.8629 33.2608 50.1121 33.2608 50.372V67.522C33.2557 67.7785 33.1502 68.0228 32.967 68.2024C32.7837 68.3819 32.5374 68.4825 32.2808 68.4824V68.502ZM29.6152 49.882C29.4853 49.882 29.3606 49.9337 29.2688 50.0256C29.1769 50.1175 29.1252 50.2421 29.1252 50.372V67.522C29.1252 67.652 29.1769 67.7766 29.2688 67.8685C29.3606 67.9604 29.4853 68.012 29.6152 68.012H32.2808C32.4108 68.012 32.5354 67.9604 32.6273 67.8685C32.7192 67.7766 32.7708 67.652 32.7708 67.522V50.372C32.7708 50.2421 32.7192 50.1175 32.6273 50.0256C32.5354 49.9337 32.4108 49.882 32.2808 49.882H29.6152Z" fill="#004D80"/>
<path d="M70.3049 68.0757C70.1507 68.0757 69.998 68.0453 69.8556 67.9861C69.7132 67.927 69.5839 67.8403 69.4751 67.731C69.3663 67.6217 69.2801 67.4921 69.2215 67.3494C69.163 67.2068 69.1332 67.054 69.1338 66.8997V50.96C69.1338 50.6495 69.2572 50.3516 69.4768 50.132C69.6964 49.9123 69.9943 49.7889 70.3049 49.7889C71.5244 49.7607 72.7373 49.9766 73.8722 50.4237C75.0071 50.8709 76.0412 51.5404 76.9136 52.393C77.7861 53.2455 78.4794 54.2638 78.9527 55.3881C79.426 56.5123 79.6699 57.7199 79.6699 58.9397C79.6699 60.1595 79.426 61.3671 78.9527 62.4913C78.4794 63.6156 77.7861 64.6339 76.9136 65.4864C76.0412 66.3389 75.0071 67.0085 73.8722 67.4557C72.7373 67.9028 71.5244 68.1187 70.3049 68.0905V68.0757ZM71.4809 52.2242V65.6257C73.0591 65.3515 74.4898 64.5289 75.521 63.3031C76.5521 62.0773 77.1175 60.5268 77.1175 58.925C77.1175 57.3232 76.5521 55.7727 75.521 54.5469C74.4898 53.3211 73.0591 52.4985 71.4809 52.2242Z" fill="#004D80"/>
<path d="M70.3048 68.3208C69.9296 68.3195 69.5702 68.1699 69.3049 67.9046C69.0396 67.6393 68.89 67.2798 68.8887 66.9047V50.9601C68.89 50.5849 69.0396 50.2254 69.3049 49.9601C69.5702 49.6949 69.9296 49.5452 70.3048 49.544C71.5567 49.5154 72.8017 49.7372 73.9667 50.1966C75.1316 50.6559 76.1931 51.3434 77.0886 52.2187C77.9841 53.094 78.6957 54.1395 79.1815 55.2937C79.6673 56.4478 79.9176 57.6875 79.9176 58.9397C79.9176 60.192 79.6673 61.4316 79.1815 62.5857C78.6957 63.7399 77.9841 64.7854 77.0886 65.6607C76.1931 66.536 75.1316 67.2235 73.9667 67.6828C72.8017 68.1422 71.5567 68.364 70.3048 68.3355V68.3208ZM70.3048 50.0193C70.0592 50.0193 69.8236 50.1168 69.6499 50.2905C69.4762 50.4642 69.3787 50.6997 69.3787 50.9454V66.9047C69.3787 67.1503 69.4762 67.3858 69.6499 67.5595C69.8236 67.7332 70.0592 67.8308 70.3048 67.8308C71.4919 67.8586 72.6726 67.6488 73.7774 67.2138C74.8823 66.7788 75.889 66.1272 76.7384 65.2975C77.5879 64.4678 78.2628 63.4766 78.7237 62.3822C79.1845 61.2879 79.4219 60.1124 79.4219 58.925C79.4219 57.7376 79.1845 56.5621 78.7237 55.4678C78.2628 54.3734 77.5879 53.3823 76.7384 52.5525C75.889 51.7228 74.8823 51.0713 73.7774 50.6362C72.6726 50.2012 71.4919 49.9914 70.3048 50.0193ZM71.2358 65.9198V51.9401L71.52 51.9891C73.1564 52.2718 74.6404 53.1236 75.7101 54.3939C76.7798 55.6643 77.3664 57.2716 77.3664 58.9324C77.3664 60.5931 76.7798 62.2004 75.7101 63.4708C74.6404 64.7412 73.1564 65.5929 71.52 65.8757L71.2358 65.9198ZM71.7258 52.5232V65.3269C73.1837 65.0048 74.4881 64.1947 75.4231 63.0306C76.3581 61.8665 76.8677 60.4181 76.8677 58.925C76.8677 57.4319 76.3581 55.9835 75.4231 54.8194C74.4881 53.6553 73.1837 52.8452 71.7258 52.5232Z" fill="#004D80"/>
<path d="M68.3845 70.5845H65.7189C64.8992 70.5832 64.1135 70.2571 63.534 69.6775C62.9544 69.0979 62.6282 68.3123 62.627 67.4926V50.3426C62.6282 49.523 62.9544 48.7373 63.534 48.1578C64.1135 47.5782 64.8992 47.252 65.7189 47.2507H68.3845C69.2049 47.2507 69.9919 47.5763 70.5725 48.156C71.1531 48.7357 71.48 49.5222 71.4813 50.3426V67.4926C71.48 68.3131 71.1531 69.0995 70.5725 69.6792C69.9919 70.2589 69.2049 70.5845 68.3845 70.5845ZM65.7189 49.6125C65.5213 49.6125 65.3319 49.691 65.1922 49.8307C65.0525 49.9704 64.9741 50.1598 64.9741 50.3573V67.5073C64.9741 67.7049 65.0525 67.8943 65.1922 68.034C65.3319 68.1737 65.5213 68.2521 65.7189 68.2521H68.3845C68.5824 68.2521 68.7724 68.1738 68.9128 68.0343C69.0533 67.8947 69.1329 67.7053 69.1342 67.5073V50.3573C69.1329 50.1593 69.0533 49.9699 68.9128 49.8304C68.7724 49.6908 68.5824 49.6125 68.3845 49.6125H65.7189Z" fill="#004D80"/>
<path d="M68.3844 70.8295H65.7187C64.8337 70.8282 63.9852 70.4764 63.3589 69.851C62.7326 69.2257 62.3795 68.3777 62.377 67.4926V50.3426C62.3885 49.4636 62.7456 48.6243 63.3709 48.0063C63.9962 47.3884 64.8396 47.0412 65.7187 47.04H68.3844C69.2694 47.0413 70.1179 47.3932 70.7442 48.0185C71.3705 48.6439 71.7236 49.4919 71.7262 50.3769V67.5269C71.7146 68.406 71.3575 69.2453 70.7322 69.8632C70.1069 70.4812 69.2635 70.8283 68.3844 70.8295ZM65.7187 47.53C64.9633 47.53 64.2386 47.8298 63.704 48.3636C63.1693 48.8973 62.8683 49.6214 62.867 50.3769V67.5269C62.8683 68.2824 63.1693 69.0065 63.704 69.5403C64.2386 70.0741 64.9633 70.3738 65.7187 70.3738H68.3844C69.1398 70.3738 69.8645 70.0741 70.3991 69.5403C70.9338 69.0065 71.2349 68.2824 71.2362 67.5269V50.3769C71.2349 49.6214 70.9338 48.8973 70.3991 48.3636C69.8645 47.8298 69.1398 47.53 68.3844 47.53H65.7187ZM68.3844 68.502H65.7187C65.4588 68.502 65.2096 68.3988 65.0258 68.215C64.842 68.0312 64.7387 67.782 64.7387 67.522V50.372C64.7387 50.1121 64.842 49.8629 65.0258 49.6791C65.2096 49.4953 65.4588 49.392 65.7187 49.392H68.3844C68.6443 49.392 68.8935 49.4953 69.0773 49.6791C69.2611 49.8629 69.3644 50.1121 69.3644 50.372V67.522C69.3592 67.7785 69.2537 68.0228 69.0705 68.2024C68.8872 68.3819 68.6409 68.4825 68.3844 68.4824V68.502ZM65.7187 49.882C65.5888 49.882 65.4642 49.9337 65.3723 50.0256C65.2804 50.1175 65.2287 50.2421 65.2287 50.372V67.522C65.2287 67.652 65.2804 67.7766 65.3723 67.8685C65.4642 67.9604 65.5888 68.012 65.7187 68.012H68.3844C68.5143 68.012 68.6389 67.9604 68.7308 67.8685C68.8227 67.7766 68.8744 67.652 68.8744 67.522V50.372C68.8744 50.2421 68.8227 50.1175 68.7308 50.0256C68.6389 49.9337 68.5143 49.882 68.3844 49.882H65.7187Z" fill="#004D80"/>
<path d="M78.2819 59.4174C77.9709 59.4161 77.673 59.2916 77.4536 59.0712C77.2341 58.8508 77.1108 58.5524 77.1108 58.2414V43.4777C77.1005 43.3172 77.1231 43.1563 77.1774 43.0049C77.2317 42.8535 77.3164 42.7149 77.4264 42.5975C77.5364 42.4802 77.6693 42.3867 77.8169 42.3228C77.9645 42.2588 78.1236 42.2258 78.2844 42.2258C78.4452 42.2258 78.6043 42.2588 78.7519 42.3228C78.8995 42.3867 79.0324 42.4802 79.1424 42.5975C79.2524 42.7149 79.3371 42.8535 79.3914 43.0049C79.4457 43.1563 79.4683 43.3172 79.458 43.4777V58.2414C79.458 58.3958 79.4275 58.5488 79.3684 58.6914C79.3093 58.8341 79.2227 58.9638 79.1135 59.073C79.0043 59.1822 78.8747 59.2688 78.732 59.3279C78.5893 59.387 78.4364 59.4174 78.2819 59.4174Z" fill="#004D80"/>
<path d="M78.2828 59.6624C77.9068 59.6611 77.5466 59.5108 77.2812 59.2444C77.0157 58.9781 76.8667 58.6174 76.8667 58.2414V43.4777C76.8553 43.2844 76.8836 43.0908 76.9498 42.9088C77.0159 42.7268 77.1185 42.5603 77.2514 42.4194C77.3842 42.2785 77.5445 42.1663 77.7222 42.0896C77.9 42.0128 78.0916 41.9733 78.2853 41.9733C78.4789 41.9733 78.6705 42.0128 78.8483 42.0896C79.0261 42.1663 79.1863 42.2785 79.3191 42.4194C79.452 42.5603 79.5546 42.7268 79.6208 42.9088C79.6869 43.0908 79.7152 43.2844 79.7038 43.4777V58.2414C79.7038 58.6182 79.5541 58.9797 79.2876 59.2462C79.0211 59.5127 78.6597 59.6624 78.2828 59.6624ZM78.2828 42.5467C78.0367 42.548 77.8012 42.6466 77.6277 42.8211C77.4541 42.9955 77.3567 43.2316 77.3567 43.4777V58.2414C77.3474 58.369 77.3646 58.4971 77.407 58.6178C77.4495 58.7385 77.5164 58.8492 77.6035 58.9429C77.6906 59.0366 77.7961 59.1113 77.9134 59.1624C78.0307 59.2135 78.1573 59.2399 78.2853 59.2399C78.4132 59.2399 78.5398 59.2135 78.6571 59.1624C78.7744 59.1113 78.8799 59.0366 78.967 58.9429C79.0542 58.8492 79.121 58.7385 79.1635 58.6178C79.206 58.4971 79.2231 58.369 79.2138 58.2414V43.4777C79.2138 43.2308 79.1157 42.994 78.9411 42.8194C78.7665 42.6448 78.5297 42.5467 78.2828 42.5467Z" fill="#004D80"/>
<path d="M79.4582 44.6488H77.0083C76.3168 44.6538 75.6498 44.3934 75.1447 43.9211C74.6397 43.4489 74.335 42.8008 74.2936 42.1106C73.9335 35.642 71.1101 29.5567 66.4033 25.1048C61.6966 20.6528 55.4638 18.1721 48.9851 18.1721C42.5065 18.1721 36.2737 20.6528 31.567 25.1048C26.8602 29.5567 24.0368 35.642 23.6766 42.1106C23.6353 42.8008 23.3306 43.4489 22.8256 43.9211C22.3205 44.3934 21.6535 44.6538 20.962 44.6488H18.512C18.145 44.65 17.7817 44.5758 17.4446 44.4309C17.1074 44.2859 16.8036 44.0732 16.552 43.806C16.2948 43.5351 16.0952 43.2147 15.9655 42.8643C15.8358 42.5139 15.7786 42.1408 15.7974 41.7676C16.236 33.2642 19.9229 25.2537 26.0968 19.3899C32.2708 13.5262 40.4606 10.2568 48.9753 10.2568C57.4901 10.2568 65.6799 13.5262 71.8539 19.3899C78.0278 25.2537 81.7147 33.2642 82.1533 41.7676C82.1721 42.1408 82.1149 42.5139 81.9852 42.8643C81.8554 43.2147 81.6559 43.5351 81.3986 43.806C81.1493 44.0708 80.8487 44.2821 80.5151 44.427C80.1815 44.5719 79.8219 44.6473 79.4582 44.6488ZM48.9998 15.7829C56.0871 15.7803 62.9056 18.4957 68.0506 23.37C73.1956 28.2443 76.2754 34.9061 76.6555 41.9832C76.6653 42.0729 76.7086 42.1555 76.7767 42.2145C76.8449 42.2736 76.9328 42.3047 77.023 42.3017H79.4729C79.5225 42.3026 79.5717 42.293 79.6173 42.2736C79.6628 42.2541 79.7038 42.2253 79.7375 42.189C79.7755 42.1486 79.8047 42.1007 79.8232 42.0484C79.8418 41.9961 79.8493 41.9406 79.8453 41.8852C79.4464 33.9773 76.0242 26.525 70.286 21.069C64.5478 15.6129 56.9325 12.5704 49.0145 12.5704C41.0965 12.5704 33.4813 15.6129 27.7431 21.069C22.0049 26.525 18.5826 33.9773 18.1837 41.8852C18.1798 41.9406 18.1873 41.9961 18.2058 42.0484C18.2244 42.1007 18.2536 42.1486 18.2915 42.189C18.3253 42.2253 18.3662 42.2541 18.4118 42.2736C18.4574 42.293 18.5066 42.3026 18.5561 42.3017H21.0061C21.0963 42.3047 21.1842 42.2736 21.2523 42.2145C21.3205 42.1555 21.3638 42.0729 21.3736 41.9832C21.7535 34.9112 24.8291 28.2536 29.9678 23.3801C35.1066 18.5066 41.9176 15.7878 48.9998 15.7829Z" fill="#004D80"/>
<path d="M79.4588 44.8938H77.0088C76.2579 44.895 75.5349 44.6089 74.9882 44.0941C74.4416 43.5794 74.1126 42.8749 74.0688 42.1253C73.7309 35.7036 70.9414 29.6565 66.2757 25.2312C61.61 20.8058 55.424 18.3398 48.9934 18.3417C42.5629 18.3436 36.3782 20.8132 31.7152 25.2413C27.0521 29.6693 24.2661 35.7181 23.932 42.14C23.8882 42.8896 23.5592 43.5941 23.0125 44.1088C22.4658 44.6236 21.7429 44.9097 20.992 44.9085H18.542C18.1406 44.9103 17.7432 44.83 17.3741 44.6724C17.005 44.5148 16.672 44.2833 16.3958 43.9922C16.118 43.6946 15.9024 43.3446 15.7619 42.9625C15.6214 42.5805 15.5587 42.1742 15.5775 41.7676C16.0177 33.2002 19.7311 25.129 25.9509 19.2207C32.1706 13.3124 40.4217 10.0181 49.0004 10.0181C57.579 10.0181 65.8302 13.3124 72.0499 19.2207C78.2696 25.129 81.983 33.2002 82.4233 41.7676C82.4421 42.1742 82.3794 42.5805 82.2389 42.9625C82.0983 43.3446 81.8828 43.6946 81.605 43.9922C81.3275 44.2806 80.994 44.5094 80.6249 44.6644C80.2559 44.8195 79.8591 44.8975 79.4588 44.8938ZM49.0004 17.885C55.5499 17.8807 61.8513 20.3894 66.6057 24.894C71.3601 29.3986 74.205 35.5557 74.5539 42.0959C74.5902 42.7207 74.8642 43.308 75.3198 43.7371C75.7754 44.1663 76.378 44.4048 77.0039 44.4038H79.4539C79.7884 44.4052 80.1196 44.3381 80.4272 44.2066C80.7348 44.0752 81.0122 43.8821 81.2424 43.6394C81.4762 43.3911 81.6574 43.0983 81.7753 42.7783C81.8932 42.4584 81.9452 42.1179 81.9284 41.7774C81.4915 33.3378 77.8312 25.388 71.703 19.5688C65.5748 13.7496 57.4464 10.5052 48.9955 10.5052C40.5446 10.5052 32.4162 13.7496 26.288 19.5688C20.1598 25.388 16.4995 33.3378 16.0626 41.7774C16.0457 42.1179 16.0978 42.4584 16.2157 42.7783C16.3336 43.0983 16.5148 43.3911 16.7486 43.6394C16.9787 43.8821 17.2561 44.0752 17.5637 44.2066C17.8713 44.3381 18.2026 44.4052 18.5371 44.4038H20.9871C21.613 44.4048 22.2155 44.1663 22.6711 43.7371C23.1267 43.308 23.4008 42.7207 23.4371 42.0959C23.786 35.554 26.6323 29.3955 31.3888 24.8907C36.1453 20.3858 42.4492 17.8782 49.0004 17.885ZM79.4588 42.5467H77.0088C76.8562 42.5497 76.7081 42.4948 76.5944 42.393C76.4807 42.2911 76.4099 42.1499 76.3963 41.9979C76.0697 34.9477 73.0391 28.2945 67.9344 23.4208C62.8297 18.5471 56.0434 15.8277 48.9857 15.8277C41.928 15.8277 35.1417 18.5471 30.037 23.4208C24.9322 28.2945 21.9017 34.9477 21.5751 41.9979C21.5615 42.1499 21.4907 42.2911 21.377 42.393C21.2633 42.4948 21.1152 42.5497 20.9626 42.5467H18.5126C18.4298 42.5474 18.3478 42.5307 18.2718 42.4978C18.1959 42.4649 18.1277 42.4164 18.0716 42.3556C18.0093 42.2909 17.9614 42.2138 17.931 42.1294C17.9006 42.045 17.8884 41.955 17.8952 41.8656C18.2957 33.8937 21.7445 26.3807 27.5285 20.88C33.3124 15.3794 40.9891 12.3119 48.971 12.3119C56.9529 12.3119 64.6295 15.3794 70.4135 20.88C76.1974 26.3807 79.6462 33.8937 80.0468 41.8656C80.0522 41.9545 80.0398 42.0437 80.0103 42.1278C79.9809 42.2119 79.935 42.2894 79.8753 42.3556C79.7664 42.4707 79.6171 42.5392 79.4588 42.5467ZM49.0004 15.5379C56.155 15.5355 63.0377 18.2788 68.2291 23.2021C73.4204 28.1254 76.5244 34.8532 76.901 41.9979C76.901 42.0371 76.9549 42.0812 77.0235 42.0812H79.4735C79.5062 42.0815 79.5378 42.0692 79.5617 42.0469C79.5772 42.0298 79.5887 42.0096 79.5955 41.9875C79.6023 41.9655 79.6041 41.9423 79.6009 41.9195C79.2036 34.0754 75.8079 26.6838 70.1155 21.2724C64.4231 15.861 56.8692 12.8435 49.0151 12.8435C41.161 12.8435 33.6071 15.861 27.9147 21.2724C22.2223 26.6838 18.8265 34.0754 18.4293 41.9195C18.4267 41.9419 18.4294 41.9646 18.437 41.9859C18.4447 42.0071 18.4571 42.0263 18.4734 42.042C18.484 42.0533 18.4969 42.0623 18.5113 42.0682C18.5257 42.0741 18.5411 42.0769 18.5567 42.0763H21.0067C21.0753 42.0763 21.1292 42.0322 21.1292 41.993C21.5067 34.8542 24.6071 28.1319 29.7921 23.2104C34.977 18.2889 41.8516 15.5429 49.0004 15.5379Z" fill="#004D80"/>
</svg>
