<svg width="98" height="98" viewBox="0 0 98 98" fill="none" xmlns="http://www.w3.org/2000/svg">
<path d="M49.0493 90.5814C42.4192 90.5911 35.9353 88.6333 30.4186 84.9558C24.9018 81.2784 20.6003 76.0467 18.0585 69.9231C15.5168 63.7996 14.8493 57.0595 16.1404 50.5563C17.4315 44.0532 20.6232 38.0793 25.3113 33.3911C29.9995 28.7029 35.9734 25.5112 42.4766 24.2201C48.9797 22.9291 55.7198 23.5966 61.8433 26.1383C67.9669 28.68 73.1986 32.9816 76.876 38.4983C80.5535 44.0151 82.5113 50.499 82.5016 57.1291C82.4796 65.9944 78.9481 74.4904 72.6794 80.7591C66.4106 87.0279 57.9146 90.5594 49.0493 90.5814ZM49.0493 26.7883C43.0582 26.7786 37.1987 28.5457 32.2119 31.8662C27.225 35.1866 23.3348 39.9112 21.0331 45.4426C18.7315 50.974 18.1218 57.0637 19.2811 62.9416C20.4404 68.8195 23.3167 74.2217 27.5462 78.4649C31.7757 82.7081 37.1685 85.6019 43.0426 86.7802C48.9168 87.9585 55.0084 87.3685 60.5472 85.0847C66.086 82.801 70.8232 78.9261 74.1598 73.95C77.4963 68.9739 79.2824 63.1202 79.2921 57.1291C79.2818 49.1023 76.0954 41.4058 70.4288 35.7208C64.7622 30.0359 57.076 26.8245 49.0493 26.7883Z" fill="#004D80"/>
<path d="M56.7032 16.8658H41.2976C41.0864 16.8665 40.8771 16.8253 40.6818 16.7448C40.4865 16.6642 40.3091 16.5459 40.1597 16.3965C40.0104 16.2471 39.892 16.0697 39.8115 15.8744C39.7309 15.6791 39.6898 15.4699 39.6904 15.2586V9.02091C39.6898 8.81031 39.7308 8.60166 39.8111 8.40697C39.8914 8.21228 40.0094 8.03539 40.1583 7.88647C40.3072 7.73755 40.4841 7.61955 40.6788 7.53926C40.8735 7.45897 41.0821 7.41796 41.2927 7.41861H56.6983C56.9096 7.41732 57.119 7.45781 57.3145 7.53775C57.5101 7.6177 57.6878 7.73552 57.8377 7.88443C57.9875 8.03335 58.1064 8.21042 58.1875 8.40546C58.2687 8.6005 58.3104 8.80966 58.3104 9.02091V15.2586C58.3104 15.6849 58.1411 16.0937 57.8397 16.3951C57.5383 16.6965 57.1295 16.8658 56.7032 16.8658ZM42.9048 13.6514H55.1009V10.6281H42.9048V13.6514Z" fill="#004D80"/>
<path d="M49.0491 21.3101C48.6228 21.3101 48.2141 21.1408 47.9126 20.8394C47.6112 20.5379 47.4419 20.1291 47.4419 19.7029V15.2586C47.4298 15.0404 47.4624 14.822 47.5376 14.6168C47.6128 14.4117 47.729 14.224 47.8792 14.0652C48.0294 13.9065 48.2104 13.7801 48.4112 13.6937C48.6119 13.6072 48.8281 13.5627 49.0467 13.5627C49.2652 13.5627 49.4814 13.6072 49.6821 13.6937C49.8829 13.7801 50.0639 13.9065 50.2141 14.0652C50.3643 14.224 50.4805 14.4117 50.5557 14.6168C50.6309 14.822 50.6635 15.0404 50.6514 15.2586V19.7029C50.652 19.9137 50.6111 20.1226 50.5308 20.3176C50.4506 20.5125 50.3327 20.6898 50.1838 20.8391C50.035 20.9884 49.8581 21.1068 49.6634 21.1877C49.4687 21.2685 49.2599 21.3101 49.0491 21.3101Z" fill="#004D80"/>
<path d="M49.0492 62.5142C47.9831 62.5142 46.941 62.1981 46.0547 61.6058C45.1683 61.0136 44.4774 60.1718 44.0695 59.1869C43.6615 58.202 43.5548 57.1182 43.7627 56.0727C43.9707 55.0271 44.4841 54.0667 45.2379 53.3129C45.9917 52.5591 46.9521 52.0457 47.9976 51.8378C49.0432 51.6298 50.127 51.7365 51.1118 52.1445C52.0967 52.5524 52.9385 53.2433 53.5308 54.1297C54.1231 55.0161 54.4392 56.0582 54.4392 57.1242C54.4264 58.5498 53.8544 59.9133 52.8464 60.9214C51.8383 61.9294 50.4747 62.5014 49.0492 62.5142ZM49.0492 54.9535C48.7551 54.9395 48.4613 54.9854 48.1855 55.0883C47.9096 55.1912 47.6576 55.349 47.4445 55.5522C47.2315 55.7554 47.0619 55.9997 46.946 56.2703C46.8301 56.5409 46.7704 56.8322 46.7704 57.1266C46.7704 57.421 46.8301 57.7124 46.946 57.983C47.0619 58.2536 47.2315 58.4979 47.4445 58.7011C47.6576 58.9043 47.9096 59.0621 48.1855 59.165C48.4613 59.2679 48.7551 59.3138 49.0492 59.2998C49.6077 59.2733 50.1345 59.0327 50.5204 58.6281C50.9063 58.2234 51.1216 57.6858 51.1216 57.1266C51.1216 56.5675 50.9063 56.0298 50.5204 55.6252C50.1345 55.2206 49.6077 54.98 49.0492 54.9535Z" fill="#006FB8"/>
<path d="M49.0486 54.9535C48.6223 54.9535 48.2136 54.7842 47.9121 54.4828C47.6107 54.1814 47.4414 53.7726 47.4414 53.3463V38.71C47.4641 38.2997 47.643 37.9137 47.9415 37.6313C48.24 37.3489 48.6353 37.1915 49.0462 37.1915C49.4571 37.1915 49.8523 37.3489 50.1508 37.6313C50.4493 37.9137 50.6282 38.2997 50.6509 38.71V53.361C50.6483 53.7843 50.4784 54.1893 50.1782 54.4877C49.8779 54.7861 49.4719 54.9535 49.0486 54.9535Z" fill="#006FB8"/>
<path d="M49.0494 84.1575C41.8834 84.1497 35.0132 81.2996 29.946 76.2325C24.8789 71.1653 22.0288 64.2951 22.021 57.1291C22.0089 56.9109 22.0415 56.6925 22.1167 56.4873C22.1919 56.2822 22.3082 56.0945 22.4584 55.9357C22.6086 55.777 22.7895 55.6506 22.9903 55.5642C23.191 55.4777 23.4072 55.4332 23.6258 55.4332C23.8443 55.4332 24.0605 55.4777 24.2612 55.5642C24.462 55.6506 24.643 55.777 24.7932 55.9357C24.9434 56.0945 25.0596 56.2822 25.1348 56.4873C25.21 56.6925 25.2426 56.9109 25.2305 57.1291C25.2373 61.828 26.6363 66.4194 29.2509 70.3237C31.8655 74.228 35.5784 77.2699 39.9207 79.0654C44.263 80.8609 49.0399 81.3294 53.6483 80.4118C58.2567 79.4941 62.4899 77.2315 65.8131 73.9095C69.1364 70.5876 71.4008 66.3554 72.3204 61.7474C73.2399 57.1394 72.7734 52.3622 70.9797 48.0192C69.186 43.6761 66.1456 39.962 62.2424 37.3458C58.3392 34.7296 53.7483 33.3287 49.0494 33.32C48.6231 33.32 48.2144 33.1507 47.9129 32.8493C47.6115 32.5478 47.4422 32.139 47.4422 31.7128C47.4422 31.2865 47.6115 30.8777 47.9129 30.5763C48.2144 30.2749 48.6231 30.1056 49.0494 30.1056C56.1554 30.2013 62.9379 33.0913 67.9291 38.1501C72.9203 43.209 75.7188 50.0298 75.7188 57.1364C75.7188 64.2431 72.9203 71.0639 67.9291 76.1228C62.9379 81.1816 56.1554 84.0716 49.0494 84.1673V84.1575Z" fill="#004D80"/>
<path d="M22.4914 32.2714C22.2762 32.272 22.0632 32.2288 21.8653 32.1446C21.6673 32.0604 21.4886 31.9368 21.3399 31.7814L18.2186 28.5719C17.9216 28.2658 17.7584 27.8543 17.7648 27.428C17.7713 27.0016 17.9468 26.5952 18.2529 26.2983C18.5589 26.0013 18.9704 25.8381 19.3968 25.8445C19.8231 25.851 20.2295 26.0265 20.5265 26.3326L23.6429 29.547C23.862 29.7736 24.0096 30.0597 24.0674 30.3696C24.1252 30.6795 24.0906 30.9995 23.9679 31.2899C23.8451 31.5803 23.6397 31.8281 23.3772 32.0026C23.1147 32.1772 22.8066 32.2706 22.4914 32.2714Z" fill="#006FB8"/>
<path d="M17.7627 30.6642C17.4496 30.6559 17.1458 30.5563 16.8886 30.3776C16.6314 30.199 16.432 29.9491 16.3149 29.6586C16.1977 29.3682 16.168 29.0499 16.2294 28.7428C16.2907 28.4357 16.4404 28.1532 16.6602 27.93L19.8746 24.8136C20.1833 24.5348 20.5881 24.3866 21.0039 24.4001C21.4196 24.4137 21.8139 24.5878 22.1039 24.8861C22.3939 25.1843 22.557 25.5834 22.5588 25.9993C22.5607 26.4153 22.4012 26.8158 22.1139 27.1166L18.8995 30.2379C18.59 30.5218 18.1825 30.6747 17.7627 30.6642Z" fill="#006FB8"/>
<path d="M75.5086 32.2714C75.1933 32.2706 74.8853 32.1772 74.6228 32.0027C74.3602 31.8281 74.1548 31.5803 74.0321 31.2899C73.9093 30.9995 73.8747 30.6795 73.9325 30.3696C73.9903 30.0597 74.1379 29.7736 74.3571 29.547L77.4784 26.3326C77.6232 26.1722 77.7988 26.0427 77.9948 25.9518C78.1908 25.8608 78.4031 25.8104 78.619 25.8033C78.835 25.7963 79.0501 25.8329 79.2516 25.9109C79.4531 25.9889 79.6368 26.1068 79.7917 26.2574C79.9466 26.408 80.0695 26.5883 80.1532 26.7875C80.2368 26.9868 80.2794 27.2008 80.2784 27.4168C80.2775 27.6329 80.233 27.8465 80.1476 28.045C80.0622 28.2435 79.9376 28.4227 79.7814 28.5719L76.665 31.7814C76.5153 31.937 76.3357 32.0606 76.137 32.1448C75.9382 32.229 75.7244 32.2721 75.5086 32.2714Z" fill="#006FB8"/>
<path d="M80.2375 30.6642C79.8194 30.6642 79.4174 30.5027 79.1155 30.2134L75.901 27.0921C75.6137 26.7913 75.4542 26.3908 75.4561 25.9748C75.4579 25.5588 75.621 25.1598 75.911 24.8615C76.201 24.5633 76.5953 24.3891 77.011 24.3756C77.4268 24.3621 77.8316 24.5103 78.1403 24.7891L81.34 27.93C81.5689 28.1528 81.7261 28.4387 81.7917 28.7512C81.8574 29.0638 81.8284 29.3888 81.7085 29.6848C81.5886 29.9808 81.3833 30.2343 81.1187 30.4132C80.8541 30.592 80.5422 30.6879 80.2228 30.6887L80.2375 30.6642Z" fill="#006FB8"/>
</svg>
