<svg width="98" height="98" viewBox="0 0 98 98" fill="none" xmlns="http://www.w3.org/2000/svg">
<path d="M64.6413 89.2144H58.8446C58.1948 89.2144 57.5717 88.9562 57.1122 88.4968C56.6527 88.0373 56.3946 87.4141 56.3946 86.7644V85.7501L51.8915 83.8881L51.1614 84.6182C50.7034 85.0671 50.0877 85.3185 49.4464 85.3185C48.8051 85.3185 48.1894 85.0671 47.7314 84.6182L43.6105 80.512C43.1616 80.054 42.9102 79.4382 42.9102 78.797C42.9102 78.1557 43.1616 77.5399 43.6105 77.082L44.3798 76.3176C44.3243 75.9618 44.4014 75.598 44.5964 75.2952C44.7914 74.9925 45.0907 74.7718 45.4376 74.6751C45.7844 74.5785 46.1547 74.6124 46.4782 74.7707C46.8017 74.9289 47.0558 75.2004 47.1924 75.5335C47.375 75.9792 47.4222 76.4689 47.3281 76.9412C47.234 77.4136 47.0027 77.8477 46.6632 78.1894L46.0605 78.7921L49.4464 82.1731L50.0638 81.5606C50.4055 81.2211 50.8396 80.9898 51.3119 80.8957C51.7843 80.8016 52.2739 80.8487 52.7196 81.0313L57.8401 83.1531C58.2848 83.3391 58.6647 83.6522 58.9323 84.0531C59.1998 84.4541 59.3432 84.925 59.3444 85.4071V86.2744H64.1317V85.4071C64.1329 84.925 64.2763 84.4541 64.5439 84.0531C64.8114 83.6522 65.1913 83.3391 65.636 83.1531L70.7614 81.0313C71.2071 80.8487 71.6967 80.8016 72.1691 80.8957C72.6414 80.9898 73.0756 81.2211 73.4172 81.5606L74.0297 82.1731L77.4156 78.7921L76.8031 78.1746C76.4636 77.833 76.2323 77.3989 76.1382 76.9265C76.0441 76.4542 76.0913 75.9645 76.2739 75.5189L78.4005 70.3935C78.5862 69.9496 78.8986 69.5702 79.2986 69.3027C79.6985 69.0351 80.1684 68.8913 80.6496 68.8892H81.5218V64.1068H80.6496C80.1684 64.1046 79.6985 63.9608 79.2986 63.6932C78.8986 63.4257 78.5862 63.0464 78.4005 62.6025L76.2788 57.4771C76.0956 57.0318 76.0476 56.5425 76.1409 56.0702C76.2341 55.5978 76.4644 55.1634 76.8031 54.8213L77.4205 54.2039L74.0346 50.8229L73.4221 51.4501C73.0805 51.7895 72.6463 52.0208 72.174 52.1149C71.7016 52.2091 71.212 52.1619 70.7663 51.9793C70.4343 51.8423 70.1639 51.5886 70.0062 51.2659C69.8484 50.9432 69.8143 50.574 69.9102 50.2279C70.006 49.8818 70.2253 49.5827 70.5266 49.3872C70.8278 49.1917 71.1902 49.1132 71.5454 49.1667L72.3147 48.4023C72.7727 47.9533 73.3884 47.7019 74.0297 47.7019C74.671 47.7019 75.2867 47.9533 75.7447 48.4023L79.8411 52.4987C80.29 52.9566 80.5415 53.5724 80.5415 54.2137C80.5415 54.8549 80.29 55.4707 79.8411 55.9287L79.1061 56.6588L80.973 61.1668H82.0118C82.6616 61.1668 83.2848 61.4249 83.7442 61.8843C84.2037 62.3438 84.4618 62.967 84.4618 63.6168V69.4085C84.4618 70.0583 84.2037 70.6815 83.7442 71.141C83.2848 71.6004 82.6616 71.8585 82.0118 71.8585H80.973L79.1061 76.3666L79.8411 77.0967C80.29 77.5546 80.5415 78.1704 80.5415 78.8117C80.5415 79.4529 80.29 80.0687 79.8411 80.5267L75.7447 84.6231C75.2867 85.072 74.671 85.3234 74.0297 85.3234C73.3884 85.3234 72.7727 85.072 72.3147 84.6231L71.5797 83.893L67.0766 85.7549V86.7938C67.0689 87.4359 66.8094 88.0493 66.3539 88.502C65.8985 88.9548 65.2835 89.2105 64.6413 89.2144Z" fill="white"/>
<path d="M61.7404 77.9688C59.7283 77.9643 57.7524 77.4326 56.0098 76.4268C54.2671 75.4209 52.8184 73.9759 51.8081 72.2358C51.6323 71.8999 51.5932 71.509 51.6988 71.1449C51.8045 70.7807 52.0467 70.4715 52.375 70.2818C52.7032 70.092 53.0921 70.0365 53.4604 70.1267C53.8286 70.2169 54.1478 70.4459 54.3512 70.7658C55.0051 71.8996 55.9112 72.8676 56.9992 73.5951C58.0873 74.3225 59.3281 74.7899 60.6257 74.961C61.9233 75.1321 63.2428 75.0023 64.4822 74.5817C65.7216 74.1611 66.8476 73.461 67.7731 72.5355C68.6986 71.6101 69.3987 70.4841 69.8193 69.2447C70.2399 68.0053 70.3696 66.6857 70.1985 65.3881C70.0274 64.0905 69.5601 62.8497 68.8326 61.7617C68.1052 60.6737 67.1371 59.7676 66.0034 59.1136C65.6834 58.9102 65.4544 58.5911 65.3642 58.2228C65.274 57.8545 65.3296 57.4657 65.5193 57.1374C65.7091 56.8092 66.0183 56.5669 66.3824 56.4613C66.7466 56.3557 67.1374 56.3948 67.4734 56.5705C69.6567 57.8345 71.3625 59.7829 72.3266 62.1142C73.2907 64.4455 73.4594 67.0297 72.8065 69.4665C72.1536 71.9034 70.7156 74.057 68.7151 75.5941C66.7146 77.1311 64.2632 77.9658 61.7404 77.9688Z" fill="white"/>
<path d="M74.3084 44.2224H71.7408C71.3509 44.2224 70.977 44.0676 70.7013 43.7919C70.4257 43.5162 70.2708 43.1423 70.2708 42.7524C70.2708 42.3626 70.4257 41.9887 70.7013 41.713C70.977 41.4373 71.3509 41.2824 71.7408 41.2824H73.7008C73.7211 40.8419 73.8665 40.4162 74.1199 40.0553C74.3733 39.6943 74.7242 39.4129 75.1316 39.244L78.3656 37.9063C78.7723 37.7373 79.2187 37.6876 79.6526 37.7631C80.0865 37.8386 80.4899 38.0361 80.8156 38.3326L83.5792 35.569C83.2811 35.2443 83.0825 34.8408 83.0069 34.4065C82.9314 33.9722 82.982 33.5254 83.1529 33.119L84.4857 29.8899C84.6535 29.4823 84.9338 29.1309 85.2939 28.8767C85.6539 28.6224 86.0789 28.4759 86.5192 28.4542V24.5342C86.0793 24.5136 85.6545 24.368 85.2943 24.1146C84.9342 23.8612 84.6537 23.5105 84.4857 23.1034L83.148 19.8743C82.9783 19.4678 82.9283 19.0212 83.0038 18.5872C83.0793 18.1531 83.2773 17.7497 83.5743 17.4243L80.8107 14.6607C80.4856 14.9583 80.0822 15.1566 79.648 15.2321C79.2139 15.3076 78.7671 15.2573 78.3607 15.087L75.1267 13.7493C74.7197 13.5813 74.3689 13.3008 74.1155 12.9407C73.8621 12.5806 73.7166 12.1557 73.6959 11.7158H69.7759C69.7548 12.1563 69.6085 12.5815 69.3542 12.9417C69.0999 13.3019 68.7481 13.5821 68.3402 13.7493L65.1111 15.087C64.7047 15.2579 64.2579 15.3086 63.8236 15.233C63.3893 15.1574 62.9858 14.9588 62.6611 14.6607L60.2699 17.0617C60.1335 17.1985 59.9715 17.307 59.7931 17.3811C59.6147 17.4553 59.4235 17.4935 59.2304 17.4938C59.0372 17.494 58.8459 17.4562 58.6674 17.3825C58.4888 17.3088 58.3266 17.2006 58.1898 17.0642C58.0531 16.9278 57.9446 16.7658 57.8704 16.5874C57.7963 16.409 57.758 16.2178 57.7578 16.0247C57.7576 15.8315 57.7954 15.6402 57.8691 15.4617C57.9428 15.2832 58.051 15.1209 58.1874 14.9841L61.0147 12.1617C61.2304 11.9456 61.4867 11.7741 61.7688 11.6571C62.0508 11.5401 62.3532 11.4798 62.6586 11.4798C62.964 11.4798 63.2664 11.5401 63.5485 11.6571C63.8306 11.7741 64.0868 11.9456 64.3026 12.1617L64.3663 12.2254L66.8163 11.2013V11.1082C66.8176 10.4918 67.0634 9.90105 67.4997 9.46562C67.9361 9.03019 68.5273 8.78564 69.1438 8.78564H74.2741C74.8897 8.78694 75.4797 9.03206 75.915 9.46735C76.3503 9.90264 76.5954 10.4927 76.5967 11.1082V11.2013L79.1055 12.2499L79.1692 12.1862C79.6055 11.7509 80.1967 11.5064 80.8131 11.5064C81.4295 11.5064 82.0207 11.7509 82.4571 12.1862L86.0831 15.8122C86.5184 16.2486 86.763 16.8398 86.763 17.4562C86.763 18.0726 86.5184 18.6638 86.0831 19.1001L86.0194 19.1638L87.0435 21.6138H87.1366C87.4416 21.6138 87.7436 21.6739 88.0254 21.7906C88.3072 21.9074 88.5632 22.0784 88.7789 22.2941C88.9946 22.5098 89.1657 22.7658 89.2824 23.0476C89.3991 23.3294 89.4592 23.6314 89.4592 23.9364V29.0667C89.4592 29.6832 89.2146 30.2745 88.7792 30.7108C88.3438 31.1472 87.753 31.3929 87.1366 31.3942H87.0435L86.0194 33.8442L86.0831 33.9079C86.2992 34.1237 86.4707 34.3799 86.5877 34.662C86.7048 34.9441 86.765 35.2465 86.765 35.5519C86.765 35.8573 86.7048 36.1597 86.5877 36.4418C86.4707 36.7239 86.2992 36.9801 86.0831 37.1958L82.4571 40.8267C82.0207 41.2621 81.4295 41.5066 80.8131 41.5066C80.1967 41.5066 79.6055 41.2621 79.1692 40.8267L79.1055 40.763L76.631 41.7822V41.8753C76.6336 42.1822 76.5754 42.4866 76.4599 42.7709C76.3444 43.0553 76.1738 43.3139 75.958 43.5321C75.7421 43.7502 75.4852 43.9235 75.2021 44.042C74.919 44.1605 74.6153 44.2218 74.3084 44.2224Z" fill="white"/>
<path d="M71.7613 34.8292C70.7164 34.8303 69.6807 34.6341 68.7086 34.251C68.5243 34.1837 68.3553 34.0802 68.2116 33.9466C68.0679 33.813 67.9524 33.652 67.8719 33.473C67.7914 33.2941 67.7476 33.1008 67.743 32.9047C67.7383 32.7085 67.773 32.5134 67.845 32.3309C67.917 32.1483 68.0248 31.9821 68.162 31.8418C68.2992 31.7016 68.4632 31.5903 68.6441 31.5144C68.8251 31.4385 69.0194 31.3996 69.2156 31.4001C69.4118 31.4005 69.6059 31.4401 69.7866 31.5168C70.736 31.8857 71.7705 31.9782 72.7702 31.7833C73.77 31.5885 74.6941 31.1143 75.4354 30.4158C76.1768 29.7173 76.705 28.8231 76.959 27.8367C77.2129 26.8503 77.1822 25.8121 76.8703 24.8425C76.5584 23.8728 75.9781 23.0114 75.1967 22.358C74.4154 21.7046 73.4648 21.286 72.4553 21.1506C71.4457 21.0153 70.4185 21.1688 69.4926 21.5934C68.5668 22.0179 67.7801 22.6961 67.2239 23.5494C66.9945 23.8291 66.6699 24.0145 66.3124 24.0699C65.9548 24.1253 65.5894 24.0469 65.2861 23.8497C64.9827 23.6526 64.7627 23.3504 64.6682 23.0012C64.5737 22.6519 64.6113 22.2801 64.7739 21.9569C65.5604 20.7478 66.6475 19.7636 67.9286 19.1008C69.2097 18.438 70.6409 18.1191 72.0823 18.1756C73.5236 18.232 74.9256 18.6617 76.1509 19.4227C77.3763 20.1836 78.3831 21.2497 79.0727 22.5166C79.7623 23.7835 80.1112 25.2077 80.0851 26.6499C80.059 28.0921 79.6588 29.5028 78.9238 30.7439C78.1888 31.985 77.1441 33.014 75.892 33.7301C74.6399 34.4462 73.2233 34.8249 71.7809 34.8292H71.7613Z" fill="white"/>
<path d="M41.7486 71.7164H34.2467C33.5258 71.7151 32.8348 71.4282 32.3251 70.9184C31.8154 70.4087 31.5284 69.7178 31.5272 68.9969V67.3652L25.1572 64.729L24.0106 65.8854C23.4999 66.3944 22.8083 66.6802 22.0873 66.6802C21.3663 66.6802 20.6747 66.3944 20.1641 65.8854L14.8623 60.5836C14.3533 60.0729 14.0675 59.3813 14.0675 58.6603C14.0675 57.9393 14.3533 57.2478 14.8623 56.7371L16.0187 55.5807L13.3825 49.2107H11.7606C11.0397 49.2094 10.3487 48.9225 9.83901 48.4127C9.32928 47.903 9.04235 47.2121 9.04106 46.4912V38.9991C9.03912 38.6405 9.108 38.285 9.24374 37.9531C9.37948 37.6212 9.57941 37.3194 9.83207 37.0649C10.0847 36.8104 10.3851 36.6083 10.7161 36.4702C11.047 36.3321 11.402 36.2606 11.7606 36.26H13.3923L16.0285 29.89L14.8721 28.7385C14.3631 28.2278 14.0773 27.5362 14.0773 26.8152C14.0773 26.0942 14.3631 25.4027 14.8721 24.892L20.1641 19.6C20.6747 19.091 21.3663 18.8052 22.0873 18.8052C22.8083 18.8052 23.4999 19.091 24.0106 19.6L25.167 20.7564L31.537 18.1202V16.5032C31.5382 15.7823 31.8252 15.0914 32.3349 14.5816C32.8446 14.0719 33.5356 13.785 34.2565 13.7837H41.7486C42.4694 13.785 43.1604 14.0719 43.6701 14.5816C44.1798 15.0914 44.4668 15.7823 44.4681 16.5032V18.13L50.8381 20.7662L51.9798 19.6C52.4904 19.091 53.182 18.8052 53.903 18.8052C54.624 18.8052 55.3156 19.091 55.8263 19.6L61.133 24.9067C61.6419 25.4174 61.9277 26.1089 61.9277 26.8299C61.9277 27.5509 61.6419 28.2425 61.133 28.7532L59.9766 29.9047L62.6128 36.2747H64.2445C64.9653 36.276 65.6563 36.5629 66.166 37.0726C66.6757 37.5824 66.9627 38.2733 66.964 38.9942V46.501C66.9627 47.2219 66.6757 47.9128 66.166 48.4225C65.6563 48.9323 64.9653 49.2192 64.2445 49.2205H62.6128L59.9766 55.5905L61.133 56.7469C61.6419 57.2576 61.9277 57.9492 61.9277 58.6701C61.9277 59.3911 61.6419 60.0827 61.133 60.5934L55.8263 65.8952C55.3156 66.4042 54.624 66.69 53.903 66.69C53.182 66.69 52.4904 66.4042 51.9798 65.8952L50.8283 64.7388L44.4583 67.375V69.0067C44.4544 69.7242 44.1677 70.4111 43.6603 70.9185C43.153 71.4258 42.466 71.7125 41.7486 71.7164ZM34.4672 68.7764H41.5281V67.2182C41.5269 66.6803 41.6856 66.1542 41.984 65.7067C42.2823 65.2591 42.7069 64.9103 43.2039 64.7045L49.8385 61.9605C50.3351 61.753 50.8823 61.6981 51.4103 61.8028C51.9383 61.9075 52.4231 62.1671 52.803 62.5485L53.9006 63.651L58.8937 58.6579L57.8206 57.5554C57.4433 57.1781 57.1857 56.6979 57.0803 56.1749C56.9748 55.6519 57.0261 55.1094 57.2277 54.6154L59.9766 47.9857C60.1805 47.4871 60.5288 47.0607 60.9766 46.7613C61.4245 46.4618 61.9515 46.3029 62.4903 46.305H64.0485V39.2H62.4903C61.9521 39.2024 61.4254 39.0443 60.9776 38.7458C60.5298 38.4472 60.1813 38.0219 59.9766 37.5242L57.2277 30.8896C57.0218 30.3931 56.9683 29.8466 57.0739 29.3196C57.1794 28.7926 57.4393 28.3089 57.8206 27.93L58.9231 26.8275L53.9006 21.8491L52.7981 22.9516C52.4187 23.3338 51.9342 23.5943 51.4062 23.6999C50.8782 23.8055 50.3307 23.7514 49.8336 23.5445L43.2039 20.7956C42.7065 20.5903 42.2816 20.2416 41.9831 19.794C41.6847 19.3463 41.5263 18.8199 41.5281 18.2819V16.7237H34.4672V18.2819C34.4685 18.8205 34.3094 19.3473 34.01 19.795C33.7107 20.2427 33.2847 20.5911 32.7865 20.7956L26.1568 23.5445C25.6596 23.7514 25.1121 23.8055 24.5841 23.6999C24.0561 23.5943 23.5716 23.3338 23.1923 22.9516L22.0898 21.8491L17.0967 26.8422L18.1992 27.93C18.5756 28.3078 18.8322 28.7883 18.9368 29.3113C19.0414 29.8342 18.9894 30.3765 18.7872 30.87L16.0432 37.5046C15.8404 38.0052 15.4929 38.4339 15.0451 38.7359C14.5973 39.038 14.0696 39.1995 13.5295 39.2H11.9713V46.2805H13.5295C14.0679 46.2798 14.5944 46.4392 15.042 46.7384C15.4896 47.0377 15.8381 47.4633 16.0432 47.9612L18.7872 54.5909C18.99 55.0843 19.0424 55.6267 18.9378 56.1498C18.8332 56.6729 18.5762 57.1535 18.1992 57.5309L17.0967 58.6334L22.0898 63.651L23.1923 62.5485C23.5719 62.1669 24.0565 61.9067 24.5843 61.8012C25.1122 61.6956 25.6595 61.7494 26.1568 61.9556L32.7865 64.7045C33.2843 64.9096 33.7099 65.2581 34.0092 65.7057C34.3085 66.1533 34.4679 66.6798 34.4672 67.2182V68.7764Z" fill="#009AFF"/>
<path d="M37.9953 56.7175C35.2321 56.7175 32.531 55.8981 30.2335 54.3628C27.9361 52.8276 26.1455 50.6455 25.0883 48.0925C24.0311 45.5396 23.7548 42.7304 24.2942 40.0204C24.8336 37.3104 26.1646 34.8212 28.1188 32.8677C30.073 30.9141 32.5627 29.584 35.2729 29.0455C37.9831 28.5071 40.7922 28.7844 43.3447 29.8425C45.8973 30.9006 48.0788 32.6919 49.6132 34.9899C51.1477 37.2879 51.9662 39.9893 51.9652 42.7525C51.9613 46.4559 50.4881 50.0065 47.8689 52.6247C45.2497 55.2429 41.6987 56.7149 37.9953 56.7175ZM37.9953 31.7275C35.8138 31.7275 33.6813 32.3744 31.8674 33.5864C30.0536 34.7984 28.6398 36.521 27.805 38.5365C26.9702 40.5519 26.7517 42.7697 27.1773 44.9092C27.6029 47.0488 28.6534 49.0142 30.196 50.5567C31.7385 52.0993 33.7039 53.1498 35.8435 53.5754C37.9831 54.001 40.2008 53.7825 42.2163 52.9477C44.2317 52.1129 45.9543 50.6992 47.1663 48.8853C48.3783 47.0714 49.0252 44.9389 49.0252 42.7574C49.0239 39.8321 47.8616 37.0268 45.7935 34.9578C43.7254 32.8888 40.9207 31.7252 37.9953 31.7226V31.7275Z" fill="#009AFF"/>
</svg>
