<svg width="109" height="110" viewBox="0 0 109 110" fill="none" xmlns="http://www.w3.org/2000/svg">
<path d="M84.8566 24.915C83.8436 23.8177 82.6168 22.9434 81.2531 22.3472C79.8895 21.7509 78.4184 21.4454 76.9323 21.45H32.0734C30.5891 21.4477 29.12 21.7512 27.7561 22.3422C26.3923 22.9331 25.1624 23.7989 24.1418 24.8865C23.1212 25.9741 22.3315 27.2606 21.8211 28.6671C21.3107 30.0736 21.0902 31.5705 21.1734 33.066L23.506 79.585C23.6357 82.0067 24.6805 84.2861 26.4253 85.9538C28.1702 87.6216 30.4822 88.5507 32.8854 88.55H76.1148C78.5126 88.5482 80.8188 87.6209 82.5608 85.958C84.3027 84.2952 85.3484 82.0229 85.4834 79.607L87.816 33.1155C87.91 31.6165 87.6957 30.1141 87.1864 28.7028C86.6771 27.2915 85.8839 26.0019 84.8566 24.915ZM84.2353 32.901L81.9027 79.398C81.8138 80.8863 81.1654 82.2843 80.0897 83.3065C79.014 84.3287 77.5923 84.8979 76.1148 84.898H32.8854C31.4083 84.8966 29.9873 84.3269 28.9119 83.305C27.8365 82.2831 27.1877 80.8859 27.0975 79.398L24.7649 32.89C24.7077 31.8861 24.8544 30.8811 25.1959 29.9365C25.5375 28.9919 26.0667 28.1277 26.751 27.3969C27.4354 26.6661 28.2605 26.0841 29.1757 25.6866C30.0909 25.2891 31.077 25.0846 32.0734 25.0855H76.9323C77.929 25.0861 78.915 25.292 79.83 25.6907C80.745 26.0895 81.5696 26.6726 82.2534 27.4044C82.9372 28.1361 83.4657 29.0011 83.8065 29.9463C84.1473 30.8914 84.2932 31.8969 84.2353 32.901Z" fill="#009AFF"/>
<path d="M73.1926 33.7755C61.1322 29.2579 47.8659 29.2579 35.8056 33.7755C35.5764 33.8641 35.3677 33.9993 35.1924 34.1727C35.0171 34.3461 34.8789 34.5539 34.7864 34.7834C34.694 35.0128 34.6491 35.259 34.6548 35.5066C34.6604 35.7542 34.7163 35.9981 34.8191 36.223L42.4491 52.9705C42.6189 53.3448 42.9103 53.6492 43.2752 53.8333C43.64 54.0174 44.0562 54.07 44.4547 53.9825C51.0776 52.6038 57.9097 52.6038 64.5325 53.9825C64.656 54.0107 64.782 54.0254 64.9086 54.0265C65.2527 54.0267 65.5896 53.9274 65.8794 53.7402C66.1692 53.553 66.3997 53.2859 66.5436 52.9705L74.1736 36.223C74.2754 35.9976 74.3305 35.7536 74.3353 35.5059C74.3402 35.2582 74.2948 35.0122 74.2019 34.7829C74.1089 34.5536 73.9705 34.3459 73.795 34.1727C73.6196 33.9994 73.4109 33.8643 73.1817 33.7755H73.1926ZM63.8785 50.1655C61.2692 49.6882 58.6271 49.416 55.976 49.3515L54.3792 41.4645C54.2838 40.9941 54.0071 40.5811 53.6101 40.3166C53.213 40.052 52.728 39.9575 52.2619 40.0537C51.7957 40.15 51.3866 40.4292 51.1244 40.8299C50.8622 41.2307 50.7685 41.7201 50.8639 42.1905L52.3191 49.3735C49.9056 49.4664 47.5016 49.731 45.1251 50.1655L38.8957 36.5035C49.0382 33.174 59.9654 33.174 70.1079 36.5035L63.8785 50.1655Z" fill="white"/>
</svg>
