<svg width="98" height="98" viewBox="0 0 98 98" fill="none" xmlns="http://www.w3.org/2000/svg">
<path d="M24.9362 84.2114C24.5465 84.2111 24.1728 84.056 23.8974 83.7802L12.6813 72.5984C12.5424 72.4597 12.4327 72.2946 12.3586 72.1128C12.2846 71.9311 12.2477 71.7363 12.2501 71.54C12.2503 71.3459 12.2889 71.1537 12.3638 70.9745C12.4386 70.7954 12.5482 70.6329 12.6862 70.4963C13.3186 69.8724 14.0856 69.4018 14.9282 69.1207C15.7708 68.8395 16.6667 68.7553 17.547 68.8744L36.3532 50.1319C36.9501 49.5335 37.6645 49.0652 38.4513 48.7566C39.2381 48.4479 40.0803 48.3056 40.9249 48.3385C41.118 48.3456 41.3077 48.3906 41.4834 48.471C41.659 48.5515 41.8171 48.6657 41.9486 48.8072C42.0801 48.9487 42.1824 49.1147 42.2497 49.2958C42.3171 49.4768 42.3481 49.6694 42.341 49.8624C42.3339 50.0555 42.2889 50.2452 42.2085 50.4209C42.1281 50.5965 42.0139 50.7546 41.8723 50.8861C41.7308 51.0176 41.5648 51.1199 41.3838 51.1872C41.2027 51.2546 41.0102 51.2856 40.8171 51.2785C40.3762 51.2604 39.9363 51.3343 39.5255 51.4954C39.1147 51.6565 38.7419 51.9014 38.4308 52.2144L20.4723 70.1288L20.8545 70.5061C21.132 70.7803 21.2891 71.1535 21.2914 71.5436C21.2937 71.9337 21.141 72.3087 20.8668 72.5862C20.5926 72.8636 20.2194 73.0208 19.8293 73.0231C19.4392 73.0254 19.0642 72.8726 18.7867 72.5984C18.4397 72.2557 18.0108 72.0074 17.5409 71.8771C17.0709 71.7467 16.5755 71.7387 16.1015 71.8536L24.6471 80.36C24.7634 79.8907 24.7578 79.3995 24.6309 78.933C24.5039 78.4665 24.2599 78.0401 23.9219 77.6944L23.8876 77.665C23.6603 77.3811 23.5463 77.0231 23.5676 76.66C23.5889 76.297 23.7441 75.9547 24.0031 75.6994C24.262 75.4441 24.6065 75.2938 24.9698 75.2777C25.3331 75.2615 25.6895 75.3806 25.9701 75.6119L26.0093 75.6511L26.3621 76.0088L44.3255 58.1042C44.6381 57.7931 44.8824 57.4202 45.0427 57.0093C45.2031 56.5984 45.2759 56.1586 45.2565 55.7179C45.2422 55.328 45.3834 54.9485 45.6489 54.6627C45.9145 54.3769 46.2827 54.2083 46.6726 54.194C47.0625 54.1797 47.4421 54.3209 47.7278 54.5865C48.0136 54.852 48.1822 55.2202 48.1965 55.6101C48.2269 56.4551 48.0834 57.2973 47.7749 58.0846C47.4664 58.8718 46.9995 59.5873 46.4031 60.1867L27.6165 78.9145C27.6517 79.1793 27.6697 79.4461 27.6704 79.7132C27.6715 80.4715 27.5217 81.2225 27.2298 81.9224C26.9379 82.6223 26.5097 83.2572 25.9701 83.79C25.6943 84.061 25.3229 84.2124 24.9362 84.2114Z" fill="white"/>
<path d="M54.032 49.1764C53.7404 49.1771 53.4552 49.0911 53.2127 48.9293C52.9701 48.7675 52.7811 48.5373 52.6698 48.2678C52.5584 47.9983 52.5297 47.7019 52.5873 47.416C52.6449 47.1302 52.7862 46.868 52.9932 46.6627L61.3673 38.3033L58.2803 35.2212L49.8866 43.61C49.6104 43.8855 49.2361 44.04 48.846 44.0395C48.456 44.0391 48.082 43.8837 47.8065 43.6075C47.531 43.3314 47.3765 42.9571 47.377 42.567C47.3774 42.1769 47.5328 41.803 47.809 41.5275L57.2415 32.1244C57.5171 31.8491 57.8907 31.6945 58.2803 31.6945C58.6698 31.6945 59.0434 31.8491 59.3191 32.1244L64.4886 37.24C64.6257 37.3769 64.7344 37.5396 64.8084 37.7188C64.8824 37.8979 64.9202 38.0899 64.9198 38.2837C64.9194 38.6734 64.7643 39.0471 64.4886 39.3225L55.0708 48.7452C54.7954 49.0209 54.4217 49.176 54.032 49.1764Z" fill="white"/>
<path d="M73.6608 48.2307C73.2718 48.2317 72.8982 48.0784 72.622 47.8044L68.457 43.6443C68.2014 43.3877 68.0496 43.0457 68.0306 42.684C68.0116 42.3223 68.1268 41.9663 68.3541 41.6843C68.5942 41.3854 69.2704 40.3417 69.1626 39.5577C69.1367 39.3984 69.0758 39.2467 68.9843 39.1137C68.8928 38.9807 68.773 38.8696 68.6334 38.7884C66.9674 37.5928 64.3606 39.4695 64.3361 39.4891C64.0536 39.7018 63.7039 39.8055 63.3511 39.7812C62.9983 39.7569 62.666 39.6062 62.4153 39.3568L57.2409 34.1824C57.0178 33.959 56.8725 33.6697 56.8266 33.3573C56.7807 33.0448 56.8367 32.726 56.9861 32.4478C59.4018 27.9545 58.8138 27.1068 56.6382 23.9414C54.9624 21.4914 50.4201 21.1092 48.7982 21.1631C48.5753 21.1688 48.354 21.1236 48.1511 21.0311C47.9482 20.9385 47.769 20.801 47.6271 20.629C47.4838 20.4553 47.3823 20.2509 47.3305 20.0317C47.2786 19.8125 47.2779 19.5844 47.3282 19.3648L48.2249 15.4448C48.2841 15.1826 48.4141 14.9416 48.6007 14.7481C48.7873 14.5545 49.0234 14.4159 49.2833 14.3472C53.5904 13.2251 59.6909 13.9552 62.9494 14.4893C64.2617 14.6992 65.4742 15.3183 66.4137 16.2582L74.925 24.7499C75.6513 25.4745 76.1137 26.4217 76.2382 27.44L76.5028 29.498C76.5499 29.8232 76.6923 30.1271 76.9121 30.3713C77.1319 30.6155 77.4192 30.7891 77.7376 30.87L81.8291 31.9578C82.0824 32.0209 82.3132 32.1532 82.4955 32.34L85.3032 35.133C85.4403 35.2696 85.549 35.4319 85.6232 35.6105C85.6974 35.7892 85.7356 35.9808 85.7356 36.1743C85.7356 36.3677 85.6974 36.5593 85.6232 36.738C85.549 36.9167 85.4403 37.0789 85.3032 37.2155L74.6996 47.8044C74.4234 48.0784 74.0499 48.2317 73.6608 48.2307ZM71.3725 42.3997L73.6608 44.688L82.1966 36.1767L80.7266 34.7067L77.0075 33.7267C76.1132 33.5023 75.3073 33.0133 74.6953 32.3235C74.0834 31.6337 73.6938 30.7754 73.5775 29.8606L73.3129 27.8075C73.2678 27.434 73.0947 27.0877 72.8229 26.8275L64.3361 18.3652C63.8325 17.8582 63.1802 17.5252 62.4741 17.4146C60.2103 17.0422 54.786 16.3072 50.8807 17.0324L50.5916 18.2917C52.9779 18.5073 57.0204 19.3109 59.0588 22.2754C61.6362 26.019 62.4594 28.0378 60.078 32.8594L63.6991 36.4511C65.1985 35.6573 67.9719 34.6675 70.3729 36.3923C70.838 36.7147 71.2302 37.1312 71.524 37.6149C71.8177 38.0986 72.0065 38.6387 72.0781 39.2C72.1733 40.3135 71.9272 41.4295 71.3725 42.3997Z" fill="white"/>
<path d="M68.7038 28.8071C68.3148 28.808 67.9412 28.6547 67.665 28.3808L61.4126 22.1431C61.1523 21.865 61.01 21.4968 61.0158 21.1159C61.0216 20.7351 61.175 20.3713 61.4437 20.1013C61.7124 19.8314 62.0755 19.6762 62.4563 19.6686C62.8371 19.661 63.206 19.8015 63.4853 20.0606L69.7377 26.2983C69.9427 26.5036 70.0824 26.7649 70.1392 27.0495C70.196 27.334 70.1673 27.629 70.0567 27.8972C69.9462 28.1655 69.7587 28.395 69.518 28.5569C69.2772 28.7188 68.9939 28.8059 68.7038 28.8071Z" fill="white"/>
<path d="M76.1267 84.2114C75.2257 84.2134 74.3331 84.0379 73.4999 83.6949C72.6667 83.3518 71.9092 82.848 71.2708 82.2122L33.7074 44.7468C31.1957 45.4974 28.5281 45.5571 25.9852 44.9199C23.4424 44.2827 21.1183 42.972 19.2573 41.1257C17.0705 38.9585 15.6356 36.1476 15.163 33.1053C14.6903 30.063 15.2048 26.9493 16.6309 24.2207C16.7377 24.0156 16.8915 23.8386 17.0797 23.704C17.2678 23.5695 17.4851 23.4813 17.7138 23.4465C17.9413 23.4118 18.1737 23.4309 18.3924 23.5024C18.6112 23.5739 18.81 23.6958 18.9731 23.8581L25.6616 30.527L29.1602 27.0382L22.4815 20.3742C22.3175 20.2109 22.1945 20.0111 22.1223 19.7911C22.0502 19.5712 22.031 19.3373 22.0664 19.1085C22.1017 18.8798 22.1906 18.6626 22.3257 18.4747C22.4609 18.2868 22.6385 18.1334 22.8441 18.0271C25.373 16.7135 28.2328 16.174 31.0664 16.4759C33.9001 16.7778 36.582 17.9078 38.7773 19.7247C40.9727 21.5416 42.5842 23.965 43.4106 26.6922C44.237 29.4194 44.2417 32.3297 43.4241 35.0595L80.9777 72.52C81.9321 73.4802 82.5812 74.7013 82.843 76.0296C83.1049 77.3578 82.9678 78.7339 82.4492 79.9844C81.9305 81.235 81.0534 82.3041 79.9283 83.0572C78.8033 83.8102 77.4805 84.2135 76.1267 84.2163V84.2114ZM38.2203 45.1094L73.3337 80.1297C73.6978 80.4949 74.1305 80.7847 74.6068 80.9824C75.0831 81.1801 75.5938 81.2819 76.1095 81.2819C76.6253 81.2819 77.1359 81.1801 77.6123 80.9824C78.0886 80.7847 78.5212 80.4949 78.8854 80.1297C79.617 79.3951 80.0277 78.4005 80.0277 77.3637C80.0277 76.3269 79.617 75.3323 78.8854 74.5976L40.6654 36.4952C40.4651 36.2956 40.3267 36.0423 40.2667 35.766C40.2067 35.4896 40.2278 35.2018 40.3273 34.937C41.0793 32.9167 41.2514 30.7262 40.824 28.6132C40.3966 26.5002 39.3868 24.5488 37.9088 22.9795C36.4307 21.4101 34.5432 20.2854 32.4595 19.7324C30.3758 19.1794 28.179 19.2201 26.1173 19.8499L32.2815 25.9994C32.5572 26.2749 32.7123 26.6485 32.7127 27.0382C32.7132 27.232 32.6753 27.424 32.6013 27.6031C32.5273 27.7823 32.4186 27.945 32.2815 28.0819L26.7004 33.6434C26.4248 33.9187 26.0511 34.0733 25.6616 34.0733C25.272 34.0733 24.8984 33.9187 24.6228 33.6434L18.4537 27.489C17.8299 29.4941 17.7687 31.632 18.2767 33.6695C18.7848 35.707 19.8427 37.5658 21.3349 39.0432C22.9112 40.6076 24.9023 41.6881 27.0731 42.157C29.2438 42.6258 31.5034 42.4635 33.5849 41.6892C33.8485 41.5901 34.1351 41.5689 34.4104 41.6279C34.6858 41.687 34.9384 41.8239 35.1382 42.0224L38.2203 45.1094Z" fill="#009AFF"/>
<path d="M32.2216 37.0832C31.9315 37.082 31.6482 36.9949 31.4075 36.833C31.1667 36.6711 30.9793 36.4416 30.8687 36.1733C30.7582 35.9051 30.7295 35.6101 30.7862 35.3256C30.843 35.0411 30.9827 34.7797 31.1877 34.5744L33.2261 32.5409C33.51 32.3136 33.8681 32.1996 34.2311 32.2209C34.5942 32.2422 34.9364 32.3974 35.1917 32.6564C35.4471 32.9153 35.5973 33.2598 35.6135 33.6231C35.6296 33.9864 35.5106 34.3428 35.2792 34.6234L33.2408 36.6569C32.9694 36.9261 32.6039 37.079 32.2216 37.0832Z" fill="#009AFF"/>
<path d="M74.0889 78.8361C73.7973 78.8368 73.5121 78.7508 73.2696 78.589C73.027 78.4272 72.838 78.197 72.7267 77.9275C72.6153 77.658 72.5866 77.3616 72.6442 77.0757C72.7018 76.7899 72.8431 76.5277 73.0501 76.3224L75.0885 74.2889C75.2234 74.1448 75.3859 74.0293 75.5664 73.9494C75.747 73.8695 75.9417 73.8268 76.1391 73.8238C76.3365 73.8208 76.5324 73.8575 76.7153 73.9319C76.8981 74.0063 77.0641 74.1167 77.2034 74.2566C77.3426 74.3965 77.4523 74.563 77.5258 74.7463C77.5993 74.9295 77.6351 75.1256 77.6312 75.3229C77.6273 75.5203 77.5836 75.7148 77.5028 75.895C77.4221 76.0751 77.3059 76.2371 77.1612 76.3714L75.1228 78.4C74.8493 78.6763 74.4776 78.8331 74.0889 78.8361Z" fill="#009AFF"/>
</svg>
