<svg width="98" height="98" viewBox="0 0 98 98" fill="none" xmlns="http://www.w3.org/2000/svg">
<path d="M75.8327 85.8137H13.2303C13.0182 85.8159 12.8081 85.7721 12.6145 85.6854C12.4209 85.5988 12.2483 85.4712 12.1086 85.3115C11.969 85.1519 11.8655 84.9638 11.8054 84.7604C11.7453 84.557 11.7299 84.3429 11.7603 84.133L18.0176 40.3025C18.0675 39.9493 18.2442 39.6263 18.5146 39.3937C18.7851 39.1611 19.1309 39.0348 19.4876 39.0383H25.7351C26.125 39.0383 26.4989 39.1932 26.7746 39.4688C27.0502 39.7445 27.2051 40.1184 27.2051 40.5083C27.2051 40.8981 27.0502 41.272 26.7746 41.5477C26.4989 41.8234 26.125 41.9783 25.7351 41.9783H20.7469L14.9061 82.8737H75.8327C76.2226 82.8737 76.5965 83.0286 76.8722 83.3042C77.1478 83.5799 77.3027 83.9538 77.3027 84.3437C77.3027 84.7336 77.1478 85.1075 76.8722 85.3831C76.5965 85.6588 76.2226 85.8137 75.8327 85.8137Z" fill="#004D80"/>
<path d="M39.5085 85.8137C39.1518 85.8172 38.806 85.6909 38.5356 85.4583C38.2651 85.2257 38.0885 84.9027 38.0385 84.5495L31.9723 41.9783H25.7346C25.3448 41.9783 24.9709 41.8234 24.6952 41.5477C24.4195 41.272 24.2646 40.8981 24.2646 40.5083C24.2646 40.1184 24.4195 39.7445 24.6952 39.4688C24.9709 39.1932 25.3448 39.0383 25.7346 39.0383H33.2512C33.6079 39.0348 33.9538 39.1611 34.2242 39.3937C34.4947 39.6263 34.6713 39.9493 34.7212 40.3025L40.9638 84.133C40.9916 84.3241 40.9814 84.5188 40.9338 84.706C40.8863 84.8932 40.8023 85.0691 40.6867 85.2239C40.5712 85.3786 40.4262 85.509 40.2602 85.6077C40.0942 85.7064 39.9104 85.7714 39.7192 85.799C39.6494 85.8088 39.579 85.8137 39.5085 85.8137Z" fill="#004D80"/>
<path d="M52.0335 65.7727C51.6436 65.7727 51.2697 65.6178 50.994 65.3421C50.7183 65.0664 50.5635 64.6925 50.5635 64.3027V54.1597L37.6667 60.6081C37.4935 60.7018 37.3033 60.7597 37.1074 60.7785C36.9114 60.7973 36.7137 60.7765 36.5259 60.7175C36.3381 60.6584 36.1641 60.5622 36.0142 60.4346C35.8643 60.307 35.7415 60.1505 35.6532 59.9746C35.5649 59.7986 35.5129 59.6068 35.5001 59.4103C35.4874 59.2139 35.5143 59.0168 35.5791 58.831C35.644 58.6451 35.7455 58.4741 35.8777 58.3283C36.0099 58.1824 36.17 58.0645 36.3486 57.9817L51.3769 50.47C51.6008 50.3582 51.8497 50.3054 52.0997 50.3167C52.3498 50.328 52.5928 50.4029 52.8058 50.5344C53.0188 50.666 53.1947 50.8497 53.3168 51.0682C53.4389 51.2868 53.5031 51.5329 53.5035 51.7832V64.3076C53.5022 64.6966 53.3467 65.0692 53.0712 65.3439C52.7957 65.6185 52.4225 65.7727 52.0335 65.7727Z" fill="#004D80"/>
<path d="M67.0618 65.7727C66.6719 65.7727 66.298 65.6178 66.0223 65.3421C65.7467 65.0664 65.5918 64.6925 65.5918 64.3027V54.1597L52.695 60.6081C52.5219 60.7018 52.3317 60.7597 52.1357 60.7785C51.9397 60.7973 51.742 60.7765 51.5542 60.7175C51.3664 60.6584 51.1924 60.5622 51.0425 60.4346C50.8926 60.307 50.7699 60.1505 50.6816 59.9746C50.5933 59.7986 50.5412 59.6068 50.5285 59.4103C50.5157 59.2139 50.5426 59.0168 50.6074 58.831C50.6723 58.6451 50.7738 58.4741 50.906 58.3283C51.0382 58.1824 51.1983 58.0645 51.3769 57.9817L66.4052 50.47C66.6292 50.3582 66.878 50.3054 67.128 50.3167C67.3781 50.328 67.6212 50.4029 67.8342 50.5344C68.0471 50.666 68.223 50.8497 68.3451 51.0682C68.4672 51.2868 68.5315 51.5329 68.5318 51.7832V64.3076C68.5305 64.6966 68.3751 65.0692 68.0995 65.3439C67.824 65.6185 67.4508 65.7727 67.0618 65.7727Z" fill="#004D80"/>
<path d="M82.095 85.8137C81.7051 85.8137 81.3313 85.6588 81.0556 85.3831C80.7799 85.1075 80.625 84.7336 80.625 84.3437V54.1597L67.7233 60.6081C67.5502 60.7018 67.36 60.7597 67.164 60.7785C66.9681 60.7973 66.7703 60.7766 66.5825 60.7175C66.3947 60.6584 66.2207 60.5622 66.0708 60.4346C65.9209 60.307 65.7982 60.1506 65.7099 59.9746C65.6216 59.7987 65.5695 59.6068 65.5568 59.4103C65.5441 59.2139 65.5709 59.0169 65.6358 58.831C65.7006 58.6451 65.8021 58.4742 65.9343 58.3283C66.0665 58.1824 66.2266 58.0645 66.4052 57.9817L81.4335 50.47C81.6577 50.357 81.907 50.3034 82.1578 50.3141C82.4085 50.3248 82.6524 50.3995 82.8661 50.5312C83.0798 50.6629 83.2562 50.847 83.3785 51.0662C83.5009 51.2854 83.5651 51.5322 83.565 51.7832V84.3486C83.5637 84.7376 83.4083 85.1102 83.1327 85.3849C82.8572 85.6595 82.484 85.8137 82.095 85.8137Z" fill="#004D80"/>
<path d="M45.7708 72.03H43.2669C42.877 72.03 42.5031 71.8751 42.2274 71.5994C41.9517 71.3237 41.7969 70.9498 41.7969 70.56C41.7969 70.1701 41.9517 69.7962 42.2274 69.5205C42.5031 69.2448 42.877 69.09 43.2669 69.09H45.7708C46.1606 69.09 46.5345 69.2448 46.8102 69.5205C47.0859 69.7962 47.2408 70.1701 47.2408 70.56C47.2408 70.9498 47.0859 71.3237 46.8102 71.5994C46.5345 71.8751 46.1606 72.03 45.7708 72.03Z" fill="#006FB8"/>
<path d="M60.799 72.03H58.3098C57.92 72.03 57.5461 71.8751 57.2704 71.5994C56.9947 71.3237 56.8398 70.9498 56.8398 70.56C56.8398 70.1701 56.9947 69.7962 57.2704 69.5205C57.5461 69.2448 57.92 69.09 58.3098 69.09H60.8137C61.2036 69.09 61.5775 69.2448 61.8532 69.5205C62.1289 69.7962 62.2837 70.1701 62.2837 70.56C62.2837 70.9498 62.1289 71.3237 61.8532 71.5994C61.5775 71.8751 61.2036 72.03 60.8137 72.03H60.799Z" fill="#006FB8"/>
<path d="M75.8323 72.03H73.3235C72.9336 72.03 72.5597 71.8751 72.2841 71.5994C72.0084 71.3237 71.8535 70.9498 71.8535 70.56C71.8535 70.1701 72.0084 69.7962 72.2841 69.5205C72.5597 69.2448 72.9336 69.09 73.3235 69.09H75.8323C76.2222 69.09 76.5961 69.2448 76.8718 69.5205C77.1474 69.7962 77.3023 70.1701 77.3023 70.56C77.3023 70.9498 77.1474 71.3237 76.8718 71.5994C76.5961 71.8751 76.2222 72.03 75.8323 72.03Z" fill="#006FB8"/>
<path d="M38.0486 34.3441C36.1126 34.3739 34.2008 33.912 32.492 33.0015C32.1732 32.7945 31.9469 32.472 31.8607 32.1018C31.7745 31.7316 31.8351 31.3423 32.0297 31.0158C32.2244 30.6893 32.538 30.4509 32.9046 30.3506C33.2713 30.2503 33.6626 30.296 33.9963 30.478C34.2266 30.6103 39.5284 33.5699 46.0846 28.1064C50.0453 24.8746 53.1304 20.6993 55.0565 15.9642C52.7802 16.0106 50.5036 15.8878 48.2455 15.5967C44.4039 15.2047 40.0478 14.7588 36.0739 15.6457C33.2368 16.2729 31.2425 17.5665 30.1498 19.4873C28.1898 22.9516 29.6206 27.4792 29.6353 27.5233C29.7414 27.8884 29.7019 28.2804 29.5251 28.617C29.3482 28.9536 29.0479 29.2086 28.6871 29.3285C28.3262 29.4483 27.933 29.4237 27.5899 29.2598C27.2469 29.0959 26.9807 28.8054 26.8472 28.4494C26.7688 28.2142 24.9656 22.6723 27.5822 18.0516C29.1012 15.3713 31.7423 13.5926 35.4222 12.7743C39.8567 11.7943 44.4627 12.2549 48.5297 12.6714C51.6706 12.9899 54.6351 13.2937 56.6735 12.7841C56.8897 12.7298 57.1155 12.7254 57.3336 12.7713C57.5518 12.8171 57.7567 12.912 57.9328 13.0487C58.1125 13.1846 58.2585 13.36 58.3596 13.5614C58.4607 13.7628 58.5142 13.9847 58.5159 14.21C58.5159 15.7682 55.8797 23.7748 47.9662 30.38C44.2324 33.4768 40.7534 34.3441 38.0486 34.3441Z" fill="#004D80"/>
<path d="M25.7346 36.9705C25.3448 36.9705 24.9709 36.8156 24.6952 36.5399C24.4195 36.2643 24.2646 35.8904 24.2646 35.5005C24.2646 29.7087 29.831 17.7478 47.0251 17.7478C47.415 17.7478 47.7889 17.9027 48.0646 18.1784C48.3403 18.454 48.4951 18.8279 48.4951 19.2178C48.4951 19.6077 48.3403 19.9816 48.0646 20.2572C47.7889 20.5329 47.415 20.6878 47.0251 20.6878C32.0507 20.6878 27.2046 30.6642 27.2046 35.5005C27.2046 35.8904 27.0498 36.2643 26.7741 36.5399C26.4984 36.8156 26.1245 36.9705 25.7346 36.9705Z" fill="#006FB8"/>
</svg>
