<svg width="98" height="98" viewBox="0 0 98 98" fill="none" xmlns="http://www.w3.org/2000/svg">
<path d="M64.6403 89.2144H58.8436C58.1938 89.2144 57.5707 88.9562 57.1112 88.4968C56.6518 88.0373 56.3936 87.4141 56.3936 86.7644V85.7501L51.8905 83.8881L51.1604 84.6182C50.7025 85.0671 50.0867 85.3185 49.4454 85.3185C48.8041 85.3185 48.1884 85.0671 47.7304 84.6182L43.6095 80.512C43.1606 80.054 42.9092 79.4382 42.9092 78.797C42.9092 78.1557 43.1606 77.5399 43.6095 77.082L44.3788 76.3176C44.3234 75.9618 44.4004 75.598 44.5954 75.2952C44.7904 74.9925 45.0897 74.7718 45.4366 74.6751C45.7835 74.5785 46.1538 74.6124 46.4772 74.7707C46.8007 74.9289 47.0548 75.2004 47.1914 75.5336C47.374 75.9792 47.4212 76.4689 47.3271 76.9412C47.233 77.4136 47.0017 77.8477 46.6622 78.1894L46.0595 78.7921L49.4454 82.173L50.0628 81.5606C50.4045 81.2211 50.8386 80.9898 51.311 80.8957C51.7833 80.8016 52.2729 80.8487 52.7186 81.0313L57.8391 83.153C58.2838 83.3391 58.6637 83.6522 58.9313 84.0531C59.1989 84.4541 59.3422 84.925 59.3434 85.4071V86.2744H64.1307V85.4071C64.1319 84.925 64.2753 84.4541 64.5429 84.0531C64.8105 83.6522 65.1904 83.3391 65.635 83.153L70.7604 81.0313C71.2061 80.8487 71.6957 80.8016 72.1681 80.8957C72.6404 80.9898 73.0746 81.2211 73.4162 81.5606L74.0287 82.173L77.4146 78.7921L76.8021 78.1746C76.4626 77.833 76.2314 77.3989 76.1372 76.9265C76.0431 76.4542 76.0903 75.9645 76.2729 75.5189L78.3995 70.3935C78.5853 69.9496 78.8976 69.5702 79.2976 69.3027C79.6975 69.0351 80.1674 68.8913 80.6486 68.8892H81.5208V64.1068H80.6486C80.1674 64.1046 79.6975 63.9608 79.2976 63.6932C78.8976 63.4257 78.5853 63.0464 78.3995 62.6025L76.2778 57.4771C76.0946 57.0318 76.0466 56.5425 76.1399 56.0702C76.2331 55.5978 76.4635 55.1634 76.8021 54.8213L77.4195 54.2039L74.0336 50.8229L73.4211 51.4501C73.0795 51.7895 72.6453 52.0208 72.173 52.1149C71.7006 52.2091 71.211 52.1619 70.7653 51.9793C70.4333 51.8423 70.1629 51.5886 70.0052 51.2659C69.8475 50.9432 69.8133 50.574 69.9092 50.2279C70.0051 49.8818 70.2243 49.5827 70.5256 49.3872C70.8269 49.1917 71.1893 49.1132 71.5444 49.1667L72.3137 48.4023C72.7717 47.9533 73.3874 47.7019 74.0287 47.7019C74.67 47.7019 75.2858 47.9533 75.7437 48.4023L79.8401 52.4987C80.289 52.9566 80.5405 53.5724 80.5405 54.2137C80.5405 54.8549 80.289 55.4707 79.8401 55.9287L79.1051 56.6588L80.972 61.1668H82.0108C82.6606 61.1668 83.2838 61.4249 83.7432 61.8843C84.2027 62.3438 84.4608 62.967 84.4608 63.6168V69.4086C84.4608 70.0583 84.2027 70.6815 83.7432 71.141C83.2838 71.6004 82.6606 71.8585 82.0108 71.8585H80.972L79.1051 76.3666L79.8401 77.0967C80.289 77.5546 80.5405 78.1704 80.5405 78.8117C80.5405 79.4529 80.289 80.0687 79.8401 80.5266L75.7437 84.6231C75.2858 85.072 74.67 85.3234 74.0287 85.3234C73.3874 85.3234 72.7717 85.072 72.3137 84.6231L71.5787 83.893L67.0756 85.7549V86.7938C67.0679 87.4359 66.8084 88.0493 66.353 88.502C65.8975 88.9548 65.2825 89.2105 64.6403 89.2144Z" fill="#006FB8"/>
<path d="M61.7404 77.9688C59.7283 77.9643 57.7524 77.4326 56.0098 76.4268C54.2671 75.4209 52.8184 73.9759 51.8081 72.2358C51.6323 71.8999 51.5932 71.509 51.6988 71.1449C51.8045 70.7807 52.0467 70.4715 52.375 70.2818C52.7032 70.092 53.0921 70.0365 53.4604 70.1267C53.8286 70.2169 54.1478 70.4459 54.3512 70.7658C55.0051 71.8996 55.9112 72.8676 56.9992 73.5951C58.0873 74.3225 59.3281 74.7899 60.6257 74.961C61.9233 75.1321 63.2428 75.0023 64.4822 74.5817C65.7216 74.1611 66.8476 73.461 67.7731 72.5355C68.6986 71.6101 69.3987 70.4841 69.8193 69.2447C70.2399 68.0053 70.3696 66.6857 70.1985 65.3881C70.0274 64.0905 69.5601 62.8497 68.8326 61.7617C68.1052 60.6737 67.1371 59.7676 66.0034 59.1136C65.6834 58.9102 65.4544 58.5911 65.3642 58.2228C65.274 57.8545 65.3296 57.4657 65.5193 57.1374C65.7091 56.8092 66.0183 56.5669 66.3824 56.4613C66.7466 56.3557 67.1374 56.3948 67.4734 56.5705C69.6567 57.8345 71.3625 59.7829 72.3266 62.1142C73.2907 64.4455 73.4594 67.0297 72.8065 69.4665C72.1536 71.9034 70.7156 74.057 68.7151 75.5941C66.7146 77.1311 64.2632 77.9658 61.7404 77.9688Z" fill="#006FB8"/>
<path d="M74.3084 44.2224H71.7408C71.3509 44.2224 70.977 44.0676 70.7013 43.7919C70.4257 43.5162 70.2708 43.1423 70.2708 42.7524C70.2708 42.3626 70.4257 41.9887 70.7013 41.713C70.977 41.4373 71.3509 41.2824 71.7408 41.2824H73.7008C73.7211 40.8419 73.8665 40.4162 74.1199 40.0553C74.3733 39.6943 74.7242 39.4129 75.1316 39.244L78.3656 37.9063C78.7723 37.7373 79.2187 37.6876 79.6526 37.7631C80.0865 37.8386 80.4899 38.0361 80.8156 38.3326L83.5792 35.569C83.2811 35.2443 83.0825 34.8408 83.0069 34.4065C82.9314 33.9722 82.982 33.5254 83.1529 33.119L84.4857 29.8899C84.6535 29.4823 84.9338 29.1309 85.2939 28.8767C85.6539 28.6224 86.0789 28.4759 86.5192 28.4542V24.5342C86.0793 24.5136 85.6545 24.368 85.2943 24.1146C84.9342 23.8612 84.6537 23.5105 84.4857 23.1034L83.148 19.8743C82.9783 19.4678 82.9283 19.0212 83.0038 18.5872C83.0793 18.1531 83.2773 17.7497 83.5743 17.4243L80.8107 14.6607C80.4856 14.9583 80.0822 15.1566 79.648 15.2321C79.2139 15.3076 78.7671 15.2573 78.3607 15.087L75.1267 13.7493C74.7197 13.5813 74.3689 13.3008 74.1155 12.9407C73.8621 12.5806 73.7166 12.1557 73.6959 11.7158H69.7759C69.7548 12.1563 69.6085 12.5815 69.3542 12.9417C69.0999 13.3019 68.7481 13.5821 68.3402 13.7493L65.1111 15.087C64.7047 15.2579 64.2579 15.3086 63.8236 15.233C63.3893 15.1574 62.9858 14.9588 62.6611 14.6607L60.2699 17.0617C60.1335 17.1985 59.9715 17.307 59.7931 17.3811C59.6147 17.4553 59.4235 17.4935 59.2304 17.4938C59.0372 17.494 58.8459 17.4562 58.6674 17.3825C58.4888 17.3088 58.3266 17.2006 58.1898 17.0642C58.0531 16.9278 57.9446 16.7658 57.8704 16.5874C57.7963 16.409 57.758 16.2178 57.7578 16.0247C57.7576 15.8315 57.7954 15.6402 57.8691 15.4617C57.9428 15.2832 58.051 15.1209 58.1874 14.9841L61.0147 12.1617C61.2304 11.9456 61.4867 11.7741 61.7688 11.6571C62.0508 11.5401 62.3532 11.4798 62.6586 11.4798C62.964 11.4798 63.2664 11.5401 63.5485 11.6571C63.8306 11.7741 64.0868 11.9456 64.3026 12.1617L64.3663 12.2254L66.8163 11.2013V11.1082C66.8176 10.4918 67.0634 9.90105 67.4997 9.46562C67.9361 9.03019 68.5273 8.78564 69.1438 8.78564H74.2741C74.8897 8.78694 75.4797 9.03206 75.915 9.46735C76.3503 9.90264 76.5954 10.4927 76.5967 11.1082V11.2013L79.1055 12.2499L79.1692 12.1862C79.6055 11.7509 80.1967 11.5064 80.8131 11.5064C81.4295 11.5064 82.0207 11.7509 82.4571 12.1862L86.0831 15.8122C86.5184 16.2486 86.763 16.8398 86.763 17.4562C86.763 18.0726 86.5184 18.6638 86.0831 19.1001L86.0194 19.1638L87.0435 21.6138H87.1366C87.4416 21.6138 87.7436 21.6739 88.0254 21.7906C88.3072 21.9074 88.5632 22.0784 88.7789 22.2941C88.9946 22.5098 89.1657 22.7658 89.2824 23.0476C89.3991 23.3294 89.4592 23.6314 89.4592 23.9364V29.0667C89.4592 29.6832 89.2146 30.2745 88.7792 30.7108C88.3438 31.1472 87.753 31.3929 87.1366 31.3942H87.0435L86.0194 33.8442L86.0831 33.9079C86.2992 34.1237 86.4707 34.3799 86.5877 34.662C86.7048 34.9441 86.765 35.2465 86.765 35.5519C86.765 35.8573 86.7048 36.1597 86.5877 36.4418C86.4707 36.7239 86.2992 36.9801 86.0831 37.1958L82.4571 40.8267C82.0207 41.2621 81.4295 41.5066 80.8131 41.5066C80.1967 41.5066 79.6055 41.2621 79.1692 40.8267L79.1055 40.763L76.631 41.7822V41.8753C76.6336 42.1822 76.5754 42.4866 76.4599 42.7709C76.3444 43.0553 76.1738 43.3139 75.958 43.5321C75.7421 43.7502 75.4852 43.9235 75.2021 44.042C74.919 44.1605 74.6153 44.2218 74.3084 44.2224Z" fill="#006FB8"/>
<path d="M71.7603 34.8292C70.7154 34.8303 69.6797 34.6341 68.7076 34.251C68.5233 34.1837 68.3543 34.0802 68.2106 33.9466C68.0669 33.813 67.9514 33.652 67.8709 33.473C67.7905 33.2941 67.7466 33.1008 67.742 32.9047C67.7374 32.7085 67.7721 32.5134 67.844 32.3309C67.916 32.1483 68.0238 31.9821 68.161 31.8418C68.2983 31.7016 68.4622 31.5903 68.6431 31.5144C68.8241 31.4385 69.0184 31.3996 69.2146 31.4001C69.4108 31.4005 69.605 31.4401 69.7856 31.5168C70.735 31.8857 71.7695 31.9782 72.7693 31.7833C73.769 31.5885 74.6931 31.1143 75.4344 30.4158C76.1758 29.7173 76.704 28.8231 76.958 27.8367C77.2119 26.8503 77.1812 25.8121 76.8693 24.8425C76.5574 23.8728 75.9772 23.0114 75.1958 22.358C74.4144 21.7046 73.4639 21.286 72.4543 21.1506C71.4448 21.0153 70.4175 21.1688 69.4917 21.5934C68.5658 22.0179 67.7791 22.6961 67.2229 23.5494C66.9935 23.8291 66.6689 24.0145 66.3114 24.0699C65.9539 24.1253 65.5884 24.0469 65.2851 23.8497C64.9817 23.6526 64.7617 23.3504 64.6672 23.0012C64.5727 22.6519 64.6104 22.2801 64.7729 21.9569C65.5594 20.7478 66.6465 19.7636 67.9276 19.1008C69.2087 18.438 70.64 18.1191 72.0813 18.1756C73.5226 18.232 74.9246 18.6617 76.1499 19.4227C77.3753 20.1836 78.3821 21.2497 79.0717 22.5166C79.7613 23.7835 80.1102 25.2077 80.0841 26.6499C80.058 28.0921 79.6578 29.5028 78.9228 30.7439C78.1878 31.985 77.1431 33.014 75.891 33.7301C74.6389 34.4462 73.2223 34.8249 71.7799 34.8292H71.7603Z" fill="#006FB8"/>
<path d="M41.7476 71.7164H34.2457C33.5248 71.7151 32.8339 71.4282 32.3241 70.9184C31.8144 70.4087 31.5275 69.7178 31.5262 68.9969V67.3652L25.1562 64.729L24.0096 65.8854C23.4989 66.3944 22.8073 66.6802 22.0863 66.6802C21.3653 66.6802 20.6737 66.3944 20.1631 65.8854L14.8613 60.5836C14.3523 60.0729 14.0665 59.3813 14.0665 58.6603C14.0665 57.9394 14.3523 57.2478 14.8613 56.7371L16.0177 55.5807L13.3815 49.2107H11.7596C11.0387 49.2094 10.3478 48.9225 9.83803 48.4127C9.32831 47.903 9.04137 47.2121 9.04008 46.4912V38.9991C9.03814 38.6405 9.10702 38.285 9.24276 37.9531C9.3785 37.6212 9.57843 37.3194 9.83109 37.0649C10.0837 36.8104 10.3842 36.6083 10.7151 36.4702C11.046 36.3321 11.401 36.2606 11.7596 36.26H13.3913L16.0275 29.89L14.8711 28.7385C14.3621 28.2278 14.0763 27.5362 14.0763 26.8152C14.0763 26.0942 14.3621 25.4027 14.8711 24.892L20.1631 19.6C20.6737 19.091 21.3653 18.8052 22.0863 18.8052C22.8073 18.8052 23.4989 19.091 24.0096 19.6L25.166 20.7564L31.536 18.1202V16.5032C31.5373 15.7823 31.8242 15.0914 32.3339 14.5816C32.8437 14.0719 33.5346 13.785 34.2555 13.7837H41.7476C42.4684 13.785 43.1594 14.0719 43.6691 14.5816C44.1788 15.0914 44.4658 15.7823 44.4671 16.5032V18.13L50.8371 20.7662L51.9788 19.6C52.4894 19.091 53.181 18.8052 53.902 18.8052C54.623 18.8052 55.3146 19.091 55.8253 19.6L61.132 24.9067C61.641 25.4174 61.9267 26.1089 61.9267 26.8299C61.9267 27.5509 61.641 28.2425 61.132 28.7532L59.9756 29.9047L62.6118 36.2747H64.2435C64.9643 36.276 65.6553 36.5629 66.165 37.0726C66.6747 37.5824 66.9617 38.2733 66.963 38.9942V46.501C66.9617 47.2219 66.6747 47.9128 66.165 48.4225C65.6553 48.9323 64.9643 49.2192 64.2435 49.2205H62.6118L59.9756 55.5905L61.132 56.7469C61.641 57.2576 61.9267 57.9492 61.9267 58.6701C61.9267 59.3911 61.641 60.0827 61.132 60.5934L55.8253 65.8952C55.3146 66.4042 54.623 66.69 53.902 66.69C53.181 66.69 52.4894 66.4042 51.9788 65.8952L50.8273 64.7388L44.4573 67.375V69.0067C44.4534 69.7242 44.1667 70.4111 43.6594 70.9185C43.152 71.4258 42.465 71.7125 41.7476 71.7164ZM34.4662 68.7764H41.5271V67.2182C41.5259 66.6803 41.6846 66.1542 41.983 65.7067C42.2813 65.2591 42.7059 64.9103 43.2029 64.7045L49.8375 61.9605C50.3341 61.753 50.8813 61.6981 51.4093 61.8028C51.9373 61.9075 52.4221 62.1671 52.802 62.5485L53.8996 63.651L58.8927 58.6579L57.8196 57.5554C57.4423 57.1781 57.1848 56.6979 57.0793 56.1749C56.9738 55.6519 57.0251 55.1094 57.2267 54.6154L59.9756 47.9857C60.1796 47.4871 60.5278 47.0607 60.9756 46.7613C61.4235 46.4618 61.9505 46.3029 62.4893 46.305H64.0475V39.2H62.4893C61.9511 39.2024 61.4244 39.0443 60.9767 38.7458C60.5289 38.4472 60.1803 38.0219 59.9756 37.5242L57.2267 30.8896C57.0208 30.3931 56.9673 29.8466 57.0729 29.3196C57.1785 28.7926 57.4384 28.3089 57.8196 27.93L58.9221 26.8275L53.8996 21.8491L52.7971 22.9516C52.4178 23.3338 51.9332 23.5943 51.4052 23.6999C50.8772 23.8055 50.3297 23.7514 49.8326 23.5445L43.2029 20.7956C42.7056 20.5903 42.2806 20.2416 41.9822 19.794C41.6837 19.3463 41.5253 18.8199 41.5271 18.2819V16.7237H34.4662V18.2819C34.4676 18.8205 34.3084 19.3473 34.0091 19.795C33.7097 20.2427 33.2837 20.5911 32.7855 20.7956L26.1558 23.5445C25.6587 23.7514 25.1112 23.8055 24.5832 23.6999C24.0552 23.5943 23.5706 23.3338 23.1913 22.9516L22.0888 21.8491L17.0957 26.8422L18.1982 27.93C18.5746 28.3078 18.8313 28.7883 18.9359 29.3113C19.0404 29.8342 18.9884 30.3765 18.7862 30.87L16.0422 37.5046C15.8394 38.0052 15.4919 38.4339 15.0441 38.7359C14.5963 39.038 14.0686 39.1995 13.5285 39.2H11.9703V46.2805H13.5285C14.0669 46.2798 14.5934 46.4392 15.041 46.7384C15.4886 47.0377 15.8371 47.4633 16.0422 47.9612L18.7862 54.5909C18.989 55.0843 19.0414 55.6267 18.9368 56.1498C18.8322 56.6729 18.5752 57.1535 18.1982 57.5309L17.0957 58.6334L22.0888 63.651L23.1913 62.5485C23.5709 62.1669 24.0555 61.9067 24.5834 61.8012C25.1112 61.6956 25.6585 61.7494 26.1558 61.9556L32.7855 64.7045C33.2833 64.9096 33.709 65.2581 34.0082 65.7057C34.3075 66.1533 34.4669 66.6798 34.4662 67.2182V68.7764Z" fill="#004D80"/>
<path d="M37.9943 56.7175C35.2311 56.7175 32.53 55.8981 30.2326 54.3628C27.9351 52.8276 26.1446 50.6455 25.0873 48.0925C24.0301 45.5396 23.7538 42.7304 24.2932 40.0204C24.8326 37.3104 26.1636 34.8212 28.1178 32.8677C30.0721 30.9141 32.5617 29.584 35.2719 29.0455C37.9822 28.5071 40.7912 28.7844 43.3438 29.8425C45.8963 30.9006 48.0778 32.6919 49.6123 34.9899C51.1467 37.2879 51.9652 39.9893 51.9642 42.7525C51.9603 46.4559 50.4871 50.0065 47.8679 52.6247C45.2488 55.2429 41.6977 56.7149 37.9943 56.7175ZM37.9943 31.7275C35.8128 31.7275 33.6803 32.3744 31.8664 33.5864C30.0526 34.7984 28.6388 36.521 27.804 38.5365C26.9692 40.5519 26.7508 42.7697 27.1764 44.9092C27.6019 47.0488 28.6524 49.0142 30.195 50.5567C31.7376 52.0993 33.7029 53.1498 35.8425 53.5754C37.9821 54.001 40.1998 53.7825 42.2153 52.9477C44.2307 52.1129 45.9534 50.6992 47.1653 48.8853C48.3773 47.0714 49.0242 44.9389 49.0242 42.7574C49.0229 39.8321 47.8606 37.0268 45.7925 34.9578C43.7244 32.8888 40.9197 31.7252 37.9943 31.7226V31.7275Z" fill="#004D80"/>
</svg>
