<svg width="109" height="110" viewBox="0 0 109 110" fill="none" xmlns="http://www.w3.org/2000/svg">
<path d="M71.471 38.61C71.0375 38.6096 70.6219 38.4355 70.3156 38.126L64.5931 32.351C64.3043 32.0382 64.1471 31.6245 64.1546 31.1971C64.162 30.7696 64.3336 30.3618 64.6332 30.0594C64.9327 29.7571 65.3369 29.584 65.7605 29.5764C66.184 29.5689 66.594 29.7276 66.9039 30.019L71.471 34.65L76.0327 30.0465C76.3426 29.7551 76.7525 29.5964 77.1761 29.6039C77.5997 29.6115 78.0038 29.7846 78.3034 30.0869C78.603 30.3893 78.7746 30.7971 78.782 31.2246C78.7895 31.652 78.6323 32.0657 78.3435 32.3785L72.6264 38.1535C72.3157 38.453 71.9006 38.617 71.471 38.61Z" fill="white"/>
<path d="M52.3196 46.6785C51.9225 46.6787 51.5388 46.5331 51.2403 46.2687C50.9417 46.0044 50.7487 45.6394 50.6973 45.242C50.6459 44.8445 50.7397 44.4418 50.961 44.109C51.1823 43.7762 51.5161 43.5361 51.9 43.4335L58.1348 41.7505L56.4616 35.4585C56.3496 35.0354 56.4087 34.5848 56.6259 34.2058C56.8431 33.8267 57.2006 33.5503 57.6198 33.4372C58.0389 33.3242 58.4854 33.3838 58.861 33.603C59.2367 33.8221 59.5106 34.1829 59.6226 34.606L61.7154 42.4875C61.7715 42.6969 61.786 42.9155 61.7583 43.1306C61.7305 43.3458 61.661 43.5533 61.5537 43.7413C61.4464 43.9293 61.3034 44.0941 61.1329 44.2262C60.9624 44.3584 60.7677 44.4553 60.56 44.5115L52.7502 46.6235C52.6097 46.661 52.4649 46.6795 52.3196 46.6785Z" fill="white"/>
<path d="M57.9878 65.923C57.7367 65.9233 57.4889 65.8652 57.2636 65.7532C57.0384 65.6413 56.8417 65.4784 56.6888 65.2774C56.536 65.0763 56.4311 64.8424 56.3823 64.5939C56.3334 64.3453 56.342 64.0887 56.4073 63.844L58.075 57.552L51.8402 55.8635C51.6265 55.8133 51.425 55.7201 51.2477 55.5897C51.0704 55.4592 50.921 55.294 50.8083 55.104C50.6956 54.914 50.6219 54.703 50.5917 54.4837C50.5615 54.2644 50.5754 54.0411 50.6325 53.8273C50.6896 53.6135 50.7887 53.4135 50.924 53.2391C51.0593 53.0648 51.228 52.9197 51.42 52.8126C51.6121 52.7054 51.8235 52.6384 52.0418 52.6154C52.26 52.5925 52.4806 52.6141 52.6904 52.679L60.4948 54.791C60.913 54.9045 61.2695 55.1807 61.4861 55.5591C61.7027 55.9376 61.7617 56.3873 61.6502 56.8095L59.5574 64.6965C59.4653 65.0464 59.2618 65.3561 58.9781 65.5777C58.6945 65.7993 58.3465 65.9207 57.9878 65.923Z" fill="white"/>
<path d="M77.0637 69.85C76.631 69.8511 76.2156 69.679 75.9083 69.3715L71.3467 64.7625L66.7796 69.3715C66.4724 69.6808 66.0561 69.8542 65.6223 69.8537C65.1884 69.8532 64.7725 69.6788 64.4661 69.3688C64.1596 69.0588 63.9878 68.6387 63.9883 68.2008C63.9888 67.763 64.1616 67.3433 64.4688 67.034L70.1913 61.2645C70.4979 60.9555 70.9134 60.782 71.3467 60.782C71.78 60.782 72.1955 60.9555 72.5021 61.2645L78.2191 67.034C78.4475 67.2648 78.603 67.5587 78.666 67.8785C78.7289 68.1984 78.6966 68.5299 78.5729 68.8313C78.4493 69.1326 78.24 69.3902 77.9713 69.5715C77.7027 69.7528 77.3869 69.8497 77.0637 69.85Z" fill="white"/>
<path d="M84.7633 66.0275C84.4034 66.0279 84.0535 65.9085 83.7677 65.6877C83.4819 65.467 83.2763 65.1572 83.1828 64.8065L81.09 56.9195C81.0348 56.7101 81.0211 56.4917 81.0496 56.2769C81.0781 56.0621 81.1483 55.8551 81.2561 55.6676C81.3639 55.4802 81.5072 55.316 81.6779 55.1845C81.8486 55.0529 82.0433 54.9566 82.2508 54.901L90.0607 52.8C90.2713 52.7327 90.4932 52.7092 90.7131 52.7308C90.933 52.7525 91.1463 52.8189 91.34 52.926C91.5338 53.0331 91.704 53.1788 91.8404 53.3541C91.9768 53.5295 92.0766 53.731 92.1338 53.9463C92.1909 54.1617 92.2042 54.3865 92.1728 54.6072C92.1415 54.8279 92.0661 55.0399 91.9513 55.2304C91.8365 55.4209 91.6846 55.5859 91.5049 55.7155C91.3251 55.8452 91.1212 55.9367 90.9054 55.9845L84.6761 57.673L86.3438 63.965C86.4081 64.2094 86.4159 64.4653 86.3666 64.7132C86.3173 64.9611 86.2122 65.1942 86.0595 65.3946C85.9068 65.5949 85.7104 65.7572 85.4857 65.8689C85.2609 65.9805 85.0138 66.0386 84.7633 66.0385V66.0275Z" fill="white"/>
<path d="M90.5472 46.7885C90.4056 46.7886 90.2645 46.7701 90.1276 46.7335L82.2959 44.6215C82.0883 44.5654 81.8936 44.4684 81.7231 44.3363C81.5526 44.2041 81.4096 44.0393 81.3023 43.8513C81.1949 43.6633 81.1254 43.4558 81.0977 43.2407C81.0699 43.0255 81.0845 42.807 81.1405 42.5975L83.2333 34.716C83.2808 34.4983 83.3714 34.2925 83.4999 34.1111C83.6283 33.9296 83.7919 33.7764 83.9806 33.6605C84.1694 33.5447 84.3794 33.4686 84.5981 33.437C84.8168 33.4053 85.0396 33.4188 85.253 33.4764C85.4664 33.5341 85.666 33.6348 85.8398 33.7724C86.0136 33.9101 86.1579 34.0819 86.2641 34.2774C86.3702 34.473 86.436 34.6882 86.4575 34.9101C86.4789 35.132 86.4556 35.356 86.3889 35.5685L84.7212 41.8605L90.956 43.5435C91.3404 43.6462 91.6745 43.8868 91.8958 44.2202C92.1171 44.5536 92.2104 44.957 92.1583 45.3548C92.1062 45.7526 91.9122 46.1176 91.6126 46.3815C91.3131 46.6454 90.9285 46.7901 90.5309 46.7885H90.5472Z" fill="white"/>
<path d="M71.3948 45.4576C70.9611 45.4576 70.5453 45.2837 70.2386 44.9743C69.932 44.6648 69.7598 44.2452 69.7598 43.8076V25.9656C69.7598 25.5279 69.932 25.1083 70.2386 24.7988C70.5453 24.4894 70.9611 24.3156 71.3948 24.3156C71.8284 24.3156 72.2443 24.4894 72.5509 24.7988C72.8575 25.1083 73.0298 25.5279 73.0298 25.9656V43.8076C73.0298 44.2452 72.8575 44.6648 72.5509 44.9743C72.2443 45.2837 71.8284 45.4576 71.3948 45.4576Z" fill="white"/>
<path d="M66.3546 48.4001C66.0654 48.3997 65.7814 48.3219 65.5317 48.1746L50.2717 39.2206C50.0763 39.1174 49.9036 38.9754 49.764 38.8032C49.6244 38.6309 49.5207 38.432 49.4593 38.2182C49.3978 38.0045 49.3799 37.7805 49.4065 37.5596C49.4331 37.3387 49.5036 37.1255 49.614 36.9328C49.7244 36.7401 49.8722 36.572 50.0486 36.4385C50.225 36.305 50.4264 36.2088 50.6405 36.1559C50.8547 36.103 51.0773 36.0943 51.2949 36.1304C51.5125 36.1665 51.7206 36.2467 51.9067 36.3661L67.1721 45.3201C67.4817 45.5026 67.7231 45.7828 67.8594 46.1175C67.9957 46.4522 68.0191 46.8228 67.9262 47.1722C67.8333 47.5217 67.6291 47.8306 67.3452 48.0515C67.0612 48.2723 66.7131 48.3929 66.3546 48.3946V48.4001Z" fill="white"/>
<path d="M51.0062 63.1785C50.6446 63.1799 50.2928 63.0602 50.0058 62.8383C49.7188 62.6164 49.5128 62.3047 49.42 61.9521C49.3272 61.5995 49.3528 61.2257 49.4929 60.8894C49.633 60.553 49.8796 60.2729 50.1941 60.093L65.525 51.2105C65.9008 50.9917 66.3473 50.9326 66.7664 51.046C67.1854 51.1595 67.5427 51.4363 67.7595 51.8155C67.9763 52.1948 68.0349 52.6454 67.9225 53.0683C67.8101 53.4912 67.5358 53.8517 67.16 54.0705L51.8182 62.9585C51.5712 63.1021 51.2912 63.1779 51.0062 63.1785Z" fill="white"/>
<path d="M71.3948 75.097C70.9611 75.097 70.5453 74.9231 70.2386 74.6137C69.932 74.3042 69.7598 73.8846 69.7598 73.447V55.605C69.7598 55.1673 69.932 54.7477 70.2386 54.4382C70.5453 54.1288 70.9611 53.955 71.3948 53.955C71.8284 53.955 72.2443 54.1288 72.5509 54.4382C72.8575 54.7477 73.0298 55.1673 73.0298 55.605V73.447C73.0298 73.8846 72.8575 74.3042 72.5509 74.6137C72.2443 74.9231 71.8284 75.097 71.3948 75.097Z" fill="white"/>
<path d="M91.751 63.25C91.4625 63.2493 91.1791 63.1735 90.9281 63.03L75.6408 54.0925C75.4454 53.9894 75.2727 53.8474 75.1331 53.6751C74.9935 53.5029 74.8899 53.3039 74.8284 53.0902C74.767 52.8765 74.749 52.6524 74.7756 52.4315C74.8022 52.2106 74.8728 51.9974 74.9831 51.8047C75.0935 51.6121 75.2413 51.4439 75.4177 51.3104C75.5941 51.1769 75.7955 51.0808 76.0097 51.0278C76.2239 50.9749 76.4464 50.9662 76.664 51.0023C76.8816 51.0385 77.0897 51.1186 77.2758 51.238L92.5685 60.1975C92.8784 60.3803 93.1201 60.661 93.2563 60.9962C93.3924 61.3314 93.4155 61.7026 93.3219 62.0523C93.2282 62.402 93.0232 62.711 92.7383 62.9314C92.4534 63.1518 92.1045 63.2715 91.7456 63.272L91.751 63.25Z" fill="white"/>
<path d="M76.4747 48.4C76.1145 48.4004 75.7642 48.2807 75.4782 48.0595C75.1923 47.8383 74.9868 47.528 74.8936 47.1769C74.8004 46.8257 74.8247 46.4533 74.9628 46.1175C75.1009 45.7817 75.345 45.5013 75.6572 45.32L91.0153 36.4539C91.2014 36.3456 91.4068 36.2753 91.6198 36.2471C91.8328 36.2189 92.0492 36.2332 92.2567 36.2894C92.4642 36.3456 92.6587 36.4425 92.8291 36.5745C92.9995 36.7065 93.1425 36.8712 93.2498 37.0589C93.3572 37.2467 93.4268 37.454 93.4548 37.669C93.4828 37.8839 93.4685 38.1024 93.4128 38.3117C93.3572 38.5211 93.2612 38.7174 93.1304 38.8894C92.9995 39.0613 92.8364 39.2056 92.6503 39.314L77.2868 48.2019C77.0376 48.3378 76.7578 48.406 76.4747 48.4Z" fill="white"/>
<path d="M24.1863 35.4696H20.7092C20.2756 35.4696 19.8597 35.2957 19.5531 34.9863C19.2465 34.6768 19.0742 34.2572 19.0742 33.8196C19.0742 33.3819 19.2465 32.9623 19.5531 32.6528C19.8597 32.3434 20.2756 32.1696 20.7092 32.1696H24.2081C24.6417 32.1696 25.0576 32.3434 25.3642 32.6528C25.6709 32.9623 25.8431 33.3819 25.8431 33.8196C25.8431 34.2572 25.6709 34.6768 25.3642 34.9863C25.0576 35.2957 24.6417 35.4696 24.2081 35.4696H24.1863Z" fill="#009AFF"/>
<path d="M24.1863 42.5314H20.7092C20.2756 42.5314 19.8597 42.3576 19.5531 42.0482C19.2465 41.7387 19.0742 41.3191 19.0742 40.8814C19.0742 40.4438 19.2465 40.0242 19.5531 39.7147C19.8597 39.4053 20.2756 39.2314 20.7092 39.2314H24.2081C24.6417 39.2314 25.0576 39.4053 25.3642 39.7147C25.6709 40.0242 25.8431 40.4438 25.8431 40.8814C25.8431 41.3191 25.6709 41.7387 25.3642 42.0482C25.0576 42.3576 24.6417 42.5314 24.2081 42.5314H24.1863Z" fill="#009AFF"/>
<path d="M24.1879 49.588H17.1955C16.7619 49.588 16.3461 49.4141 16.0394 49.1047C15.7328 48.7953 15.5605 48.3756 15.5605 47.938C15.5605 47.5004 15.7328 47.0807 16.0394 46.7712C16.3461 46.4618 16.7619 46.288 17.1955 46.288H24.1879C24.6215 46.288 25.0374 46.4618 25.344 46.7712C25.6506 47.0807 25.8229 47.5004 25.8229 47.938C25.8229 48.3756 25.6506 48.7953 25.344 49.1047C25.0374 49.4141 24.6215 49.588 24.1879 49.588Z" fill="#009AFF"/>
<path d="M24.1863 56.65H20.7092C20.2756 56.65 19.8597 56.4761 19.5531 56.1667C19.2465 55.8573 19.0742 55.4376 19.0742 55C19.0742 54.5624 19.2465 54.1427 19.5531 53.8332C19.8597 53.5238 20.2756 53.35 20.7092 53.35H24.2081C24.6417 53.35 25.0576 53.5238 25.3642 53.8332C25.6709 54.1427 25.8431 54.5624 25.8431 55C25.8431 55.4376 25.6709 55.8573 25.3642 56.1667C25.0576 56.4761 24.6417 56.65 24.2081 56.65H24.1863Z" fill="#009AFF"/>
<path d="M24.1863 63.7065H20.7092C20.2756 63.7065 19.8597 63.5327 19.5531 63.2232C19.2465 62.9138 19.0742 62.4941 19.0742 62.0565C19.0742 61.6189 19.2465 61.1992 19.5531 60.8898C19.8597 60.5803 20.2756 60.4065 20.7092 60.4065H24.2081C24.6417 60.4065 25.0576 60.5803 25.3642 60.8898C25.6709 61.1992 25.8431 61.6189 25.8431 62.0565C25.8431 62.4941 25.6709 62.9138 25.3642 63.2232C25.0576 63.5327 24.6417 63.7065 24.2081 63.7065H24.1863Z" fill="#009AFF"/>
<path d="M24.1879 70.7685H17.1955C16.7619 70.7685 16.3461 70.5947 16.0394 70.2852C15.7328 69.9758 15.5605 69.5561 15.5605 69.1185C15.5605 68.6809 15.7328 68.2612 16.0394 67.9518C16.3461 67.6423 16.7619 67.4685 17.1955 67.4685H24.1879C24.6215 67.4685 25.0374 67.6423 25.344 67.9518C25.6506 68.2612 25.8229 68.6809 25.8229 69.1185C25.8229 69.5561 25.6506 69.9758 25.344 70.2852C25.0374 70.5947 24.6215 70.7685 24.1879 70.7685Z" fill="#009AFF"/>
<path d="M24.1879 28.413H17.1955C16.7619 28.413 16.3461 28.2392 16.0394 27.9298C15.7328 27.6203 15.5605 27.2006 15.5605 26.763C15.5605 26.3254 15.7328 25.9057 16.0394 25.5963C16.3461 25.2869 16.7619 25.113 17.1955 25.113H24.1879C24.6215 25.113 25.0374 25.2869 25.344 25.5963C25.6506 25.9057 25.8229 26.3254 25.8229 26.763C25.8229 27.2006 25.6506 27.6203 25.344 27.9298C25.0374 28.2392 24.6215 28.413 24.1879 28.413Z" fill="#009AFF"/>
<path d="M35.5555 90.2C33.5954 90.1968 31.6841 89.582 30.0836 88.4399C28.4831 87.2978 27.2717 85.6842 26.6152 83.8203C25.9588 81.9563 25.8895 79.9332 26.4167 78.0279C26.944 76.1226 28.0421 74.4285 29.5606 73.1775V25.8775C29.5606 24.273 30.1922 22.7341 31.3164 21.5995C32.4407 20.4649 33.9656 19.8275 35.5555 19.8275C37.1455 19.8275 38.6704 20.4649 39.7947 21.5995C40.9189 22.7341 41.5505 24.273 41.5505 25.8775V73.1775C43.069 74.4285 44.1671 76.1226 44.6944 78.0279C45.2216 79.9332 45.1523 81.9563 44.4959 83.8203C43.8394 85.6842 42.628 87.2978 41.0275 88.4399C39.427 89.582 37.5157 90.1968 35.5555 90.2ZM35.5555 23.1C34.8328 23.1 34.1397 23.3897 33.6287 23.9055C33.1176 24.4212 32.8306 25.1207 32.8306 25.85V73.964C32.8319 74.2386 32.7653 74.5091 32.6368 74.7511C32.5083 74.9932 32.322 75.199 32.0948 75.35C30.9819 76.0995 30.1375 77.1903 29.6862 78.4613C29.2349 79.7324 29.2007 81.1162 29.5887 82.4084C29.9767 83.7005 30.7662 84.8325 31.8407 85.6369C32.9152 86.4414 34.2176 86.8757 35.5555 86.8757C36.8935 86.8757 38.1959 86.4414 39.2704 85.6369C40.3449 84.8325 41.1344 83.7005 41.5224 82.4084C41.9104 81.1162 41.8762 79.7324 41.4249 78.4613C40.9736 77.1903 40.1292 76.0995 39.0163 75.35C38.7934 75.1993 38.6107 74.9955 38.4843 74.7567C38.3579 74.5178 38.2916 74.2513 38.2915 73.9805V25.8775C38.2951 25.5131 38.2269 25.1517 38.0909 24.8141C37.9549 24.4766 37.7537 24.1697 37.4992 23.9112C37.2446 23.6528 36.9417 23.448 36.6081 23.3088C36.2744 23.1695 35.9166 23.0985 35.5555 23.1Z" fill="#009AFF"/>
</svg>
