<svg width="39" height="39" viewBox="0 0 39 39" fill="none" xmlns="http://www.w3.org/2000/svg">
<path d="M19.5005 4.22131C24.4753 4.22131 25.071 4.23741 27.0352 4.33401C28.8545 4.41451 29.8365 4.7204 30.4966 4.978C31.366 5.3161 31.9939 5.71859 32.6379 6.37868C33.2819 7.02267 33.7005 7.65056 34.0386 8.51995C34.2962 9.18004 34.6021 10.1621 34.6826 11.9814C34.7792 13.9456 34.7953 14.5413 34.7953 19.5161C34.7953 24.4909 34.7792 25.0866 34.6826 27.0508C34.6021 28.8701 34.2962 29.8522 34.0386 30.5122C33.7005 31.3816 33.298 32.0095 32.6379 32.6535C31.9939 33.2975 31.366 33.7161 30.4966 34.0542C29.8365 34.3118 28.8545 34.6177 27.0352 34.6982C25.071 34.7948 24.4753 34.8109 19.5005 34.8109C14.5257 34.8109 13.93 34.7948 11.9658 34.6982C10.1465 34.6177 9.16443 34.3118 8.50434 34.0542C7.63495 33.7161 7.00706 33.3136 6.36307 32.6535C5.71908 32.0095 5.30048 31.3816 4.96239 30.5122C4.70479 29.8522 4.3989 28.8701 4.3184 27.0508C4.2218 25.0866 4.2057 24.4909 4.2057 19.5161C4.2057 14.5413 4.2218 13.9456 4.3184 11.9814C4.3989 10.1621 4.70479 9.18004 4.96239 8.51995C5.30048 7.65056 5.70298 7.02267 6.36307 6.37868C7.00706 5.73469 7.63495 5.3161 8.50434 4.978C9.16443 4.7204 10.1465 4.41451 11.9658 4.33401C13.93 4.25351 14.5257 4.22131 19.5005 4.22131ZM19.5005 0.872559C14.4452 0.872559 13.8012 0.888658 11.8209 0.985257C9.84062 1.08186 8.48824 1.38775 7.29686 1.85464C6.07327 2.33764 5.02679 2.96553 3.9964 3.99591C2.96602 5.0263 2.32203 6.07278 1.85513 7.29637C1.38824 8.48775 1.08234 9.84013 0.985745 11.8204C0.889146 13.8007 0.873047 14.4447 0.873047 19.5C0.873047 24.5553 0.889146 25.1993 0.985745 27.1796C1.08234 29.1599 1.38824 30.5122 1.85513 31.7036C2.33813 32.9272 2.96602 33.9737 3.9964 35.0041C5.02679 36.0345 6.07327 36.6785 7.29686 37.1454C8.48824 37.6122 9.84062 37.9181 11.8209 38.0147C13.8012 38.1113 14.4452 38.1274 19.5005 38.1274C24.5558 38.1274 25.1998 38.1113 27.1801 38.0147C29.1604 37.9181 30.5127 37.6122 31.7041 37.1454C32.9277 36.6624 33.9742 36.0345 35.0046 35.0041C36.035 33.9737 36.6789 32.9272 37.1458 31.7036C37.6127 30.5122 37.9186 29.1599 38.0152 27.1796C38.1118 25.1993 38.1279 24.5553 38.1279 19.5C38.1279 14.4447 38.1118 13.8007 38.0152 11.8204C37.9186 9.84013 37.6127 8.48775 37.1458 7.29637C36.6628 6.07278 36.035 5.0263 35.0046 3.99591C33.9742 2.96553 32.9277 2.32154 31.7041 1.85464C30.5127 1.38775 29.1604 1.08186 27.1801 0.985257C25.1998 0.888658 24.5558 0.872559 19.5005 0.872559Z" fill="#006FB8"/>
<path d="M19.5008 9.93677C14.22 9.93677 9.9375 14.2193 9.9375 19.5C9.9375 24.7808 14.22 29.0633 19.5008 29.0633C24.7815 29.0633 29.064 24.7808 29.064 19.5C29.064 14.2193 24.7815 9.93677 19.5008 9.93677ZM19.5008 25.7145C16.0715 25.7145 13.2863 22.9293 13.2863 19.5C13.2863 16.0708 16.0715 13.2855 19.5008 13.2855C22.93 13.2855 25.7153 16.0708 25.7153 19.5C25.7153 22.9293 22.93 25.7145 19.5008 25.7145Z" fill="#006FB8"/>
<path d="M29.4498 11.7882C30.6857 11.7882 31.6877 10.7863 31.6877 9.55037C31.6877 8.31443 30.6857 7.3125 29.4498 7.3125C28.2138 7.3125 27.2119 8.31443 27.2119 9.55037C27.2119 10.7863 28.2138 11.7882 29.4498 11.7882Z" fill="#006FB8"/>
</svg>
