<svg width="37" height="37" viewBox="0 0 37 37" fill="none" xmlns="http://www.w3.org/2000/svg">
<g clip-path="url(#clip0_203_19)">
<path d="M34.225 0H2.775C1.23333 0 0 1.23333 0 2.67222V34.3278C0 35.7667 1.23333 37 2.775 37H34.3278C35.8694 37 37.1028 35.7667 37.1028 34.3278V2.67222C37 1.23333 35.7667 0 34.225 0ZM10.9972 31.5528H5.44722V13.875H10.8944V31.5528H10.9972ZM8.22222 11.4083C6.475 11.4083 5.03611 9.96944 5.03611 8.22222C5.03611 6.475 6.475 5.13889 8.22222 5.13889C9.96944 5.13889 11.4083 6.57778 11.4083 8.325C11.4083 10.0722 9.96944 11.4083 8.22222 11.4083ZM31.5528 31.5528H26.1056V22.9194C26.1056 20.8639 26.1056 18.1917 23.2278 18.1917C20.35 18.1917 19.9389 20.4528 19.9389 22.7139V31.45H14.3889V13.875H19.6306V16.2389H19.7333C20.4528 14.8 22.3028 13.3611 24.975 13.3611C30.525 13.3611 31.5528 17.0611 31.5528 21.7889V31.5528Z" fill="#006FB8"/>
</g>
<defs>
<clipPath id="clip0_203_19">
<rect width="37" height="37" fill="white"/>
</clipPath>
</defs>
</svg>
