<svg width="40" height="30" viewBox="0 0 40 30" fill="none" xmlns="http://www.w3.org/2000/svg">
<g clip-path="url(#clip0_203_234)">
<path d="M36.3636 0H3.63636C1.63636 0 0 1.62 0 3.6V26.4C0 28.38 1.63636 30 3.63636 30H36.3636C38.3636 30 40 28.38 40 26.4V3.6C40 1.62 38.3636 0 36.3636 0ZM37.5758 26.4C37.5758 27.06 37.0303 27.6 36.3636 27.6H3.63636C2.9697 27.6 2.42424 27.06 2.42424 26.4V3.6C2.42424 2.94 2.9697 2.4 3.63636 2.4H36.3636C37.0303 2.4 37.5758 2.94 37.5758 3.6V26.4Z" fill="#006FB8"/>
<path d="M34.1208 21.96L25.1511 15.48L34.1814 7.97998C34.6663 7.55998 34.7875 6.77998 34.3026 6.29998C33.8784 5.81998 33.0905 5.69998 32.6057 6.17998L21.9996 15C20.8481 15.96 19.2117 15.96 18.0602 15L7.39355 6.11998C6.9087 5.69998 6.12082 5.75998 5.69658 6.23998C5.27233 6.71998 5.33294 7.49998 5.81779 7.91998L14.8481 15.42L5.87839 21.96C5.33294 22.38 5.21173 23.1 5.63597 23.64C5.87839 23.94 6.24203 24.12 6.60567 24.12C6.84809 24.12 7.09052 24.06 7.33294 23.88L16.7875 16.98C17.7572 17.7 18.9087 18 19.9996 18C21.1511 18 22.242 17.64 23.2117 16.98L32.6663 23.88C32.9087 24.06 33.1511 24.12 33.3935 24.12C33.7572 24.12 34.1208 23.94 34.3632 23.64C34.7875 23.1 34.6663 22.38 34.1208 21.96Z" fill="#006FB8"/>
</g>
<defs>
<clipPath id="clip0_203_234">
<rect width="40" height="30" fill="white"/>
</clipPath>
</defs>
</svg>
