<svg width="29" height="27" viewBox="0 0 29 27" fill="none" xmlns="http://www.w3.org/2000/svg">
<path fill-rule="evenodd" clip-rule="evenodd" d="M26.9326 18.7488C26.2359 18.4006 22.8056 16.7132 22.1625 16.4721C21.5193 16.2445 21.0503 16.1239 20.5948 16.8203C20.1258 17.5167 18.7859 19.097 18.3839 19.5523C17.9819 20.021 17.5665 20.0746 16.8697 19.7264C16.173 19.3782 13.9219 18.6416 11.2554 16.2579C9.17854 14.4098 7.78501 12.1197 7.36963 11.4234C6.96765 10.727 7.32943 10.352 7.67781 10.0038C7.986 9.6958 8.37458 9.1869 8.72296 8.78514C9.07134 8.38338 9.19193 8.08876 9.41972 7.62004C9.64751 7.15132 9.54032 6.74956 9.36613 6.40136C9.19194 6.05317 7.7984 2.61144 7.20883 1.21867C6.64606 -0.147312 6.06989 0.0401776 5.64112 0.0267857C5.23914 1.68986e-06 4.77016 0 4.30118 0C3.83221 0 3.08184 0.174096 2.43867 0.870479C1.79551 1.56686 0 3.25425 0 6.69599C0 10.1377 2.50567 13.4455 2.85405 13.9143C3.20244 14.383 7.77161 21.4272 14.7795 24.4538C16.441 25.1769 17.7407 25.6055 18.7591 25.9269C20.434 26.4626 21.9481 26.3822 23.154 26.2081C24.494 26.0072 27.281 24.5207 27.8706 22.8869C28.4468 21.2531 28.4468 19.8603 28.2726 19.5657C28.0984 19.2711 27.6428 19.097 26.9326 18.7488Z" fill="#006FB8"/>
</svg>
