<svg width="32" height="32" viewBox="0 0 32 32" fill="none" xmlns="http://www.w3.org/2000/svg">
<path fill-rule="evenodd" clip-rule="evenodd" d="M26.86 4.59299C23.903 1.63606 19.978 0.00750488 15.7903 0C7.15966 0 0.142593 7.02457 0.135088 15.6477C0.135088 18.4095 0.855557 21.0962 2.22144 23.4753L0 31.588L8.3004 29.4116C10.5894 30.6574 13.1636 31.3179 15.7828 31.3179H15.7903C24.4134 31.3179 31.4379 24.2933 31.4454 15.6627C31.4379 11.4825 29.8169 7.54991 26.86 4.59299ZM15.7903 28.6761C13.4487 28.6761 11.1598 28.0457 9.16346 26.86L8.69065 26.5748L3.76745 27.8656L5.0808 23.0625L4.7731 22.5672C3.46725 20.4958 2.78431 18.1018 2.78431 15.6477C2.78431 8.47301 8.62311 2.64172 15.7978 2.64172C19.2725 2.64172 22.5371 4.0001 24.9988 6.4542C27.4528 8.9158 28.8037 12.1804 28.8037 15.6552C28.7962 22.8373 22.9574 28.6761 15.7903 28.6761ZM22.9199 18.9348C22.5296 18.7397 20.6084 17.7941 20.2482 17.659C19.8879 17.5314 19.6253 17.4639 19.3701 17.8541C19.1074 18.2444 18.3569 19.1299 18.1318 19.3851C17.9066 19.6478 17.674 19.6778 17.2837 19.4827C16.8935 19.2875 15.6327 18.8748 14.1392 17.5389C12.9759 16.5032 12.1954 15.2199 11.9628 14.8296C11.7376 14.4394 11.9403 14.2293 12.1354 14.0341C12.308 13.8615 12.5256 13.5763 12.7208 13.3512C12.9159 13.126 12.9834 12.9609 13.111 12.6983C13.2386 12.4356 13.1786 12.2104 13.081 12.0153C12.9834 11.8202 12.2029 9.89143 11.8727 9.11092C11.5575 8.34543 11.2348 8.45049 10.9946 8.44299C10.7695 8.42798 10.5068 8.42798 10.2442 8.42798C9.98149 8.42798 9.56122 8.52554 9.20098 8.9158C8.84075 9.30605 7.83509 10.2517 7.83509 12.1804C7.83509 14.1092 9.23851 15.9629 9.43363 16.2255C9.62876 16.4882 12.1879 20.4358 16.113 22.1319C17.0436 22.5372 17.7716 22.7773 18.3419 22.9574C19.28 23.2576 20.1281 23.2126 20.8035 23.115C21.554 23.0025 23.115 22.1694 23.4452 21.2538C23.768 20.3382 23.768 19.5577 23.6704 19.3926C23.5728 19.2275 23.3177 19.1299 22.9199 18.9348Z" fill="#006FB8"/>
</svg>
