<svg width="41" height="41" viewBox="0 0 41 41" fill="none" xmlns="http://www.w3.org/2000/svg">
<path fill-rule="evenodd" clip-rule="evenodd" d="M34.4574 6.45164C30.7517 2.74585 25.8325 0.70484 20.5842 0.695435C9.76783 0.695435 0.973628 9.49905 0.964222 20.306C0.964222 23.7673 1.86716 27.1345 3.57897 30.1161L0.794922 40.2835L11.1975 37.5559C14.0662 39.1172 17.2923 39.9449 20.5748 39.9449H20.5842C31.3912 39.9449 40.1948 31.1413 40.2043 20.3249C40.1948 15.086 38.1632 10.1574 34.4574 6.45164ZM20.5842 36.6341C17.6497 36.6341 14.781 35.844 12.2791 34.358L11.6866 34.0005L5.51652 35.6183L7.16249 29.5987L6.77686 28.978C5.1403 26.382 4.28439 23.3817 4.28439 20.306C4.28439 11.3143 11.6019 4.00619 20.5936 4.00619C24.9484 4.00619 29.0398 5.7086 32.1249 8.78422C35.2005 11.8693 36.8935 15.9607 36.8935 20.3154C36.8841 29.3166 29.5666 36.6341 20.5842 36.6341ZM29.5195 24.4257C29.0304 24.1811 26.6226 22.996 26.1711 22.8267C25.7197 22.6668 25.3905 22.5822 25.0707 23.0713C24.7415 23.5604 23.8009 24.6702 23.5188 24.99C23.2366 25.3192 22.945 25.3568 22.4559 25.1123C21.9669 24.8677 20.3867 24.3504 18.515 22.6762C17.0571 21.3783 16.079 19.7699 15.7874 19.2808C15.5052 18.7917 15.7592 18.5284 16.0037 18.2838C16.2201 18.0675 16.4928 17.7101 16.7374 17.4279C16.9819 17.1458 17.0666 16.9389 17.2264 16.6097C17.3863 16.2805 17.3111 15.9983 17.1888 15.7537C17.0666 15.5092 16.0884 13.092 15.6745 12.1138C15.2795 11.1544 14.8751 11.2861 14.5741 11.2767C14.2919 11.2579 13.9627 11.2579 13.6335 11.2579C13.3043 11.2579 12.7776 11.3802 12.3261 11.8693C11.8747 12.3583 10.6143 13.5434 10.6143 15.9607C10.6143 18.3779 12.3732 20.7011 12.6177 21.0303C12.8623 21.3595 16.0696 26.3068 20.9887 28.4325C22.155 28.9404 23.0673 29.2413 23.7821 29.4671C24.9578 29.8433 26.0207 29.7869 26.8672 29.6646C27.8077 29.5235 29.7641 28.4795 30.1779 27.332C30.5824 26.1845 30.5824 25.2063 30.4601 24.9994C30.3378 24.7925 30.018 24.6702 29.5195 24.4257Z" fill="white"/>
</svg>
